<svg xmlns="http://www.w3.org/2000/svg" viewBox="0 0 36.87 36.87"><defs><style>.cls-1{fill:#54535a;}.cls-2{fill:#fff;}</style></defs><title>Asset 3</title><g id="Layer_2" data-name="Layer 2"><g id="footer"><circle class="cls-1" cx="18.43" cy="18.43" r="18.43"/><rect class="cls-2" x="9.88" y="14.93" width="3.67" height="11.04"/><path class="cls-2" d="M11.72,13.42h0a1.91,1.91,0,1,1,0-3.82,1.92,1.92,0,1,1,0,3.82Z"/><path class="cls-2" d="M26.79,26H23.12V20.06c0-1.48-.53-2.49-1.86-2.49a2,2,0,0,0-1.88,1.34,2.43,2.43,0,0,0-.12.89V26H15.59s0-10,0-11h3.67v1.56a3.63,3.63,0,0,1,3.3-1.82c2.42,0,4.23,1.58,4.23,5Z"/></g></g></svg>