<svg xmlns="http://www.w3.org/2000/svg" viewBox="0 0 36.87 36.87"><defs><style>.cls-1{fill:#54535a;}.cls-2{fill:#fff;}</style></defs><title>Asset 2</title><g id="Layer_2" data-name="Layer 2"><g id="footer"><circle class="cls-1" cx="18.43" cy="18.43" r="18.43"/><path class="cls-2" d="M26.8,14.56c0,.17,0,.33,0,.5a11,11,0,0,1-16.9,9.25c.3,0,.61.05.92.05a7.7,7.7,0,0,0,4.79-1.65A3.86,3.86,0,0,1,12,20a4.18,4.18,0,0,0,.72.07,3.81,3.81,0,0,0,1-.14,3.85,3.85,0,0,1-3.1-3.78v-.05a3.85,3.85,0,0,0,1.75.48,3.84,3.84,0,0,1-1.19-5.15,10.93,10.93,0,0,0,8,4,4.16,4.16,0,0,1-.1-.88A3.87,3.87,0,0,1,25.75,12,7.63,7.63,0,0,0,28.2,11a3.87,3.87,0,0,1-1.7,2.13,7.75,7.75,0,0,0,2.22-.6A7.9,7.9,0,0,1,26.8,14.56Z"/></g></g></svg>