<?xml version="1.0" encoding="utf-8"?>
<!-- Generator: Adobe Illustrator 16.0.0, SVG Export Plug-In . SVG Version: 6.00 Build 0)  -->
<!DOCTYPE svg PUBLIC "-//W3C//DTD SVG 1.1//EN" "http://www.w3.org/Graphics/SVG/1.1/DTD/svg11.dtd">
<svg version="1.1" id="Layer_1" xmlns="http://www.w3.org/2000/svg" xmlns:xlink="http://www.w3.org/1999/xlink" x="0px" y="0px"
	 width="149.971px" height="149.98px" viewBox="0 0 149.971 149.98" enable-background="new 0 0 149.971 149.98"
	 xml:space="preserve">
<g>
	<path fill="#5463D5" d="M0,74.861C-0.124,33.748,33.755-0.048,75.046,0c41.163,0.048,74.808,33.795,74.925,75.151
		c0.113,40.755-33.604,74.54-74.68,74.827C33.84,150.269,0.126,116.633,0,74.861z"/>
	<path fill="#FEFEFE" d="M37.015,67.227c9.439,6.646,18.125,12.721,26.767,18.854c9.31,6.608,13.151,6.624,22.429,0.059
		c8.655-6.125,17.343-12.204,26.841-18.886c0,2.646,0,4.689,0,6.731c-0.001,8.822,0.078,17.646-0.033,26.468
		c-0.063,5.006-2.468,7.493-7.27,7.508c-20.476,0.062-40.951,0.061-61.426,0.001c-4.627-0.013-7.205-2.418-7.263-6.993
		C36.921,89.998,37.015,79.024,37.015,67.227z"/>
	<path fill="#FEFEFE" d="M75.496,48.113c9.658,0.001,19.316-0.061,28.975,0.021c7.139,0.061,10.451,5.344,7.611,11.881
		c-1.234,2.842-3.241,5.097-5.683,6.836c-8.262,5.886-16.678,11.556-24.933,17.451c-4.38,3.13-8.462,3.119-12.836,0.007
		c-8.26-5.882-16.671-11.553-24.933-17.432c-2.302-1.638-4.222-3.77-5.546-6.341c-3.272-6.353,0.253-12.36,7.373-12.406
		C55.514,48.065,65.505,48.113,75.496,48.113z"/>
</g>
</svg>
