<?xml version="1.0" encoding="utf-8"?>
<!-- Generator: Adobe Illustrator 16.0.0, SVG Export Plug-In . SVG Version: 6.00 Build 0)  -->
<!DOCTYPE svg PUBLIC "-//W3C//DTD SVG 1.1//EN" "http://www.w3.org/Graphics/SVG/1.1/DTD/svg11.dtd">
<svg version="1.1" id="Layer_1" xmlns="http://www.w3.org/2000/svg" xmlns:xlink="http://www.w3.org/1999/xlink" x="0px" y="0px"
	 width="149.97px" height="149.98px" viewBox="0 0 149.97 149.98" enable-background="new 0 0 149.97 149.98" xml:space="preserve">
<g>
	<path fill-rule="evenodd" clip-rule="evenodd" fill="#5463D5" d="M74.984,0c41.145-0.005,74.827,33.724,74.986,75.089
		c0.156,40.938-33.975,74.967-75.116,74.89C33.247,149.9-0.082,116.261-0.001,74.425C0.078,33.562,33.886,0.006,74.984,0z"/>
	<path fill-rule="evenodd" clip-rule="evenodd" fill="#FEFEFE" d="M75.342,37.015c19.679,0.046,32.784,18.354,27,37.942
		c-4.229,14.319-13.781,25.305-23.377,36.191c-2.015,2.286-5.077,2.82-7.13,0.541C60.897,99.552,49.731,87.368,46.867,70.446
		C43.764,52.117,56.896,36.972,75.342,37.015z"/>
	<path fill-rule="evenodd" clip-rule="evenodd" fill="#5463D5" d="M75.029,42.752c14.645,0.001,25.586,13.442,22.369,27.707
		c-3.121,13.842-12.069,24.242-20.934,34.658c-0.96,1.129-1.859,1.245-2.859,0.066c-9.179-10.824-18.549-21.64-21.215-36.162
		C49.886,55.377,61.031,42.75,75.029,42.752z"/>
	<path fill-rule="evenodd" clip-rule="evenodd" fill="#FBFBFD" d="M74.87,79.405C66.76,79.34,60.269,72.872,60.292,64.88
		c0.023-7.862,6.768-14.623,14.651-14.687c8.043-0.065,15.024,7.001,14.829,15.01C89.576,73.246,83.044,79.472,74.87,79.405z"/>
	<path fill-rule="evenodd" clip-rule="evenodd" fill="#5463D5" d="M75.2,53.894c6.151,0.072,10.972,5.036,10.896,11.22
		c-0.075,6.092-5.154,11.034-11.238,10.938c-6.074-0.098-10.995-5.179-10.933-11.291C63.985,58.681,69.028,53.82,75.2,53.894z"/>
</g>
</svg>
