<?xml version="1.0" encoding="utf-8"?>
<!-- Generator: Adobe Illustrator 16.0.0, SVG Export Plug-In . SVG Version: 6.00 Build 0)  -->
<!DOCTYPE svg PUBLIC "-//W3C//DTD SVG 1.1//EN" "http://www.w3.org/Graphics/SVG/1.1/DTD/svg11.dtd">
<svg version="1.1" id="Layer_1" xmlns="http://www.w3.org/2000/svg" xmlns:xlink="http://www.w3.org/1999/xlink" x="0px" y="0px"
	 width="149.971px" height="149.98px" viewBox="0 0 149.971 149.98" enable-background="new 0 0 149.971 149.98"
	 xml:space="preserve">
<g>
	<path fill="#5463D5" d="M0,74.888C-0.136,33.77,33.72-0.026,75.021,0c41.155,0.027,74.815,33.767,74.95,75.126
		c0.131,40.752-33.571,74.544-74.653,74.854C33.876,150.29,0.139,116.654,0,74.888z"/>
	<path fill="#FEFEFE" d="M88.875,102.94c-6.111-1.226-13.021-3.457-19.065-7.768c-11.53-8.223-20.346-18.472-24.095-32.533
		C44.126,56.677,45.33,51.413,49,46.715c4.164-5.329,10.137-4.765,13.326,1.065c0.479,0.874,0.947,1.752,1.429,2.624
		c4.185,7.565,4.262,7.65-2.081,13.481c-1.988,1.829-1.515,3.243-0.43,5.167c4.094,7.264,9.632,12.989,16.891,17.198
		c2.791,1.618,4.411,1.736,6.601-0.975c4.676-5.792,4.842-5.653,11.159-2.033c1.585,0.908,3.187,1.787,4.78,2.678
		c5.152,2.879,5.751,8.359,1.163,12.388C98.514,101.226,94.57,102.906,88.875,102.94z"/>
</g>
</svg>
