<?xml version="1.0" encoding="utf-8"?>
<!-- Generator: Adobe Illustrator 16.0.0, SVG Export Plug-In . SVG Version: 6.00 Build 0)  -->
<!DOCTYPE svg PUBLIC "-//W3C//DTD SVG 1.1//EN" "http://www.w3.org/Graphics/SVG/1.1/DTD/svg11.dtd">
<svg version="1.1" id="Layer_1" xmlns="http://www.w3.org/2000/svg" xmlns:xlink="http://www.w3.org/1999/xlink" x="0px" y="0px"
	 width="262px" height="300px" viewBox="0 0 262 300" enable-background="new 0 0 262 300" xml:space="preserve">
<g>
	<path fill="#00B9BB" d="M134.089,105.852c23.826,0,47.651,0.087,71.476-0.086c3.953-0.029,5.42,0.707,5.396,5.094
		c-0.192,34.487-0.084,68.977-0.118,103.465c-0.014,14.082-7.232,21.271-21.199,21.288c-9.642,0.012-9.629,0.012-9.646,9.621
		c-0.017,9.664,0.187,19.336-0.172,28.985c-0.319,8.581-6.022,14.792-14.187,16.367c-7.267,1.401-14.895-2.387-18.365-9.146
		c-1.562-3.045-1.896-6.334-1.891-9.697c0.016-10.496-0.158-20.997,0.092-31.487c0.09-3.825-1.182-4.935-4.848-4.712
		c-4.646,0.283-9.336,0.255-13.988,0.007c-3.431-0.183-4.632,0.892-4.563,4.454c0.21,10.825,0.116,21.658,0.064,32.487
		c-0.053,10.95-7.237,18.495-17.368,18.358c-9.686-0.133-16.695-7.865-16.767-18.552c-0.073-10.827-0.214-21.657-0.09-32.481
		c0.037-3.248-0.899-4.463-4.24-4.273c-3.64,0.205-7.354,0.188-10.959-0.301c-8.818-1.191-15.5-7.988-15.559-16.828
		c-0.24-36.486-0.09-72.975-0.215-109.462c-0.014-4.008,2.541-3.079,4.671-3.082C85.772,105.84,109.931,105.852,134.089,105.852z"/>
	<path fill="#00B9BB" d="M133.238,99.853c-23.979,0-47.958-0.062-71.938,0.064c-3.692,0.02-5.072-0.384-4.674-4.844
		c2.152-24.097,14.187-41.753,34.421-54.185c3.498-2.148,5.058-3.684,2.334-7.759c-3.219-4.817-5.663-10.156-8.396-15.294
		c-0.916-1.722-2.438-3.811,0.18-5.126c2.313-1.162,3.078,1.155,3.936,2.697c3.233,5.812,6.565,11.577,9.565,17.51
		c1.203,2.377,2.372,2.528,4.65,1.654c20.256-7.77,40.582-7.828,60.853-0.079c2.571,0.982,3.852,0.542,5.098-1.91
		c2.937-5.779,6.094-11.449,9.284-17.095c0.906-1.604,1.751-4.199,4.376-2.621c2.245,1.349,0.762,3.202-0.086,4.774
		c-2.841,5.268-5.507,10.646-8.644,15.732c-2.085,3.382-1.868,5.046,1.847,7.177c15.463,8.87,26.092,21.934,31.877,38.814
		c1.781,5.197,2.645,10.611,3.119,16.11c0.305,3.529-0.855,4.477-4.365,4.455C182.198,99.783,157.718,99.853,133.238,99.853z"/>
	<path fill="#00B9BB" d="M251.848,155.997c-0.002,11.655,0.153,23.315-0.053,34.968c-0.164,9.26-5.605,15.754-14.102,17.528
		c-7.439,1.554-15.168-2.357-18.603-9.438c-1.336-2.757-1.708-5.709-1.708-8.736c0.006-23.146-0.029-46.292,0.018-69.438
		c0.022-10.646,7.096-18.162,16.968-18.231c9.938-0.07,17.286,7.291,17.44,17.881C251.984,132.35,251.852,144.174,251.848,155.997z"
		/>
	<path fill="#00B9BB" d="M50.151,155.489c0,11.817,0.048,23.637-0.015,35.454c-0.055,10.384-7.112,17.858-16.756,17.906
		c-9.813,0.047-17.316-7.58-17.353-17.979c-0.083-23.637-0.076-47.274-0.003-70.911c0.031-9.981,7.646-17.43,17.413-17.32
		c9.569,0.106,16.661,7.438,16.703,17.393C50.189,131.852,50.151,143.67,50.151,155.489z"/>
	<path fill="#FBFCFC" d="M105.029,64.895c-0.221,4.047-2.507,6.442-6.152,6.693c-3.781,0.26-6.167-2.133-6.632-5.95
		c-0.437-3.587,2.6-6.785,6.258-6.759C102.534,58.907,104.351,61.349,105.029,64.895z"/>
	<path fill="#FCFDFD" d="M162.848,64.696c0.187-3.124,2.019-5.515,5.969-5.801c3.729-0.27,6.775,2.657,6.574,6.395
		c-0.205,3.835-2.404,6.138-6.234,6.368C165.68,71.866,162.952,68.958,162.848,64.696z"/>
</g>
</svg>
