<?xml version="1.0" encoding="utf-8"?>
<!-- Generator: Adobe Illustrator 16.0.0, SVG Export Plug-In . SVG Version: 6.00 Build 0)  -->
<!DOCTYPE svg PUBLIC "-//W3C//DTD SVG 1.1//EN" "http://www.w3.org/Graphics/SVG/1.1/DTD/svg11.dtd">
<svg version="1.1" id="Layer_1" xmlns="http://www.w3.org/2000/svg" xmlns:xlink="http://www.w3.org/1999/xlink" x="0px" y="0px"
	 width="240.667px" height="293.334px" viewBox="0 0 240.667 293.334" enable-background="new 0 0 240.667 293.334"
	 xml:space="preserve">
<g>
	<path fill="#00B9BB" d="M4.297,155.508c0.209-14.672,2.553-30.188,9.292-44.84c14.652-31.855,41.107-45.22,75.407-37.909
		c6.499,1.385,13.013,2.908,19.306,5.009c11.286,3.766,22.194,2.736,33.247-0.971c12.773-4.285,25.582-8.549,39.436-7.441
		c19.439,1.553,34.645,10.646,46.852,25.485c1.846,2.242,0.533,3.067-0.875,4.279c-7.61,6.55-14.469,13.691-19.568,22.494
		c-15.73,27.152-6.355,66.318,20.095,83.215c0.979,0.625,1.989,1.214,3.028,1.732c7.09,3.533,7.268,3.599,4.22,10.893
		c-9.058,21.688-20.216,42.062-38.435,57.587c-9.555,8.144-20.551,11.364-33.021,7.562c-7.313-2.232-14.702-4.229-21.976-6.578
		c-12.482-4.03-24.626-2.66-36.649,1.832c-3.895,1.455-7.782,2.934-11.698,4.328c-15.542,5.535-28.744,1.235-40.282-9.734
		c-16.906-16.072-27.579-36.129-36.311-57.364C8.693,196.433,4.421,177.036,4.297,155.508z"/>
	<path fill="#00B9BB" d="M119.147,68.772c3.233-32.938,18.781-53.25,49.634-61.496c4.887-1.306,5.695,0.369,5.68,4.505
		c-0.062,17.872-6.852,32.889-18.899,45.842c-8.383,9.012-18.375,14.411-30.746,15.802C119.728,73.997,117.522,73.3,119.147,68.772z
		"/>
</g>
</svg>
