<?xml version="1.0" encoding="utf-8"?>
<!-- Generator: Adobe Illustrator 16.0.0, SVG Export Plug-In . SVG Version: 6.00 Build 0)  -->
<!DOCTYPE svg PUBLIC "-//W3C//DTD SVG 1.1//EN" "http://www.w3.org/Graphics/SVG/1.1/DTD/svg11.dtd">
<svg version="1.1" id="Layer_1" xmlns="http://www.w3.org/2000/svg" xmlns:xlink="http://www.w3.org/1999/xlink" x="0px" y="0px"
	 width="1440px" height="396.38px" viewBox="0 0 1440 396.38" enable-background="new 0 0 1440 396.38" xml:space="preserve">
<g>
	<path fill="#4A59B4" d="M1,30.38c0-10.333,0-20.667,0-31c1.724-0.946,3.593-0.473,5.387-0.476
		C31.192-1.132,55.996-1.12,80.786-1.12c6.055-0.785,8.015,4.242,9.903,8.032c3.828,7.686,9.468,14.026,14.268,20.966
		c2.821,4.079,5.774,8.133,8.372,12.318c8.047,12.963,17.333,25.074,26.328,37.309c7.837,10.661,14.786,21.915,22.733,32.511
		c8.114,10.817,15.025,22.629,23.244,33.408c4.625,6.066,8.031,13.009,13.478,18.45c1.927,1.924,2.798,4.5,3.989,6.854
		c1.296,2.562,0.519,4.505-2.288,5.489c-2.796,0.624-5.192-0.671-7.655-1.609c-30.861-11.758-61.737-23.472-92.985-34.179
		c-4.376-1.5-9.208-1.593-13.193-4.274c-1.659-2.25-4.23-2.14-6.609-2.532c-0.49-0.132-0.982-0.245-1.483-0.333
		c-2.772-2.236-6.214-2.673-9.471-3.682c-1.965-0.608-4.221-1.055-5.465-3.087c1.145-3.188-1.102-4.694-3.142-6.315
		c-4.441-3.529-6.413-8.869-9.227-13.46c-4.671-7.621-10.461-14.425-15.044-22.09c-3.564-5.961-8.827-10.99-12.212-16.824
		c-5.727-9.87-13.542-18.049-19.753-27.459C2.859,35.779,2.481,32.898,1,30.38z"/>
	<path fill-rule="evenodd" clip-rule="evenodd" fill="#505EB3" d="M1,284.38c0-60.333,0-120.667,0-181
		c4.039-2.946,7.4-1.333,10.578,1.556c1.792,6.191,6.348,10.786,9.864,15.861c6.795,9.808,14.241,19.225,20.805,29.163
		c9.867,14.938,20.398,29.37,30.654,44.018c8.367,11.948,17.368,23.482,25.183,35.766c6.243,9.811,13.204,19.064,19.685,28.675
		c1.532,2.271,3.676,4.449,2.798,7.67c-0.374,0.763-0.9,1.387-1.622,1.846c-9.783,2.341-19.703,3.905-29.722,4.631
		c-2.93,0.212-5.166,2.179-8.01,2.279c-9.437,0.256-18.675,2.383-28.072,3.012c-12.144,2.775-24.486,4.38-36.779,6.289
		c-2.648,0.411-5.308,0.236-7.931,0.672C5.955,284.682,3.383,286.141,1,284.38z"/>
	<path fill-rule="evenodd" clip-rule="evenodd" fill="#5463AC" d="M1441-0.62c0,33.667,0,67.333,0,101
		c-0.476,0.36-0.969,0.386-1.479,0.077c-1.028-0.934-1.404-2.218-1.854-3.461c-1.061-8.444-1.12-16.925-0.957-25.423
		c0.082-4.271-0.831-5.021-5.075-4.287c-4.78,0.826-9.534,1.379-14.35,0.396c-4.4-2.086-6.913-6.218-9.237-9.974
		c-7.058-11.408-15.238-21.965-23.124-32.765c-4.784-6.553-8.914-13.606-13.115-20.569c-1.24-2.056-2.448-4.918,1.863-5.493
		c20.655-0.002,41.298-0.014,61.94,0.023C1437.406-1.093,1439.276-1.566,1441-0.62z"/>
	<path fill-rule="evenodd" clip-rule="evenodd" fill="#4354B2" d="M1,361.38c0-12,0-24,0-36c1.153-7.491,0.117-15.037,0.558-22.543
		c3.085-3.712,4.852-0.958,6.722,1.348c0.671,0.439,1.243,0.985,1.723,1.621c10.502,15.454,20.549,31.227,31.425,46.435
		c1.389,1.942,2.04,4.168,3.217,6.168c0.912,1.55,1.417,3.403,3.52,3.89c0.463,0.107,1.134,0.446,1.217,0.807
		c1.441,6.302,8.222,8.819,10.301,14.717c1.799,5.102,6.597,8.275,8.924,13.072c1.099,2.266,3.207,4.894-1.326,5.985
		c-13.592,0.001-27.172,0.002-40.743,0c-3.659-0.117-4.833-3.573-6.315-5.707C13.482,381.472,4.896,372.914,1,361.38z"/>
	<path fill-rule="evenodd" clip-rule="evenodd" fill="#4A59B5" d="M11.002,106.379C7.967,104.383,4.458,103.968,1,103.38
		c0-24.333,0-48.667,0-73c5.59,7.388,12.822,13.581,16.362,22.461c0.418,1.047,1.515,1.211,2.252,1.827
		c2.637,2.202,5.776,4.099,5.518,8.284c-0.037,0.6,0.243,1.425,0.674,1.817c10.9,9.905,16.283,23.863,25.615,34.953
		c2.218,2.635,4.037,5.936,5.715,9.108c2.901,5.486,5.936,10.737,12.71,11.825c-0.306,3.839-5.013-1.667-4.846,2.725
		c-0.987,1.408-2.423,1.811-3.935,1.316c-7.056-2.307-14.191-4.388-21.089-7.159c-0.441-0.177-0.721-0.666-1.017-1.054
		c-0.903-4.09-3.544-1.253-5.454-1.331c-3.236-0.451-6.399-1.141-9.292-2.734c-1.57-1.047-3.359-1.399-5.205-1.59
		C16.068,109.829,12.542,109.884,11.002,106.379z"/>
	<path fill-rule="evenodd" clip-rule="evenodd" fill="#E8EAF4" d="M1441-0.62c-23,0.057-46,0.113-69,0.169
		c-0.652,0.487-1.268,1.274-2.086,1.209c-5.77-0.465-11.331,1.283-17.029,1.529c-2.959-0.632-5.965-0.515-8.961-0.516
		c-22.984-0.013-45.973-0.25-68.954,0.057c-27.647,0.368-55.26-1.452-82.902-0.956c-3.33,0.061-6.663-0.019-9.989,0.202
		c-3.278,0.601-6.588,0.699-9.913,0.698c-26.395-0.015-52.789-0.038-79.183,0.023c-4.002,0.009-7.938-0.52-11.903-0.823
		c-21.354-0.201-42.709-0.062-64.064-0.068c-24.847,1.499-49.706,0.991-74.564,0.425c-1.501-0.034-2.949,0.524-4.446,0.217
		c-1.401-0.663-2.903-0.662-4.406-0.662c-30.987,0.003-61.975-0.027-92.963,0.018c-0.834,0.001-1.661,0.104-2.488,0.205
		c-13.406,1.067-26.81,1.079-40.209-0.126c-42.498-0.222-84.996-0.062-127.493-0.077c-1.668,0-3.331,0.109-4.975,0.426
		c-2.926,0.884-5.858-0.252-8.787,0.038c-3.314,0.39-6.643,0.398-9.972,0.398c-42.279-0.002-84.559-0.021-126.838,0.03
		c-3.992,0.005-7.962-0.519-11.95-0.294c-0.931,0.176-1.9,0.045-2.816,0.345c-2.796,0.845-5.451-0.413-8.184-0.523
		c-1.845,0.331-3.599,1.292-5.554,0.801c-2.975-0.484-5.974-0.352-8.964-0.353c-34.423-0.012-68.847-0.064-103.27,0.054
		c-5.33,0.019-10.593-0.974-15.917-0.604c-11.255,0.98-22.523,0.572-33.789,0.261c-1.188-0.032-2.288-0.386-3.143-1.288
		c-0.497-0.542-0.592-1.146-0.288-1.814c370.167,0,740.333-0.002,1110.5,0.062C1437.963-1.559,1439.891-2.712,1441-0.62z"/>
	<path fill-rule="evenodd" clip-rule="evenodd" fill="#4353B2" d="M1,361.38c2.87,1.65,4.382,4.407,6.012,7.134
		c4.93,8.247,10.885,15.73,17.284,22.884c1.186,1.325,0.593,3.196,0.703,4.832c-7.993,1.149-15.994,0.899-23.999,0.15
		C1,384.713,1,373.047,1,361.38z"/>
	<path fill-rule="evenodd" clip-rule="evenodd" fill="#E7E9F5" d="M326-1.62c0,0.278,0,0.556,0,0.834
		c-1.908,3.362-5.267,2.437-8.087,2.465c-17.491,0.179-34.986-0.056-52.477,0.113c-32.136,0.312-64.248-1.406-96.388-1.027
		c-6.041,0.07-11.871,1.574-17.869,1.51c-8.417-1.036-16.871-0.365-25.307-0.486c-8.113-0.115-16.229-0.014-24.343-0.028
		c-6.252-0.012-12.572,0.51-18.502-2.211C55.685-0.507,28.343-0.563,1-0.62c1.109-2.092,3.036-0.937,4.5-0.938
		c82.333-0.07,164.667-0.062,247-0.062C277-1.62,301.5-1.62,326-1.62z"/>
	<path fill-rule="evenodd" clip-rule="evenodd" fill="#4C5DB1" d="M1439,97.378c0.779,0.853,0.979,1.897,1,3.002
		c0.939,1.726,0.477,3.597,0.477,5.392c0.026,95.406,0.026,190.812,0,286.217c0,1.796,0.462,3.666-0.477,5.392c-0.333,0-0.667,0-1,0
		c-0.445-0.465-0.85-0.962-1.213-1.493c-2.124-9.836-1.28-19.72-0.47-29.603c0.173-20.896,0.563-41.791-0.218-62.681
		c-0.667-2.533-0.601-5.064,0.017-7.597c0.49-3.477,0.38-6.974,0.38-10.465c0.006-60.048-0.003-120.096,0.026-180.143
		c0.001-2.461-0.474-5.006,0.747-7.357C1438.513,97.82,1438.757,97.6,1439,97.378z"/>
	<path fill-rule="evenodd" clip-rule="evenodd" fill="#5261AD" d="M1440,397.38c0-99,0-198,0-297c0.333,0,0.667,0,1,0
		c0,97.5,0.007,195-0.062,292.5C1440.937,394.344,1442.092,396.271,1440,397.38z"/>
	<path fill-rule="evenodd" clip-rule="evenodd" fill="#919BCD" d="M1076,397.38c-97,0-194,0-291,0
		c-0.076-0.695,0.111-1.312,0.559-1.849c1.933-1.765,4.377-1.459,6.654-1.465c44.476-0.112,88.951-0.085,133.427-0.047
		c2.006,0.002,3.968,0.491,5.972,0.419c3.524-0.686,7.107,0.533,10.625-0.347c34.136,0.023,68.273-0.502,102.405,0.275
		c7.843-0.385,15.691-0.899,23.511,0.329c2.067,0.085,4.144,0.089,6.204,0.342c0.572,0.128,1.079,0.389,1.518,0.78
		C1076.291,396.308,1076.334,396.828,1076,397.38z"/>
	<path fill-rule="evenodd" clip-rule="evenodd" fill="#939DCD" d="M1076,397.38c0-0.28,0.001-0.56,0.002-0.84
		c1.141-2.165,3.042-2.092,5.144-1.976c10.609,0.587,21.228,0.38,31.843,0.111c3.112-0.563,6.253-0.688,9.411-0.688
		c27.541,0.013,55.082,0.045,82.623-0.037c3.639-0.012,7.252,0.858,10.893,0.199c36.682-0.339,73.366-0.029,110.049-0.198
		c4.797-0.022,9.61,0.742,14.395-0.162c5.566,0.512,11.237-0.401,16.729,1.178c0.604,0.14,1.155,0.397,1.648,0.773
		c0.491,0.48,0.58,1.027,0.264,1.639C1264.667,397.38,1170.333,397.38,1076,397.38z"/>
	<path fill-rule="evenodd" clip-rule="evenodd" fill="#8A94CA" d="M601,397.38c-80,0-160,0-240,0
		c-0.08-0.322-0.16-0.644-0.241-0.965c0.283-0.613,0.703-1.112,1.256-1.499c2.183-1.04,4.541-0.871,6.845-0.878
		c23.064-0.068,46.129-0.026,69.193-0.048c2.66-0.003,5.27,0.68,7.933,0.414c8.404-0.859,16.831-0.281,25.247-0.384
		c10.231-0.125,20.464-0.038,30.694,0.208c28.192,0.275,56.386,0.193,84.579,0.05c4.123-0.021,8.271-0.256,12.348,0.676
		c0.651,0.092,1.242,0.338,1.772,0.724C601.179,396.149,601.304,396.718,601,397.38z"/>
	<path fill-rule="evenodd" clip-rule="evenodd" fill="#8992C8" d="M1,396.38c8-0.05,15.999-0.1,23.999-0.15
		c14.646,0.001,29.292,0.003,43.938,0.004c1.46-2.039,3.677-2.131,5.842-2.138c30.447-0.093,60.895-0.364,91.339,0.185
		c3.545,0.064,6.868-1.33,10.381-0.869c3.54,0.744,7.144,0.497,10.721,0.688c1.923,0.104,3.968-0.089,5.515,1.482
		c0.485,0.541,0.573,1.141,0.266,1.798c-62.671,0-125.342,0.009-188.013-0.061C3.694,397.318,1.896,398.441,1,396.38z"/>
	<path fill-rule="evenodd" clip-rule="evenodd" fill="#8A93C9" d="M193,397.38c0.001-0.282,0.002-0.565,0.002-0.848
		c1.397-2.784,4.094-2.205,6.442-2.451c4.511-0.473,9.09,1.041,13.569-0.465c3.305,0.494,6.637,0.371,9.962,0.373
		c42.088,0.014,84.176-0.023,126.264,0.044c4.07,0.006,8.339-0.472,11.824,2.503c-0.022,0.281-0.043,0.562-0.063,0.844
		C305,397.38,249,397.38,193,397.38z"/>
	<path fill-rule="evenodd" clip-rule="evenodd" fill="#9099CD" d="M784.954,396.548c0.017,0.277,0.031,0.555,0.046,0.832
		c-41.667,0-83.333,0-125,0c-0.303-0.671-0.203-1.275,0.296-1.814c1.915-1.788,4.356-1.488,6.631-1.496
		c36.423-0.115,72.847-0.085,109.271-0.043c2.521,0.003,4.963,0.422,7.351,1.208C784.158,395.521,784.627,395.958,784.954,396.548z"
		/>
	<path fill-rule="evenodd" clip-rule="evenodd" fill="#4454B2" d="M7,306.38c-1.109-2.028-1.819-4.556-4.998-4
		c-1.456-5.263,0.45-10.736-1.002-16c0-0.667,0-1.333,0-2c2.215-1.16,4.619-1,7-1.001c1.219,0.521,1.926,1.535,1.628,2.756
		c-1.431,5.866-0.967,11.846-1.226,17.781C8.356,304.955,7.968,305.844,7,306.38z"/>
	<path fill-rule="evenodd" clip-rule="evenodd" fill="#949DCE" d="M1359,397.38c0-0.281,0-0.562,0.002-0.843
		c1.135-2.462,3.469-2.379,5.569-2.4c22.89-0.232,45.78-0.221,68.67-0.021c2.199,0.02,4.326,0.341,5.727,2.359
		c0.02,0.302,0.03,0.604,0.032,0.905C1412.333,397.38,1385.667,397.38,1359,397.38z"/>
	<path fill-rule="evenodd" clip-rule="evenodd" fill="#8C95C9" d="M660.012,396.532c-0.005,0.282-0.009,0.565-0.012,0.848
		c-19.667,0-39.333,0-59,0c0-0.283,0.001-0.567,0.002-0.851c1.741-3.156,4.881-2.458,7.534-2.438
		c16.357,0.125,32.74-0.906,49.066,0.9C658.639,395.142,659.485,395.586,660.012,396.532z"/>
	<path fill-rule="evenodd" clip-rule="evenodd" fill="#4959B3" d="M1,286.38c2.082,5.224,0.504,10.677,1.002,16
		c-0.563,7.656,1.165,15.413-1.002,23C1,312.38,1,299.38,1,286.38z"/>
	<path fill-rule="evenodd" clip-rule="evenodd" fill="#4B5AB4" d="M83.028-0.451c22.671-0.001,45.342-0.002,68.013-0.003
		c6.963,0.749,13.948,0.271,20.921,0.307c16.307,0.086,32.615,0.009,48.922,0.053c1.87,0.005,4.144-0.755,5.138,1.83
		c0.477,2.979-1.167,4.293-3.829,4.705c-1.98,0.307-3.988,0.246-5.987,0.247c-17.827,0.011-35.653,0.018-53.48-0.01
		c-2.312-0.004-4.683,0.277-6.885-0.835c5.855,3.071,6.834,9.912,11.061,14.282c3.323,3.436,4.389,9.106,10.213,10.076
		c0.771,0.129,1.493,1.11,1.494,1.878c0.01,7.424,7.004,10.783,9.663,16.729c2.635,5.891,7.256,10.624,11.025,15.856
		c3.963,5.502,7.69,11.203,11.361,16.902c4.745,7.367,9.577,14.66,14.622,21.819c1.964,2.788,3.333,6.187,7.48,6.598
		c0.955,0.095,1.635,1.183,1.907,2.165c2.695,9.75,10.044,16.653,15.235,24.868c5.823,9.217,12.066,18.179,18.216,27.162
		c6.127,8.951,11.036,18.923,19.415,26.246c3.668,3.207,4.782,8.13,7.994,11.78c2.345,2.665,0.812,5.477-2.64,6.986
		c-1.219,0.533-2.417,1.134-3.781,1.243c-2.158,0.096-3.929-0.905-5.664-1.993c-1.062-0.734-2.191-1.323-3.533-1.4
		c-6.093-1.97-12.137-4.05-17.531-7.608c-0.72-0.469-1.528-0.688-2.39-0.779c-17.317-6.576-34.826-12.668-51.496-20.835
		c-1.517-0.674-3.101-1.111-4.697-1.556c-1.845-0.513-3.354-1.519-2.798-3.88c1.399-4.1-1.992-6.463-3.79-9.055
		c-6.025-8.692-12.782-16.876-18.837-25.548c-9.473-13.567-19.032-27.1-28.113-40.908c-9.729-14.791-20.776-28.607-30.451-43.427
		c-8.59-13.157-18.351-25.546-27.157-38.569c-3.017-4.46-6.686-8.728-7.998-14.24C84.54,0.171,83.588-0.094,83.028-0.451z"/>
	<path fill-rule="evenodd" clip-rule="evenodd" fill="#515FB2" d="M200.996,172.383c2.17,2.33,5.644,2.048,8.004,3.997
		c1.587,4.08,4.818,7.067,7.198,10.617c11.706,17.458,24.067,34.465,36.071,51.718c1.594,2.291,4.9,3.102,5.213,6.374
		c-0.143,0.545-0.433,0.984-0.871,1.335c-6.522,2.773-13.571,2.936-20.41,4.027c-21.109,3.37-42.266,6.439-63.384,9.758
		c-1.98,0.311-3.95,0.45-5.936,0.297c-8.897-0.788-11.283-8.836-15.782-14.41c-4.977-6.166-8.374-13.535-14.265-19.034
		c-1.145-1.069-1.751-2.41-2-3.924c-0.468-2.85-2.264-4.791-4.524-6.293c-1.567-1.041-2.903-2.176-3.69-3.919
		c-4.047-8.963-11.316-15.771-16.218-24.146c-7.842-13.402-17.229-25.738-26.499-38.12c-3.531-4.717-6.313-9.485-7.721-15.102
		c-0.207-0.824-0.564-1.022-1.18-1.248c-1.701-0.623-3.13-1.622-2.451-3.653c0.738-2.205,2.747-2.112,4.606-1.873
		c0.953,0.123,2.021-0.18,2.844,0.595c0.333,0,0.665,0.001,0.998,0.003c2.199,1.132,4.077,3.387,6.997,2.004
		c1.185,1.208,2.565,2.06,4.211,2.534c34.649,9.995,67.892,23.921,101.647,36.413C196.192,171.197,198.455,172.257,200.996,172.383z
		"/>
	<path fill-rule="evenodd" clip-rule="evenodd" fill="#515FB3" d="M80.003,129.378c-2.14,0.091-4.313,0.07-6.039,1.763
		c0.403,1.739,1.992,1.539,3.126,2.011c0.945,0.394,3.729-0.164,0.855,1.994c-0.756,0.567,0.301,1.414,0.567,2.148
		c2.365,6.532,7.485,11.182,11.284,16.729c5.85,8.541,11.316,17.376,18.578,24.848c2.06,2.119,1.302,5.011,2.981,7.551
		c5.132,7.76,12.358,14.053,15.947,22.913c0.924,2.283,2.451,4.399,4.975,5.919c2.523,1.52,5.193,3.768,4.836,7.564
		c-0.056,0.598,0.191,1.481,0.624,1.828c8.574,6.871,12.239,17.488,19.436,25.459c2.756,3.053,3.792,7.691,8.827,8.276
		c-0.599,2.622-2.779,3.054-4.907,3.446c-11.694,2.159-23.484,3.711-35.244,5.45c-2.103,0.312-4.301-0.03-5.849-1.896
		c-5.052-6.99-10.182-13.926-15.139-20.983c-8.172-11.636-16.224-23.355-24.342-35.029c-6.601-9.492-13.167-19.01-19.856-28.439
		c-5.565-7.847-11.789-15.273-16.798-23.452c-4.944-8.071-10.529-15.633-15.975-23.325c-5.633-7.956-11.18-15.974-16.714-23.999
		c-0.782-1.135-3.125-2.392-0.173-3.774c2.999,0.667,5.998,1.335,8.996,2.002c1.563,0.925,3.768,0.246,5.001,1.997
		c3.001,1,6.002,1.999,9.003,2.999c2.246-0.782,3.959-0.231,5.001,1.998c8.666,2.669,17.331,5.337,25.996,8.006
		C69.779,125.935,75.404,126.373,80.003,129.378z"/>
	<path fill-rule="evenodd" clip-rule="evenodd" fill="#515FB3" d="M87.997,131.385c-3.6,3.757-5.072,0.088-6.997-2.004
		C83.333,130.049,85.665,130.717,87.997,131.385z"/>
	<path fill-rule="evenodd" clip-rule="evenodd" fill="#4655B2" d="M120,265.382c15.433-1.677,30.77-3.991,46-7.001
		c14.921-2.147,29.834-4.353,44.765-6.428c15.419-2.143,30.677-5.411,46.234-6.577c3.425,2.547,4.82,6.643,7.088,9.979
		c7.079,10.412,14.467,20.62,21.433,31.121c8.781,13.235,18.638,25.806,27.971,38.694c4.628,6.392,8.568,13.393,13.382,19.697
		c10.167,13.317,17.814,28.376,28.849,41.125c2.332,2.694,5.742,5.693,5.142,10.235l0.199,0.308
		c-35.747-0.053-71.493-0.098-107.24-0.162c-13.633-0.024-27.266-0.094-40.898-0.142c-3.929-0.569-6.439-3.104-8.595-6.159
		c-9.264-13.127-18.276-26.437-27.613-39.502c-7.693-10.766-15.979-21.162-23.115-32.281c-6.717-10.467-14.128-20.414-21.171-30.629
		c-3.286-4.768-6.142-9.827-9.836-14.336c-1.635-1.995-3.521-4.058-3.601-6.948C119.33,266.046,119.665,265.714,120,265.382z"/>
	<path fill-rule="evenodd" clip-rule="evenodd" fill="#4454B2" d="M176.915,396.236c-35.993-0.001-71.985-0.001-107.978-0.002
		c-2.376-5.52-7.431-9.323-9.819-14.692c-2.077-4.669-6.889-7.438-8.545-11.445c-2.481-6.002-7.586-9.611-10.48-15.106
		c-3.598-6.83-8.675-12.875-13.041-19.309C20.667,326.271,14.348,316.816,8,307.38c-0.849-1.009-0.375-2.211-0.486-3.324
		c0.222-1.428,0.938-2.247,2.5-2.021c-1.426-0.124-2.332-0.814-2.5-2.309c-0.029-2.336-0.095-4.671,0.021-6.995
		c0.067-1.349-0.808-3.264,1.331-3.769c1.831-0.432,3.524,0.551,4.146,2.108c1.328,3.325,3.851,5.687,5.859,8.478
		c5.687,7.904,11.299,15.865,16.612,24.04c2.956,4.549,5.986,9.186,9.892,12.996c2.659,2.594,2.823,6.228,4.89,9.117
		c4.025,5.627,8.364,10.997,12.697,16.355c5.22,6.454,9.589,13.455,13.95,20.45c2.6,4.171,5.507,6.699,10.716,6.618
		c11.634-0.181,23.274-0.06,35.648-0.046c-5.58-8.553-10.255-16.961-16.17-24.636c-3.535-4.586-8.555-8.483-10.767-13.454
		c-4.955-11.135-14.228-18.914-20.308-29.052c-6.881-11.474-15.107-22.079-21.883-33.621c-1.452-2.473-3.934-4.037-5.272-6.583
		c-2.105-4.009-1.874-4.479,2.77-4.855c0.508-0.041,0.971-0.142,1.353-0.497c9.261-1.836,18.529-3.618,27.997-4.007
		c4.157-1.466,7.106-0.032,9.106,3.757c1.793,3.399,3.825,6.599,7.018,8.923c1.098,0.8,1.769,2.042,1.895,3.415
		c0.211,2.304,1.432,4.054,2.921,5.649c9.544,10.23,15.377,23.117,24.049,33.891c8.555,10.627,14.304,23.13,23.414,33.312
		c2.701,3.02,6.267,5.551,6.54,10.195c0.035,0.596,0.735,1.09,1.215,1.549c5.55,5.305,9.006,12.227,13.914,18.031
		c0.916,1.083,1.923,1.751,3.226,2.178C175.707,393.737,177.271,394.165,176.915,396.236z"/>
	<path fill-rule="evenodd" clip-rule="evenodd" fill="#4454B1" d="M52.999,276.381c-1.168,0.507-2.337,1.013-2.973,1.288
		c23.889,38.934,52.625,74.516,77.527,112.837c-0.905,1.509-2.384,0.832-3.556,0.838c-12.488,0.058-24.986-0.236-37.461,0.162
		c-5.358,0.172-8.627-2.49-11.049-6.278c-5.405-8.456-10.784-16.787-17.272-24.585c-4.071-4.893-9.095-9.626-11.687-15.573
		c-5.474-12.562-15.619-21.914-22.277-33.684c-2.647-4.679-5.67-9.719-10.238-13.215c-1.916-1.467-1.765-3.864-2.651-5.794
		c-0.426-0.927-1.021-1.939-2.125-1.84c-1.326,0.12-1.193,1.391-1.209,2.35c-0.043,2.497-0.022,4.995-0.027,7.493
		c0.743,1,0.743,2,0,3c0,1.333,0,2.667,0,4c-0.333-0.333-0.667-0.667-1-1c-0.011-5.822,0.308-11.675-0.201-17.453
		C6.603,286.7,8.574,285.395,8,283.379C22.907,280.45,37.914,278.166,52.999,276.381z"/>
	<path fill-rule="evenodd" clip-rule="evenodd" fill="#4554B2" d="M176.915,396.236c-8.127-0.203-10.495-7.021-14.096-12.364
		c-1.293-1.92-2.549-3.749-4.246-5.419c-2.587-2.546-5.89-4.69-5.763-9.283c0.091-3.295-3.907-3.974-5.583-6.483
		c-5.109-7.648-11.037-14.667-15.368-22.943c-3.106-5.934-8.13-10.836-12.016-16.396c-4.593-6.571-8.874-13.36-13.308-20.043
		c-1.092-1.646-2.191-3.227-3.688-4.634c-2.793-2.626-6.414-4.895-5.998-9.644c0.06-0.676-0.496-1.816-1.067-2.074
		c-4.905-2.211-7.141-7.288-9.09-11.23c-1.708-3.456-3.5-2.821-5.697-3.349c9.374-2.712,19.144-3.14,28.679-4.928
		c3.065-0.575,6.21-0.725,9.319-1.069c4.326,1.553,5.939,5.837,8.125,9.093c8.149,12.142,17.327,23.594,25.168,35.871
		c9.653,15.113,20.721,29.155,30.775,43.931c8.411,12.361,16.923,24.629,25.792,36.661c1.216,1.65,2.559,3.014,4.069,4.3
		c-6.641,0.1-13.282,0.199-19.922,0.299C187.64,396.434,182.277,396.335,176.915,396.236z"/>
	<path fill-rule="evenodd" clip-rule="evenodd" fill="#5362AC" d="M1353.033-0.452c6.322,0.001,12.645,0.001,18.967,0.001
		c1.052,4.493,4.395,7.77,6.732,11.448c5.131,8.07,10.262,16.182,16.132,23.812c6.438,8.366,12.084,17.34,18.097,26.035
		c1.3,1.879,2.69,3.696,4.039,5.542c0.343,0.522,0.354,1.052,0.04,1.591c-2.676,2.428-5.945,2.646-9.309,2.491
		c-0.979-0.079-1.956-0.243-2.759-0.866c-1.316-1.02-4.278-0.362-3.976-2.818c0.308-2.497,2.875-1.271,4.473-1.619
		c-0.316-0.119-0.637-0.09-0.968-0.02c-0.458,0.01-0.887-0.075-1.304-0.254c-4.966-4.502-10.801-8.156-13.418-14.862
		c-1.143-2.927-4.221-5.053-5.338-7.639c-2.059-4.768-6.046-7.785-8.544-11.812c-5.414-8.728-10.521-17.536-18.157-24.578
		c-0.746-0.688-1.295-1.626-0.727-2.671c0.526-0.967,1.511-1.373,2.556-1.141c1.453,0.323,2.83,1.049,3.836,0.724
		c-2.484-0.102-5.382-1.317-8.51-0.967C1353.86,2.062,1352.728,1.077,1353.033-0.452z"/>
	<path fill-rule="evenodd" clip-rule="evenodd" fill="#4C5DB1" d="M1417,67.38c0-0.332,0-0.663,0-0.994
		c5.875,0.417,11.523-1.181,17.243-2.045c3.931-0.594,5.328,0.567,5.173,4.67c-0.355,9.448-0.303,18.911-0.416,28.367v0.004
		c-0.393,0.33-0.843,0.458-1.352,0.391c-3.836-2.33-5.259-6.588-7.821-9.929c-4.293-5.598-8.391-11.351-12.116-17.356
		C1417.095,69.495,1416.298,68.635,1417,67.38z"/>
	<path fill-rule="evenodd" clip-rule="evenodd" fill="#4A59B4" d="M39.004,115.375c-1.667-0.666-3.334-1.332-5.001-1.998
		c2.571-1.809,4.96-0.476,7.623,0.37C40.614,114.375,39.809,114.875,39.004,115.375z"/>
	<path fill-rule="evenodd" clip-rule="evenodd" fill="#4A59B4" d="M25,110.378c-1.774-0.397-3.543-0.807-5.001-1.997
		C21.876,108.52,24.065,107.877,25,110.378z"/>
	<path fill-rule="evenodd" clip-rule="evenodd" fill="#4E5DB1" d="M507.022-0.451c33.329-0.057,66.658-0.14,99.987-0.157
		c16.663-0.01,33.325,0.101,49.988,0.156c2.543,1.688,4.223,4.131,5.992,6.554c10.069,13.793,18.614,28.693,29.178,42.06
		c7.508,9.5,14.4,19.482,21.192,29.362c7.588,11.039,16.028,21.534,22.902,33.093c5.331,8.966,11.562,17.347,17.979,25.57
		c4.898,6.275,8.396,13.564,13.815,19.424c2.869,3.103,4.046,6.663,4.633,10.635c-0.196,0.541-0.512,0.988-0.937,1.37
		c-4.608,2.238-9.698,2.231-14.594,3.007c-35.993,5.7-72.078,10.813-108.04,16.723c-1.979,0.325-3.98,0.342-5.963,0.522
		c-6.054-0.842-10.721-2.595-13.985-9.059c-5.137-10.17-13.528-18.469-19.499-28.158c-7.951-12.905-17.247-24.809-25.943-37.131
		c-7.932-11.24-15.036-23.059-23.675-33.84c-4.723-5.894-8.476-12.606-12.874-18.801C540.85,51.965,534,43.376,528.323,34.054
		c-5.153-8.463-12.248-15.505-16.889-24.273c-0.634-1.197-1.816-1.941-2.572-3.043c-0.447-0.844-0.656-1.791-1.115-2.633
		C507.43,2.6,505.87,1.289,507.022-0.451z"/>
	<path fill-rule="evenodd" clip-rule="evenodd" fill="#4D5CB2" d="M362.978-0.454c30.232-0.055,60.465-0.132,90.697-0.153
		c12.789-0.01,25.578,0.099,38.367,0.153c6.209,0.804,6.36,0.966,4.702,5.204c1.647-0.928,3.227-1.791,5.133-1.405
		c2.163,0.438,4.038,1.234,3.135,3.938c-1.021,3.055,0.532,5.409,2.327,7.203c5.384,5.379,9.058,12.155,13.444,18.144
		c5.134,7.01,11.548,13.304,15.201,21.706c2.831,6.51,8.161,11.974,12.688,17.66c1.353,1.699,2.635,3.308,3.591,5.287
		c3.466,7.176,8.009,13.653,13.335,19.572c1.255,1.394,1.876,3.103,2.779,4.673c1.709,2.97,3.278,6.01,6.287,8.15
		c4.387,3.122,5.602,8.688,9.166,12.67c7.372,8.234,11.491,18.89,18.866,27.173c6.218,6.981,9.147,16.026,15.183,23.097
		c2.999,3.513,5.977,7.04,8.414,11.05c2.543,4.186,2.8,4.202-1.812,6.952c-13.989,3.004-28.188,4.684-42.306,6.813
		c-21.356,3.223-42.671,6.725-64.062,9.72c-1.657,0.232-3.291,0.452-4.948,0.203c-6.967-0.325-9.42-6.284-12.817-10.732
		c-7.528-9.857-14.012-20.461-21.398-30.453c-6.787-9.183-12.261-19.359-19.424-28.288c-6.798-8.473-11.604-18.261-18.977-26.447
		c-4.623-5.131-7.73-11.895-12.033-17.566c-9.134-12.041-16.465-25.334-25.744-37.241c-5.289-6.787-8.737-14.879-14.566-21.101
		c-6.529-6.968-10.297-15.755-16.496-22.865c-1.429-1.64-2.479-3.572-4.868-3.97c-10.632-2.899-21.501-1.464-32.269-1.841
		c-2.035-0.071-5.33,0.788-5.468-1.896c-0.153-2.97,3.22-2.767,5.467-2.827c7.814-0.211,15.647-0.398,23.439,0.094
		C360.681,2.39,362.131,1.967,362.978-0.454z"/>
	<path fill-rule="evenodd" clip-rule="evenodd" fill="#4C5BB3" d="M362.978-0.454c-0.103,3.101,4.505,1.195,4.275,4.682
		c-11.919,0-24.055,0-36.19,0c-0.003,0.384-0.007,0.768-0.011,1.152c8.575,0,17.152-0.13,25.722,0.057
		C360.85,5.525,365.059,4.412,369,6.38c-1.289,2.771-3.899,2.185-6.113,2.235c-7.493,0.169-14.99-0.027-22.483,0.104
		c-3.722,0.065-4.553,1.304-2.161,4.081c7.676,8.911,12.085,19.939,19.773,28.979c4.973,5.847,9.015,12.926,13.743,19.129
		c4.733,6.21,8.607,12.899,13.023,19.261c6.377,9.187,14.37,17.228,19,27.689c1.917,4.33,5.479,7.87,8.471,11.593
		c1.657,2.062,3.231,4.151,4.763,6.31c9.409,13.261,18.725,26.584,27.927,39.992c5.312,7.738,11.201,14.996,15.736,23.345
		c3.266,6.01,7.966,11.354,12.745,16.417c2.264,2.397,3.09,4.735,0.323,7.306c-0.491,0.693-1.145,1.156-1.934,1.447
		c-13.319,2.236-26.711,4.011-40.012,6.356c-1.479,0.262-2.943,0.284-4.42,0.273c-2.381,0.845-4.937,0.319-7.346,0.954
		c-1.903,0.367-3.527,1.737-5.58,1.571c-8.28,0.812-16.46,2.349-24.701,3.443c-2.346,0.312-4.612,0.442-6.909-0.042
		c-4.518-1.623-6.96-5.541-9.554-9.108c-10.512-14.456-19.651-29.901-31.259-43.566c-2.325-2.737-3.162-6.181-5.085-9.11
		c-6.566-10.001-13.88-19.448-21.003-29.042c-6.825-9.192-12.856-18.962-19.56-28.213c-7.984-11.019-15.213-22.529-23.004-33.667
		c-6.656-9.515-13.776-18.691-20.335-28.294c-8.298-12.148-16.465-24.45-25.454-36.134c-1.504-1.955-2.175-4.024-2.593-6.311
		c-0.431-3.848-3.431-2.963-5.75-2.969c-20.622-0.053-41.245-0.022-61.867-0.044c-2.138-0.003-4.347,0.361-6.342-0.821
		c13.828-0.056,27.657-0.154,41.485-0.16c42.662-0.021,85.324-0.004,127.985-0.012c1.83,0,3.66-0.104,5.489-0.16
		C338.326-0.675,350.652-0.564,362.978-0.454z"/>
	<path fill-rule="evenodd" clip-rule="evenodd" fill="#505FAF" d="M838.001-0.453c33.346,0,66.691,0,100.037,0
		c4.648,0.921,7.451,3.865,9.38,8.066c2.434,5.302,6.887,9.262,9.835,14.267c6.831,11.595,15.428,21.972,23.312,32.825
		c7.293,10.038,13.771,20.612,21.15,30.603c6.265,8.479,12.35,17.183,17.949,26.169c1.844,2.959,3.736,5.87,6.091,8.494
		c1.785,1.99,3.236,4.328,1.714,7.24c-0.73,0.854-1.438,1.736-2.568,2.098c-21.844,3.982-43.818,7.218-65.819,10.057
		c-7.6,0.979-15.205,3.322-23.039,2.336c-2.234-1.593-4.601-2.46-7.322-1.193c-0.75-0.015-1.391-0.276-1.919-0.809
		c-0.758-1.534-0.236-2.693,1.045-3.618c1.836-0.448-0.186-1.182,0.08-1.758c-0.301-1.653-0.525-3.338-1.555-4.708
		c-3.341-4.447-6.283-9.246-9.442-13.683c-3.542-4.975-7.686-9.771-11.345-14.82c-3.954-5.456-8.791-10.274-11.291-16.772
		c-1.741-4.525-5.276-8.046-8.247-11.741c-7.687-9.563-12.496-21.19-21.562-29.723c-1.152-1.083-1.506-2.553-1.771-4.043
		c-0.335-1.88-1.146-3.716-2.694-4.646c-6.156-3.697-8.125-10.712-12.615-15.764c-2.927-3.292-5.508-6.96-8.796-9.999
		c-2.598-2.4-2.322-3.284,1.007-4.75c1.933-0.851,3.879-0.792,5.865-0.792c28.052-0.004,56.104-0.003,84.155-0.003
		c-27.795,0-55.591-0.005-83.387,0.011c-1.984,0.001-3.959,0.084-5.954,0.315C837.588,3.52,836.604,2.125,838.001-0.453z"/>
	<path fill-rule="evenodd" clip-rule="evenodd" fill="#5261AE" d="M1081.001-0.454c33.681,0,67.36-0.001,101.041-0.002
		c14.755,0.767,29.521,0.081,44.278,0.397c1.562,0.033,3.669-1.153,4.717,1.208c-0.585,1.443-1.727,1.884-3.204,1.744
		c-12.798-1.205-25.627-0.08-36.05-0.514c8.622,0.001,19.63-0.001,30.637,0.001c0.667,0,1.336-0.033,1.999,0.023
		c1.881,0.16,4.101,0.386,3.657,2.917c-0.385,2.201-2.405,2.328-4.413,2.055c-10.589-1.441-21.189-0.286-31.646-0.662
		c-0.808,2.325,0.555,3.608,1.342,4.502c5.347,6.071,8.472,13.666,14.249,19.538c4.413,4.485,7.849,10.108,11.1,15.551
		c6.895,11.539,15.48,21.88,22.655,33.192c2.314,3.649,4.494,7.211,8.491,9.4c1.665,0.912,2.42,2.599-0.701,3.136
		c-1.126,0.193,0.691,0.302,0.217,0.745c0.006,0.549-0.175,0.999-0.547,1.393c-6.802,2.976-14.162,3.261-21.322,4.366
		c-20.803,3.21-41.644,6.177-62.413,9.606c-2.33,0.385-4.604,0.533-6.89-0.072c-4.426,0.512-6.923-1.984-9.132-5.439
		c-8.388-13.115-17.741-25.575-26.438-38.47c-5.562-8.246-11.1-16.512-17.067-24.447c-5.971-7.938-11.364-16.277-17.219-24.293
		c-2.834-3.88-6.473-7.606-7.63-12.667C1080.44,1.572,1079.991,0.541,1081.001-0.454z"/>
	<path fill-rule="evenodd" clip-rule="evenodd" fill="#5362AD" d="M1230,1.38c-1.157-1.871-3.004-0.94-4.496-0.951
		c-12.554-0.086-25.107-0.04-37.661-0.058c-1.964-0.003-3.986,0.276-5.801-0.827c27.086-0.055,54.172-0.154,81.258-0.151
		c29.911,0.003,59.822,0.1,89.733,0.155c4.626,1.082,9.251,2.163,13.876,3.245c0.037,0.138,0.073,0.275,0.11,0.413
		c-2.75,0-5.5,0-9.036,0c4.372,3.486,7.217,6.945,9.959,10.705c3.678,5.041,7.167,10.059,9.998,15.648
		c0.948,1.873,2.973,5.631,7.272,1.615c-1.479,5.485-0.72,9.351,3.555,12.478c1.959,1.433,3.178,4.314,3.958,6.783
		c0.647,2.052,1.518,3.255,3.265,4.55c3.321,2.461,5.938,5.749,8.01,9.393c-0.453,0.48-1.046,0.495-1.643,0.502
		c0.597-0.007,1.19-0.021,1.643-0.502c2.211-0.167,4.422-0.336,6.632-0.505c0.055,0.253,0.108,0.506,0.163,0.759
		c-2.701,0.631-5.401,1.262-8.614,2.013c1.956,0.704,3.388,1.219,4.819,1.734c-0.639,2.63-2.788,3.024-4.976,3.358
		c-17.407,2.656-34.821,5.274-52.207,8.055c-10.476,1.676-21.131,2.146-31.464,4.728c-9.588,0.719-18.871,4.159-28.64,3.229
		c-4.185-1.65-5.891-5.758-8.218-8.995c-11.089-15.427-21.885-31.062-32.979-46.489c-6.077-8.449-11.236-17.542-17.514-25.876
		C1229.949,4.987,1228.771,3.356,1230,1.38z"/>
	<path fill-rule="evenodd" clip-rule="evenodd" fill="#5160AF" d="M1027,126.379c-5.45-7.881-11.158-15.599-16.293-23.68
		c-8.318-13.091-17.956-25.256-26.134-38.482c-4.819-7.794-10.413-15.354-16.363-22.483c-5.836-6.992-10.008-15.166-15.627-22.233
		c-5.144-6.467-7.943-14.603-14.545-19.953c26.306,0,52.612,0,78.918,0c1.418,2.149,3.622,1.289,5.494,1.296
		c17.47,0.062,34.938,0.036,52.408,0.038c1.165,0,2.331-0.037,3.493,0.03c1.24,0.071,2.498,0.517,2.676,1.796
		c0.224,1.606-1.137,2.288-2.464,2.616c-1.619,0.401-3.303,0.366-4.967,0.37c-16.139,0.035-32.277-0.025-48.415,0.046
		c-3.396,0.016-6.556-0.785-8.822-1.772c3.584,0.592,6.738,3.299,8.655,7.083c2.946,5.818,7.581,10.461,10.674,16.144
		c0.241,0.443,0.574,0.995,1.002,1.072c5.625,1.012,6.923,4.821,6.583,9.84c-0.065,0.965,0.473,2.02,1.207,2.683
		c4.218,3.812,6.963,8.805,10.219,13.311c5.758,7.971,11.629,15.877,17.107,24.074c5.681,8.499,11.36,17.044,17.541,25.209
		c1.617,2.137,2.6,4.6,4.141,6.761c0.614,0.862,1.084,2.1,0.344,3.278c1.702,0.2-3.844,0.773,0.052,0.922
		c1.734,0.066,2.97,0.745,2.047,2.857c-1.431,1.608-3.391,2.047-5.365,2.342c-18.57,2.773-37.106,5.771-55.69,8.452
		C1032.03,128.404,1029.264,128.682,1027,126.379z"/>
	<path fill-rule="evenodd" clip-rule="evenodd" fill="#5160AE" d="M1096,116.373c-2.881-2.069-6.594-1.409-10.062-2.657
		c2.322-2.194,4.481,0.476,6.518-0.694c-7.096-10.691-14.337-21.286-21.725-31.795c-4.158-5.914-8.94-11.473-12.693-17.445
		c-4.743-7.549-10.32-14.292-15.695-21.259c-2.435-3.155-2.024-6.484-1.254-10.417c-4.726,2.228-6.177-1.154-8.067-4.058
		c-4.12-6.328-8.349-12.588-12.582-18.842c-2.253-3.326-5.18-5.547-9.479-5.68c22.649,0,45.3,0,67.95,0
		c0.004-0.412,0.009-0.824,0.014-1.236c-21.841,0-43.681,0-65.888,0c0.916-2.628,3.016-1.602,3.921-2.743
		c21.349,0,42.696,0,64.045-0.001c4.997,8.536,11.031,16.365,16.567,24.529c5.954,8.781,12.425,17.172,18.436,25.9
		c8.985,13.046,18.115,25.993,27.135,39.017c3.455,4.989,7.027,9.931,10.021,15.192c1.08,1.897,2.156,2.171,3.841,2.196
		c0.307,0.898-0.133,1.498-0.8,2.009c-2.024,0.567-4.062,1.096-5.911,2.159c-0.506,0.238-1.037,0.367-1.585,0.443
		c-4.133-0.567-8.007,0.841-11.968,1.613c-10.429,1.195-20.748,3.106-31.129,4.596C1102.39,117.663,1099.032,118.582,1096,116.373z"
		/>
	<path fill-rule="evenodd" clip-rule="evenodd" fill="#505FB0" d="M929,136.38c-0.667,1-1.333,2-2,3
		c0.744,1.356,0.464,2.58-0.476,3.724c-0.99,0.965-2.257,1.257-3.557,1.468c-1.615,0.111-3.214,0.366-4.783,0.808
		c-0.692,0.133-1.382,0.282-2.089,0.292c-1.857-0.147-3.606,0.388-5.368,0.878c-2.505,0.781-5.044,1.277-7.684,1.038
		c-0.779-0.158-1.423-0.618-2.124-0.949c-1.596-1.105-2.156-2.915-2.804-4.562c-1.176-2.998-3.678-4.061-6.402-4.934
		c-6.276-5.593-10.384-12.914-15.1-19.682c-8.429-12.095-16.945-24.129-25.332-36.253c-6.593-9.531-12.982-19.205-19.81-28.571
		c-11.222-15.396-21.861-31.197-32.82-46.775c-0.477-0.678-0.854-1.428-1.195-2.191c-0.173-0.721-0.399-1.432-0.452-2.178
		c0.059-0.788,0.451-1.404,0.994-1.944c13.334,0,26.668,0,40.002,0c0.576,3.839,3.623,2.789,5.898,2.794
		c28.651,0.06,57.302,0.028,85.953,0.065c1.745,0.002,3.577-0.475,6.301,0.974c-2.844,0-4.634,0-6.424,0
		c-27.485,0-54.97,0.022-82.455-0.031c-3.079-0.006-5.968,0.263-8.698,2.683c4.556-0.096,5.699,3.974,7.633,6.549
		c3.834,5.106,8.38,9.812,10.909,15.825c0.522,1.24,1.516,1.593,2.521,2.188c2.927,1.729,5.504,3.767,5.427,7.694
		c-0.016,0.786,0.149,1.911,0.671,2.32c5.619,4.413,8.948,10.56,12.562,16.467c6.26,10.235,14.528,19.059,20.198,29.768
		c3.361,6.349,8.35,11.827,12.487,17.779c2.025,2.912,3.668,6.091,7.078,7.748c0.707,0.344,1.653,1.1,1.713,1.738
		c0.688,7.396,7.421,10.879,10.7,16.598c1.522,2.654,0.307,3.529-1.475,4.675c0.285,0.223,0.38,0.444,0.285,0.667
		C929.19,136.269,929.096,136.38,929,136.38z"/>
	<path fill-rule="evenodd" clip-rule="evenodd" fill="#4D5CB1" d="M625,188.375c0.147-0.807,2.567-0.923,1.072-1.972
		c-4.799-3.364-6.829-8.864-10.527-13.084c-4.521-5.159-7.098-11.813-10.884-17.423c-4.083-6.05-9.01-11.698-13.141-17.819
		c-3.097-4.589-5.031-10.16-9.348-13.683c-5.028-4.104-4.917-12.124-11.916-14.646c-1.262-0.454-1.831-2.951-2.63-4.55
		c-3.324-6.658-8.208-12.208-12.89-17.871c-1.562-1.89-1.862-4.186-3.042-6.191c-5.091-8.655-12.277-15.83-17.309-24.408
		c-2.416-4.12-4.369-8.59-7.894-11.739c-5.013-4.479-5.203-12.761-12.507-15.362c-0.73-0.261-0.911-2.017-1.384-3.062
		c-2.725-6.034-7.378-10.787-11.114-16.124c-2.385-3.406-1.732-3.99,1.634-4.88c-3.374,0-6.748,0-11.028,0
		c1.703-1.697,4.655-0.566,4.255-3.214c-0.374-2.474-3.052-1.579-4.307-2.8c1.667,0,3.333,0.001,5,0.001
		c2.643,0.537,5.285,0.536,7.928,0.001c0.685,0.001,1.368,0.001,2.053,0.001c0.659,1.277,1.318,2.554,1.978,3.831
		c-1.361,1.514,1.024,1.154,1,2c4.889,2.82,6.462,8.277,9.635,12.435c6.8,8.91,12.926,18.333,19.347,27.533
		c12.941,18.542,25.806,37.145,38.737,55.682c9.735,13.958,20,27.666,29.765,41.611c8.324,11.888,17.738,23.17,24.526,36.012
		c2.529,4.785,4.972,6.958,9.993,6.729c-0.948,3.648-4.484,2.964-6.916,4.137C631.734,189.064,627.974,192.163,625,188.375z"/>
	<path fill-rule="evenodd" clip-rule="evenodd" fill="#4F5EB1" d="M798,1.38c0.333,0.333,0.667,0.667,1,1
		c-1.611,3.098-4.609,2.234-7.104,2.257c-15.312,0.143-30.626,0.065-45.939,0.067c-23.446,0.003-46.894,0.011-70.917-0.008
		c11.915,13.104,19.622,28.609,30.141,42.248c7.653,9.924,15.477,19.984,22.057,30.872c5.192,8.591,11.396,16.631,17.314,24.801
		c3.672,5.07,5.832,11.094,10.295,15.722c5.732,5.942,9.516,13.389,14.584,19.9c4.534,5.828,9.605,11.381,13.321,17.848
		c0.853,1.484,2.999,3.19,0.21,5.104c-0.215,0.146,2.33,0.86,2.457,2.45c0.021,0.612-0.167,1.141-0.558,1.609
		c-4.269,1.816-8.535,3.733-12.853,0.132c-3.801-2.354-4.827-6.804-7.151-10.174c-12.013-17.419-25.676-33.693-36.22-52.146
		c-2.447-4.283-6.461-7.658-9.014-11.898c-6.494-10.787-14.293-20.676-21.358-31.052c-6.579-9.663-14.369-18.567-20.552-28.562
		c-5.601-9.055-12.337-17.282-18.263-26.089c-1.175-1.745-2.481-3.597-2.452-5.914c2.668,0,5.336-0.001,8.004-0.001
		c2.151,1.322,4.545,0.809,6.836,0.811c39.797,0.031,79.594,0.012,119.392,0.049C793.506,0.408,795.925-0.185,798,1.38z"/>
	<path fill-rule="evenodd" clip-rule="evenodd" fill="#4F5EB0" d="M798,1.38c-42.245,0-84.489,0.013-126.734-0.037
		c-2.183-0.003-4.789,0.913-6.264-1.796c29.556-0.056,59.112-0.139,88.668-0.157c14.776-0.009,29.553,0.102,44.329,0.157
		C798,0.158,798,0.769,798,1.38z"/>
	<path fill-rule="evenodd" clip-rule="evenodd" fill="#4D5CB2" d="M504.97-0.452c-2.643,1.204-5.285,1.21-7.928-0.001
		C499.685-0.452,502.327-0.452,504.97-0.452z"/>
	<path fill-rule="evenodd" clip-rule="evenodd" fill="#4A5BB2" d="M1156,107.38c0.334-0.333,0.668-0.666,1.001-0.999
		c10.791-0.543,21.317-2.972,31.963-4.534c18.039-2.648,36.035-5.58,54.061-8.32c1.953-0.297,3.979-0.113,5.971-0.153
		c3.35,1.981,6.342,4.264,7.113,8.424c0.154,0.83,0.361,1.763,1.033,2.226c7.592,5.234,9.753,14.707,16.267,20.77
		c0.74,0.689,1.35,1.494,1.698,2.443c3.737,10.182,12.458,16.774,18.421,25.361c1.769,2.548,2.206,5.481,3.91,7.965
		c3.933,5.728,7.883,11.428,12.473,16.657c0.892,1.016,1.62,2.165,1.914,3.473c0.771,3.44,2.914,5.884,5.62,7.901
		c1.622,1.209,3.666,2.53,4.136,4.22c2.227,8.004,9.105,12.846,12.928,19.798c3.801,6.913,9.021,13.08,14.1,19.138
		c2.369,2.827,3.186,6.097,4.983,9.016c4.615,7.49,10.91,13.736,15.459,21.226c2.416,3.977,6.173,7.152,8.124,11.024
		c2.809,5.57,7.085,9.841,10.301,14.947c5.566,8.837,11.717,17.238,18.457,25.195c1.922,2.27,2.093,5.155,3.605,7.587
		c4.648,7.474,10.933,13.73,15.498,21.218c2.418,3.967,4.884,7.814,8.413,10.881c1.835,1.594,1.233,4.068,2.189,5.984
		c0.293,0.586,0.354,1.107,0.164,0.468c-0.19-0.639,0.186,0.61,0.062,0.208c-1.241-3.087-1.119-6.12-1.132-9.088
		c-0.068-15.492-0.082-30.984,0.01-46.476c0.014-2.271-0.433-4.728,1.435-6.643c0.42-0.332,0.896-0.51,1.428-0.543
		c0.536,0.054,1.001,0.264,1.396,0.628c-0.952,1.667-0.949,3.333,0,5c-0.519,0.721-0.498,1.552-0.498,2.382
		c-0.004,19.745-0.004,39.489,0,59.234c0,0.83-0.021,1.661,0.498,2.382c-0.011,10.032-0.021,20.063-0.032,30.096
		c-26.655,0.021-53.311,0.041-79.966,0.062c-0.338-0.105-0.676-0.213-1.014-0.319c-7.598-3.654-10.476-11.345-14.695-17.732
		c-5.029-7.611-10.454-14.911-15.911-22.191c-2.19-2.921-4.101-5.984-6.04-9.053c-1.523-3.84-3.935-7.068-6.413-10.364
		c-3.098-4.12-6.215-8.237-9.288-12.382c-0.892-1.086-1.945-2.071-2.242-3.532c-1.481-3.896-4.395-6.74-7.124-9.72
		c-1.431-1.562-2.588-3.324-3.759-5.077c-2.54-3.456-5.462-6.668-6.939-10.806c-0.85-2.879-2.851-4.92-5.012-6.843
		c-1.284-1.336-2.318-2.842-3.055-4.547c-1.186-3.328-3.668-5.636-6.234-7.873c-2.331-2.681-4.027-5.787-5.879-8.793
		c-1.541-3.756-3.393-7.309-6.521-10.034c-1.01-0.962-2.141-1.838-2.369-3.351c-0.975-4.115-5.418-5.72-6.883-9.48
		c-0.906-1.066-1.962-2.042-2.223-3.515c-1.584-4.021-4.643-6.951-7.454-10.06c-1.312-1.449-2.324-3.109-3.433-4.703
		c-2.539-3.454-5.46-6.666-6.938-10.802c-0.85-2.879-2.851-4.92-5.012-6.843c-1.285-1.336-2.316-2.845-3.063-4.544
		c-1.392-3.161-3.852-5.481-6.222-7.869c-2.329-2.688-4.032-5.795-5.885-8.807c-0.235-2.726-2.613-4.216-3.733-6.43
		c-1.856-3.427-4.867-5.992-6.933-9.264c-1.459-2.598-4.455-4.053-5.302-7.104c-0.826-1.096-1.825-2.067-2.436-3.321
		c-2.448-5.761-7.801-9.451-10.664-14.913c-3.143-3.061-5.777-6.446-6.95-10.775c-1.256-3.744-3.599-6.689-6.676-9.099
		c-0.32-0.349-0.563-0.746-0.762-1.173c-1.371-4.18-3.99-7.46-7.375-10.186c-2.39-1.456-2.653-3.963-3.143-6.358
		C1155.477,108.182,1155.669,107.75,1156,107.38z"/>
	<path fill-rule="evenodd" clip-rule="evenodd" fill="#4B5CB1" d="M1439,297.381c-0.333,0-0.667-0.001-1-0.001
		c-1.657-1.559-1.521-3.619-1.48-5.603c0.568-27.956-1.199-55.882-0.969-83.84c0.278-33.788,0.009-67.58,0.139-101.37
		c0.013-3.145-1.068-6.793,2.311-9.188c0.333,0.001,0.667,0.001,1,0.002C1439,164.048,1439,230.715,1439,297.381z"/>
	<path fill-rule="evenodd" clip-rule="evenodd" fill="#4A5BB1" d="M1439,366.379c-1.076-1.441-0.996-3.126-0.997-4.79
		c-0.002-18.14-0.002-36.278,0-54.418c0.001-1.664-0.079-3.349,0.997-4.79C1439,323.714,1439,345.046,1439,366.379z"/>
	<path fill-rule="evenodd" clip-rule="evenodd" fill="#4455B3" d="M634.995,187.378c2.032-1.73,4.976-0.265,7.008-1.996
		c10.66-0.398,21.033-2.882,31.529-4.442c31.512-4.686,62.986-9.62,94.48-14.428c1.305-0.199,2.655-0.097,3.985-0.134
		c2.65-0.106,4.018,1.64,5.496,3.508c10.928,13.806,19.928,28.968,30.463,43.062c6.029,8.067,12.413,16.045,17.549,24.599
		c7.966,13.268,17.98,25.006,26.224,38.037c6.003,9.49,12.815,18.518,19.478,27.609c6.134,8.37,11.674,17.228,17.77,25.631
		c10.133,13.97,19.639,28.366,29.592,42.454c4.292,6.075,9.089,11.805,12.894,18.222c1.259,2.123,2.952,4.277,0.533,6.722
		c-40.209,0.054-80.418,0.099-120.628,0.166c-8.804,0.015-17.608,0.105-26.413,0.161l0.056-0.333
		c-4.46-1.292-7.138-4.352-9.282-8.393c-4.527-8.533-11.033-15.75-16.42-23.718c-6.496-9.609-13.947-18.53-19.946-28.512
		c-4.95-8.236-11.42-15.473-16.674-23.512c-5.176-7.917-10.391-15.787-16.029-23.383c-7.01-9.444-14.169-18.821-20.531-28.688
		c-6.394-9.915-13.828-19.068-20.216-28.918c-5.335-8.228-10.847-16.294-16.672-24.16
		C644.439,200.451,640.153,193.597,634.995,187.378z"/>
	<path fill-rule="evenodd" clip-rule="evenodd" fill="#4656B2" d="M784.998,164.378c0.002-0.332,0.004-0.664,0.007-0.996
		c1.671-2.939,4.793-2.753,7.44-3.143c23.43-3.454,46.83-7.095,70.223-10.781c2.473-0.39,4.955-0.341,7.431-0.43
		c5.876,2.575,10.891,6.07,13.383,12.358c2.497,6.3,7.874,10.571,11.649,15.992c3.958,5.684,7.776,11.48,11.599,17.241
		c7.201,10.854,15.003,21.274,22.347,32.005c4.596,6.716,10.578,12.521,13.375,20.646c1.193,3.464,5.294,5.893,7.846,9.107
		c7.334,9.239,12.495,19.875,19.679,29.162c0.239,0.423,0.424,0.87,0.549,1.34c4.445,5.074,7.879,10.917,12.159,16.099
		c2.127,2.576,4.558,4.771,5.047,8.339c0.18,1.312,1.192,2.507,2.316,3.162c3.395,1.979,5.439,5.039,6.215,8.639
		c1.401,6.503,7.642,9.109,10.903,14.221c3.698,5.797,7.711,11.515,11.567,17.26c7.287,10.856,14.682,21.586,22.943,31.752
		c1.99,2.449,6.437,5.233,3.277,9.869c-34.321-0.001-68.643-0.003-102.965-0.004c-1.161-0.869-2.822-1.266-3.027-3.056
		c-0.794-6.947-5.101-11.666-10.237-15.727c-2.184-1.726-2.397-4.312-3.541-6.454c-4.633-8.676-11.441-15.852-16.446-24.224
		c-5.854-9.792-13.083-18.625-18.883-28.495c-4.546-7.735-10.178-15.091-17.249-20.958c-2.131-1.767-2.371-4.332-3.495-6.478
		c-4.493-8.576-11-15.729-16.236-23.77c-7.568-11.62-15.354-23.102-23.143-34.57c-3.591-5.287-7.28-10.772-12.497-14.667
		c-2.576-1.923-2.967-4.754-4.233-7.146c-4.527-8.553-11.09-15.666-16.224-23.771c-3.359-5.304-6.682-10.622-10.61-15.555
		C784.642,169.435,783.692,166.981,784.998,164.378z"/>
	<path fill-rule="evenodd" clip-rule="evenodd" fill="#4758B3" d="M916.002,143.381c0.667-0.002,1.334-0.003,2-0.004
		c1.197-0.877,2.751-0.322,3.999-0.995c1.333-0.003,2.666-0.006,3.999-0.009c0.923-0.852,1.899-1.622,3.106-2.043
		c0.477-0.175,0.965-0.296,1.467-0.364c1.542-0.151,3.035-0.028,4.407,0.773c5.1,0.412,8.34,3.168,10.849,7.588
		c5.796,10.209,12.379,19.916,20.061,28.834c0.881,1.022,1.661,2.14,1.946,3.449c0.752,3.456,2.986,5.818,5.58,7.96
		c2.844,2.35,5.655,4.724,6.025,8.783c0.045,0.489,0.194,1.077,0.545,1.376c5.772,4.929,8.11,12.344,13.16,17.895
		c5.432,5.969,9.759,12.926,13.775,19.959c3.955,6.926,9.1,12.972,13.761,19.368c1.378,1.891,3.021,3.492,3.468,5.89
		c0.154,0.83,0.412,1.734,1.076,2.209c7.339,5.253,10.262,13.891,15.66,20.646c3.547,4.439,6.457,9.46,9.997,14.039
		c9.687,12.531,16.625,27.018,27.343,38.851c0.896,0.99,1.469,2.222,1.762,3.547c0.685,3.102,2.791,5.276,5.077,7.161
		c3.007,2.479,5.899,4.903,6.39,9.101c0.057,0.492,0.194,1.067,0.555,1.373c5.792,4.906,7.807,12.584,13.223,17.84
		c2.81,2.727,4.713,6.357,7.134,9.508c2.74,3.565,1.374,5.739-3.039,5.757c-7.783,0.031-15.567,0.008-23.351,0.009
		c8.16,0,16.32-0.018,24.48,0.019c1.218,0.006,3.011-0.478,2.865,1.661c-0.115,1.689-1.663,1.3-2.752,1.305
		c-7.328,0.03-14.655,0.015-21.983,0.016c7.094,0,14.188-0.047,21.28,0.051c1.054,0.015,2.854-1.002,3.053,1.3
		c-12.307,0.104-24.611,0.206-36.918,0.31c-0.358-0.104-0.718-0.209-1.077-0.313c-2.978-0.812-4.869-2.448-6.647-5.274
		c-2.115-3.358-4.875-6.303-7.025-9.836c-5.227-8.586-11.295-16.714-17.475-24.613c-8.468-10.822-15.161-22.772-23.188-33.85
		c-3.058-4.219-7.542-7.512-8.793-13.005c-0.359-1.578-2.377-0.916-3.335-1.837c-3.826-10.251-11.085-18.303-17.583-26.772
		c-9.13-11.9-16.511-24.995-25.631-36.863c-6.438-8.378-11.946-17.385-18.062-25.974c-5.075-7.126-10.83-13.839-15.115-21.544
		c-1.376-2.473-3.152-4.653-5.803-5.934c-0.587-3.404-1.765-6.165-4.564-8.763c-2.149-1.994-2.896-5.646-4.789-8.371
		c-3.281-4.724-7.193-8.979-10.311-13.755c-1.985-3.042-4.027-5.815-6.841-8.049c-1.261-0.68-2.457-1.45-3.496-2.453
		c-0.54-0.578-0.874-1.248-0.94-2.044c0.02-0.54,0.196-1.022,0.521-1.452c0.591-0.564,1.316-0.799,2.111-0.855
		c1.728-0.46,3.242,1.792,5.045,0.398c2.666-0.335,5.332-0.67,7.998-1.005C912.42,142.799,914.535,144.72,916.002,143.381z"/>
	<path fill-rule="evenodd" clip-rule="evenodd" fill="#4657B2" d="M897,148.38c1.651,0.031,3.35-0.032,4,2
		c-0.009,1.085-0.005,2.168,0.275,3.228c0.3,2.177,1.895,3.394,3.455,4.641c0.65,0.738,1.063,1.593,1.275,2.548
		c0.152,0.814,0.162,1.775,0.784,2.325c4.707,4.162,7.051,9.998,10.694,14.897c6.466,8.696,12.988,17.354,19.507,26.011
		c4.005,5.32,7.112,11.239,11.102,16.463c10.027,13.128,18.984,26.997,28.506,40.461c6.541,9.25,13.528,18.219,19.579,27.823
		c0.197,1.624,0.436,3.221,2.457,3.637c3.885,4.376,5.675,10.155,9.694,14.443c4.705,1.494,4.223,6.614,6.738,9.712
		c6.053,7.454,11.342,15.498,16.945,23.3c0.677,0.943,1.442,1.835,1.987,2.855c5.359,10.044,13.145,18.434,19.308,27.966
		c3.238,5.01,6.352,10.303,9.991,15.151c1.96,2.61,5.69,3.453,6.546,7.207c0.336,1.476,0.883,2.445-0.805,3.172
		c-8.028,0.001-16.058,0.001-24.087,0.002c-0.716-3.638-3.368-6.332-5.52-8.856c-8.467-9.935-15.672-20.707-22.724-31.624
		c-6.784-10.502-14.582-20.29-21.692-30.542c-2.775-4.002-6.889-7.441-8.528-11.502c-3.117-7.719-10.032-12.478-13.227-19.826
		c-1.06-2.437-4.371-3.334-4.263-6.491c0.477-0.333,0.786-0.667,0-1c-6.08-3.575-8.053-10.318-11.765-15.66
		c-4.791-6.893-9.08-14.143-14.929-20.222c-1.676-1.74-2.744-3.784-3.875-5.768c-5.379-9.431-12.349-17.708-18.707-26.434
		c-4.94-6.781-9.634-13.753-14.205-20.79c-6.278-9.665-12.184-19.565-19.938-28.202c-2.063-2.298-3.306-5.274-4.815-8.01
		c-2.224-4.028-5.26-7.854-9.769-9.917c-0.315-1.438,0.569-2.467,1.674-2.658c6.979-1.208,13.79-3.735,21.044-2.86
		C895.201,146.179,895.312,148.307,897,148.38z"/>
	<path fill-rule="evenodd" clip-rule="evenodd" fill="#4556B3" d="M784.998,164.378c5.172,8.01,10.238,16.092,15.559,24.003
		c3.047,4.532,6.271,8.993,9.861,13.097c2.372,2.711,4.01,6.039,5.081,9.002c2.209,6.111,7.481,9.449,11.106,14.081
		c5.014,6.406,9.389,13.146,13.92,19.836c6.572,9.701,13.404,19.228,19.874,28.995c4.43,6.688,10.263,12.558,12.47,20.61
		c0.155,0.566,0.673,1.096,1.142,1.505c9.337,8.146,16.353,18.164,22.288,28.856c2.611,4.703,6.271,8.5,9.106,12.989
		c5.64,8.931,11.709,17.607,18.181,26.015c2.222,2.886,4.889,6.316,5.253,10.502c0.039,0.447,0.297,1.026,0.645,1.271
		c7.325,5.161,11.967,11.896,12.505,21.076c-3.331,0.001-6.662,0.003-9.993,0.004c-0.28-4.484-3.637-7.632-5.98-10.67
		c-8.919-11.562-16.688-23.893-25.162-35.74c-6.181-8.641-12.853-16.963-18.548-25.91c-10.102-15.87-21.978-30.481-32.219-46.22
		c-7.345-11.287-15.985-21.658-23.227-32.942c-13.289-20.706-28.81-39.848-41.767-60.775c-3.833-6.19-8.701-11.741-13.095-17.585
		c0.003-0.332,0.006-0.663,0.009-0.995C776.338,165.048,780.668,164.713,784.998,164.378z"/>
	<path fill-rule="evenodd" clip-rule="evenodd" fill="#4657B2" d="M1069.04,396.22c0.737-2.672-1.234-3.838-2.862-5.24
		c-4.307-3.711-8.155-7.784-10.228-13.231c-0.91-2.391-1.602-4.869-5.235-3.127c-1.642,0.787-2.921-0.86-1.75-2.085
		c2.562-2.681,0.315-3.905-0.93-5.791c-8.095-12.255-17.363-23.688-25.088-36.21c-3.029-4.911-7.567-8.749-10.495-13.843
		c-1.733-3.015-1.465-6.944-4.452-9.312c0.333-0.354,0.667-0.354,1,0c2.674-2.85,3.812-0.04,4.802,1.558
		c5.103,8.242,11.287,15.737,16.484,23.884c3.234,5.07,7.618,9.461,9.324,15.55c0.679,2.423,3.685,3.324,5.208,5.528
		c5.938,8.588,12.658,16.664,18.215,25.479c3.689,5.854,7.587,11.472,11.893,16.848
		C1072.963,396.225,1071.002,396.222,1069.04,396.22z"/>
	<path fill-rule="evenodd" clip-rule="evenodd" fill="#4859B2" d="M1096,116.373c13.633-2.227,27.221-4.763,40.999-5.994
		c1.39-0.955,2.949-0.322,4.423-0.473c3.118,1.641,4.946,4.389,6.395,7.458c1.323,2.062,2.179,4.453,4.225,6.01
		c0.68,0.598,1.208,1.33,1.789,2.017c0.26,0.374,0.447,0.782,0.574,1.219c0.852,3.322,4.207,5.229,4.895,8.645
		c0.354,0.607,0.888,1.045,1.405,1.502c3.472,3.616,6.517,7.581,9.054,11.88c1.882,3.191,3.785,6.24,7.06,8.201
		c0.864,0.518,1.698,1.382,1.776,2.337c0.484,5.913,5.209,8.911,8.429,13.054c6.177,7.947,12.428,15.912,16.871,25.052
		c1.104,0.907,1.99,1.978,2.521,3.316c0.221,2.041,2.425,2.616,3.178,4.263c0.265,0.367,0.49,0.759,0.688,1.165
		c1,3.474,3.817,5.852,5.432,8.955c0.408,0.551,0.819,1.099,1.225,1.652c3.69,4.894,6.974,10.177,10.789,14.845
		c3.964,4.851,6.551,10.519,10.359,15.149c5.14,6.249,9.935,12.739,14.948,19.071c2.807,3.545,4.243,7.856,6.916,11.443
		c1.262,1.561,2.111,3.384,3.195,5.057c0.551,0.67,1.069,1.363,1.508,2.112c0.655,0.874,1.497,1.591,2.114,2.498
		c0.692,2.602,3.16,4.184,3.897,6.758c0.999,1.765,2.67,2.968,3.834,4.599c5.255,6.149,7.953,14.278,14.859,19.144
		c0.267,0.188,0.549,0.47,0.62,0.77c2.588,10.902,12.487,16.774,17.812,25.87c5.264,8.991,11.59,17.379,17.29,26.124
		c4.623,7.094,9.638,13.872,14.608,20.699c1.189,1.634,2.359,3.286,1.242,5.452c-41.646-0.001-83.294-0.002-124.94-0.002
		c-4.229-1.777-6.699-5.096-8.705-9.118c-2.824-5.662-7.386-10.187-10.82-15.481c-6.402-9.87-14.313-18.734-20.501-28.675
		c-8.153-13.099-17.593-25.278-26.074-38.134c-7.539-11.429-15.58-22.664-24.029-33.558c-6.668-8.597-12.286-18.034-18.691-26.883
		c-7.68-10.608-14.718-21.66-22.29-32.347c-6.894-9.728-14.547-18.973-20.862-29.021c-8.207-13.059-18.154-24.872-25.981-38.203
		c-3.623-6.171-8.775-11.536-13.034-17.42c0.667-0.334,1.333-0.667,2-1.001c12.771-0.995,25.308-3.61,37.952-5.479
		C1075.298,119.369,1085.65,117.88,1096,116.373z"/>
	<path fill-rule="evenodd" clip-rule="evenodd" fill="#4758B2" d="M1025,127.38c1.512,0.021,3.085-0.005,4.091,1.377
		c4.166,5.723,8.35,11.436,12.421,17.226c4.384,6.235,8.644,12.557,12.967,18.833c5.131,7.449,9.992,15.104,15.474,22.286
		c8.743,11.456,16.575,23.554,25.228,35.081c4.623,6.159,8.511,12.958,13.093,19.238c9.911,13.586,19.079,27.689,29.026,41.271
		c6.014,8.21,11.997,16.584,17.516,25.238c5.938,9.313,12.814,18.071,19.148,27.138c4.71,6.74,9.054,13.791,14.072,20.322
		c6.761,8.8,12.354,18.405,19.408,27.035c3.338,4.083,5.521,9.289,8.546,13.795c-34.356,0.004-68.713,0.008-103.069,0.011
		c-6.044-1.782-12.229-0.52-18.342-0.816c-3.805-0.185-7.626-0.034-11.472-0.984c9.53,0,19.061,0,28.591,0
		c0.006-0.515,0.012-1.028,0.017-1.543c-10.146-1.223-20.423-0.001-30.616-1.507c7.752,0,15.506,0.091,23.255-0.055
		c2.381-0.044,5.925,1.374,6.906-0.837c1.12-2.522-2.263-4.352-3.796-6.451c-4.807-6.586-9.291-13.414-14.233-19.894
		c-1.98-2.597-4.467-4.485-4.645-8.308c-0.112-2.416-2.808-3.859-4.885-5.305c-3.091-2.153-5.856-4.67-6.131-8.817
		c-0.083-1.247-0.634-2.171-1.457-3.065c-6.022-6.543-10.938-13.85-15.617-21.417c-4.398-7.113-8.733-14.411-14.586-20.477
		c-4.681-4.852-8.42-10.84-11.389-16.274c-2.821-5.164-6.593-8.868-10.012-13.167c-3.386-4.257-5.392-9.33-8.742-13.713
		c-7.364-9.632-13.809-19.965-20.698-29.963c-4.438-6.44-8.928-12.85-13.546-19.161c-1.987-2.717-5.178-4.51-4.909-8.712
		c0.127-1.972-2.122-3.384-3.718-4.45c-3.922-2.621-6.839-5.506-7.67-10.608c-0.51-3.132-4.104-4.949-6.121-7.558
		c-7.153-9.25-12.362-19.775-19.567-28.958c-1.189-1.517-2.622-2.53-4.542-2.812c-0.252-0.223-0.335-0.443-0.249-0.664
		c0.085-0.221,0.169-0.331,0.254-0.331c13.089-0.88,25.906-3.688,38.864-5.501C990.926,132.495,1007.956,129.891,1025,127.38z"/>
	<path fill-rule="evenodd" clip-rule="evenodd" fill="#485AB2" d="M1203,198.38c-4.676-2.843-5.502-8.431-8.775-12.396
		c-5.029-6.093-9.224-12.889-14.913-18.486c-0.475-0.467-1.117-0.904-1.32-1.481c-3.919-11.152-13.548-18.508-18.991-28.637
		c0.072-0.265,0.107-0.534,0.083-0.792c-0.023,0.016-0.264-0.273-0.283-0.256s-0.411-0.021-0.411-0.021L1158,136.38
		c-1.189-3.572-4.642-6.013-4.613-10.212c0.334-0.229,0.193-0.184-0.034-0.073c0.141-0.045,0.281-0.092,0.034,0.073
		c-1.467-0.041-2.134-0.708-2.387-1.788c-0.545-0.938-0.358-2.078-0.841-3.031c-0.531-0.93-1.322-1.59-2.221-2.141
		c-0.335-0.251-0.647-0.528-0.938-0.828c-2.693-2.025-4.557-4.569-5-8c2.123-1.403,4.703-1.204,7-1.999
		c0.332-0.002,0.665-0.003,0.997-0.002c2.001-0.856,4.002,0.193,6.003,0.001c1.333,1.667,2.667,3.333,4,5
		c0.731,1.13,1.397,2.294,1.883,3.552c0.012,1.119,0.242,2.169,1.008,3.043c1.675,1.503,3.344,3.011,5.109,4.405
		c0,0.333,0,0.666,0,1c1.695,3.496,3.821,6.658,7,9c2.17,3.771,4.138,7.67,7,11c0.736,1.253-0.536,2.27-0.396,3.446
		c0.055,0.168,0.1,0.341,0.171,0.507c2.278,1.005,4.122,2.261,5.288,4.712c1.252,2.63,3.329,4.812,5.938,6.335c0.667,1,1.333,2,2,3
		c-0.873,2.207-1.045,4.052,1.561,5.428c3.625,1.913,3.613,7.108,7.604,8.807c0.719,0.618,1.182,1.429,1.673,2.219
		c1.122,2.654,3.133,4.608,5.162,6.547c2,2.667,4,5.333,6,8c0.427,4.049,2.743,6.838,6,9c1.592,0.89,2.242,2.485,3,4
		c1.223,2.65,2.822,5.031,5,7c2.3,3.688,5.426,6.85,7,11c0.073,2.065,0.293,3.729,2.351,5.265c3.479,2.594,4.809,7.31,8.649,9.735
		c0.667,1,1.333,2,2,3c-0.618,2.247-0.423,3.979,1.867,5.48c1.683,1.104,3.471,2.614,3.68,5.024
		c0.178,1.855,1.641,2.601,2.984,3.452c3.032,2.566,4.129,6.731,7.469,9.043c2,2.667,4,5.333,6,8
		c1.115,1.281,0.928,2.882,1.081,4.393c0.261,1.037,0.939,1.714,1.896,2.158c1.237,0.539,2.093,1.541,3.023,2.449
		c1.592,0.89,2.242,2.484,3,4c1.223,2.65,2.822,5.031,5,7c2.301,3.688,5.426,6.851,7,11c0.073,2.066,0.293,3.729,2.351,5.265
		c3.479,2.594,4.808,7.31,8.649,9.735c0.667,1,1.333,2,2,3c-0.195,1.58-0.871,3.145,0.679,4.564
		c4.615,4.227,7.771,9.645,11.605,14.508c1.125,1.426,2.481,2.615,3.716,3.928c9.456,12.331,18.878,24.701,26.878,38.042
		c2.474,4.125,6.618,7.044,8.11,11.796c-5.687,0.001-11.372,0.003-17.059,0.005c-11.738-14.784-21.721-30.759-32.074-46.505
		c-4.473-6.802-8.665-14.122-15.242-19.408c-0.635-0.511-1.244-1.179-1.587-1.904c-4.745-10.027-12.53-17.964-18.539-27.116
		c-0.493-0.753-0.34-1.93-0.487-2.909c-0.005-2.661-2.302-3.032-4-4c-0.821-2.626-3.455-4.216-4-7c0.88-2.214-1.297-1.37-2-2
		c-0.333-0.667-0.667-1.333-1-2c0.052-2.298,0.292-4.708-3-5c-4.676-2.843-5.501-8.431-8.774-12.396
		c-5.03-6.092-9.225-12.889-14.914-18.486c-0.475-0.467-1.118-0.904-1.32-1.481c-3.917-11.153-13.549-18.507-18.991-28.637
		c0.014-0.68-0.321-1.012-1-1c-1.189-3.572-4.642-6.013-5-10c-0.333-1.021-0.667,0.01-1,0c-1.335-1.466-2.618-2.963-3-5
		C1205.325,199.719,1204.163,199.049,1203,198.38z"/>
	<path fill-rule="evenodd" clip-rule="evenodd" fill="#4756B2" d="M360.864,396.229c-5.809-5.677-9.934-12.677-14.849-19.05
		c-8.893-11.53-15.942-24.336-24.803-35.94c-7.902-10.348-14.702-21.531-22.203-32.196c-5.04-7.164-11.072-13.695-15.551-21.175
		c-6.394-10.676-14.184-20.342-20.915-30.756c-2.406-3.723-6.126-6.657-5.544-11.735c0.002-0.331,0.005-0.662,0.007-0.993
		c1.503-2.834,4.472-2.721,6.946-3.07c21.475-3.036,42.813-6.966,64.321-9.78c1.985-0.26,3.95-0.433,5.91,0.062
		c4.971,5.62,10.084,11.16,13.361,18.037c3.174,6.662,8.954,11.399,12.75,17.644c7.037,11.578,15.299,22.352,22.56,33.814
		c5.009,7.907,10.386,15.755,17.122,22.435c1.579,1.565,2.606,3.277,3.421,5.357c1.325,3.38,3.225,6.387,6.019,8.989
		c3.751,3.493,6.512,8.062,9.028,12.397c6.413,11.044,15.01,20.597,20.999,31.924c1.624,3.071,4.081,5.98,6.491,8.721
		c1.414,1.606,3.046,3.5,0.104,5.322C417.646,396.233,389.255,396.23,360.864,396.229z"/>
	<path fill-rule="evenodd" clip-rule="evenodd" fill="#4757B2" d="M446.037,396.235c-0.035-4.465-4.387-6.132-6.28-9.507
		c-4.272-7.611-9.429-14.765-14.617-21.815c-6.633-9.015-11.398-19.366-19.608-27.259c-1.158-1.114-2.081-2.682-2.604-4.214
		c-2.972-8.709-10.774-13.903-15.399-21.458c-5.683-9.284-11.972-18.223-18.379-27.034c-6.58-9.051-11.391-19.372-19.597-27.264
		c-1.042-1.002-1.928-2.413-2.326-3.796c-2.065-7.165-8.661-11.288-11.759-17.752c-0.463-0.966-0.834-1.747-0.468-2.762
		c-0.057-3.087,2.565-2.194,4.168-2.818c1.284-0.434,2.554-0.964,3.959-0.657c15.797,6.794,31.479,13.86,47.072,21.132
		c4.516,2.105,8.925,4.34,13.144,6.971c2.553,1.465,5.939,1.445,7.711,4.312c1.847,5.405,5.641,9.717,9.038,14.008
		c3.719,4.696,7.039,9.664,10.517,14.49c6.394,8.875,13.173,17.532,19.087,26.68c7.809,12.077,16.257,23.709,24.242,35.65
		c8.56,12.798,17.823,25.161,26.688,37.782c0.311,1.797,2.514,3.132,1.319,5.303C483.31,396.229,464.673,396.232,446.037,396.235z"
		/>
	<path fill-rule="evenodd" clip-rule="evenodd" fill="#4858B3" d="M501.946,396.228c-0.982-1.283-1.964-2.565-2.946-3.848
		c1.011-2.326,3.167-2.182,5.119-2.24c6.485-0.195,13.146-1.044,19.431,0.123c18.806,3.494,37.709,0.32,53.074,1.621
		c-12.182-0.015-27.801-0.058-43.419,0.046c-3.122,0.021-5.002-0.096-4.322-4.207c0.483-2.926-1.932-5.102-3.915-7.18
		c-2.829-2.963-6.175-5.577-6.651-10.168c-0.173-1.675-1.565-2.969-2.678-4.141c-8.714-9.176-14.726-20.286-22.097-30.417
		c-8.735-12.006-15.576-25.327-25.553-36.468c-1.951-2.179-2.026-4.864,0.058-7.275c1.063-0.976,2.481-1.476,3.688-0.938
		c7.521,3.34,15.465,5.922,21.704,11.629c0.335,0.405,0.711,0.773,1.321,0.808c1.844,0.142,3.075,1.18,4.022,2.631
		c0.567,0.633,1.314,0.694,2.113,0.616c6.06,0.438,10.719,4.232,15.749,6.904c10.364,5.506,20.864,10.766,31.102,16.51
		c1.828,0.972,3.041,2.826,5.064,3.53c0.442,0.161,0.862,0.362,1.269,0.6c0.881,0.794,1.887,1.485,2.232,2.716
		c2.796,3.918,4.427,8.423,7.463,12.406c3.218,4.221,5.976,9.371,8.652,14.251c3,5.469,7.375,9.744,10.92,14.708
		c0.377,0.527,1.065,0.878,1.301,1.487c2.607,6.76,8.937,9.713,14.103,13.854c0.786,0.631,1.582,1.252,1.169,2.452
		C567.262,396.234,534.604,396.23,501.946,396.228z"/>
	<path fill-rule="evenodd" clip-rule="evenodd" fill="#4958B2" d="M599.92,396.238c-7.107-2.444-12.088-7.105-16.425-13.338
		c-5.363-7.708-11.457-14.921-16.531-22.879c-1.688-2.647-3.999-4.896-4.081-8.32c-0.025-1.042-0.536-2.021-1.481-2.453
		c-4.703-2.147-3.768-8.085-7.417-10.913c0.338-0.318,0.676-0.637,1.014-0.955c0.648-0.171,1.294-0.36,1.979-0.291
		c0.443,0.081,0.858,0.238,1.25,0.459c0.941,0.994,2.266,1.269,3.458,1.793c0.583,0.322,1.084,0.745,1.529,1.233
		c1.4,2.069,3.833,1.488,5.762,2.206c9.802,4.09,18.919,9.417,27.742,15.275c10.502,4.798,20.21,10.994,29.997,17.052
		c9.24,4.922,18.235,10.269,27.207,15.654c2.075,1.247,4.705,2.16,4.022,5.469c-18.98,0.1-37.962,0.199-56.942,0.299
		C600.641,396.433,600.28,396.335,599.92,396.238z"/>
	<path fill-rule="evenodd" clip-rule="evenodd" fill="#4354B3" d="M657.944,396.23c-9.499-5.703-18.991-11.416-28.503-17.099
		c-1.283-0.766-2.652-1.383-3.443-2.748c-4.256-7.727-9.844-14.571-15.011-21.639c-5.28-7.222-9.774-14.943-15.19-22.073
		c-8.921-11.746-16.326-24.598-25.266-36.315c-6.229-8.168-12.17-16.566-18.092-24.915c-5.93-8.358-11.487-17.034-17.489-25.378
		c-7.734-10.753-14.342-22.292-22.809-32.54c-1.55-1.876-3-4.087-1.894-6.846c0.446-0.619,1.175-0.856,1.754-1.297
		c12.133-1.719,24.277-3.35,36.394-5.176c23.584-3.553,47.151-7.213,70.725-10.836c1.964-0.302,3.92-0.661,5.88-0.994
		c3.332-0.332,6.663-0.665,9.995-0.997c2.966-0.009,5.191,1.48,6.543,3.914c4.597,8.279,11.016,15.268,16.167,23.142
		c9.954,15.216,20.935,29.716,30.808,45.003c7.779,12.045,17.033,23.128,25.104,34.997c10.221,15.031,20.967,29.692,30.869,44.959
		c7.984,12.309,16.974,23.985,25.865,35.679c5.205,6.847,8.457,15.016,14.658,21.144c-34.031,0.055-68.062,0.104-102.094,0.17
		c-7.635,0.016-15.27,0.097-22.904,0.147C659.322,396.432,658.634,396.331,657.944,396.23z"/>
	<path fill-rule="evenodd" clip-rule="evenodd" fill="#4B5AB3" d="M343.009,231.384c-1.005,0.331-2.01,0.661-3.015,0.992
		c-11.803-3.432-22.701-9.118-34.058-13.661c-4.627-1.852-8.991-4.273-13.604-6.166c-1.688-0.692-3.967-1.4-3.333-4.168
		c2.024-0.42,4.803,0.073,5.28-2.677c0.401-2.312-0.936-4.123-3.44-4.775c-0.43-0.112-1.066-0.604-1.086-0.949
		c-0.447-8.045-8.443-10.661-11.965-16.643c-7.248-12.308-15.445-24.091-23.536-35.858c-5.605-8.154-11.59-16.05-16.552-24.643
		c-0.939-1.627-2.908-1.473-4.075-2.718c-2.245-2.392-0.738-5.062-0.679-8.228c-4.047,3.111-5.951-0.361-7.283-2.603
		c-4.633-7.792-10.326-14.876-15.026-22.55c-5.68-9.274-11.834-18.207-18.119-27.022c-3.857-5.41-7.203-11.074-10.727-16.659
		c-0.262-0.414-0.554-0.838-0.92-1.154c-4.528-3.92-4.533-3.915-4.102-9.702c-4.436,2.234-5.863-1.286-7.681-4.012
		c-4.191-6.284-8.292-12.631-12.569-18.855c-1.587-2.309-3.6-4.3-6.675-4.953c14.121,0,28.243,0,42.364,0
		c8.998,0,17.997,0.013,26.995-0.01c1.978-0.005,4.03,0.301,5.797-0.99c1.772,0.517,2.478,2.099,3.446,3.429
		c8.195,11.247,15.904,22.83,23.822,34.268c8.774,12.674,18.582,24.634,27.313,37.334c4.299,6.255,7.832,13.102,12.55,19.075
		c6.898,8.731,12.475,18.343,18.737,27.485c10.464,15.276,22.992,29.055,31.782,45.603c3.56,6.701,9.531,12.216,13.901,18.709
		c8.216,12.211,16.937,24.083,25.448,36.096c-0.337,1.214-1.029,2.146-2.164,2.726c-8.604,1.935-17.374,2.915-26.064,4.36
		C350.189,233.06,346.474,232.95,343.009,231.384z"/>
	<path fill-rule="evenodd" clip-rule="evenodd" fill="#5260B2" d="M289,208.381c15.201,6.678,30.403,13.354,45.603,20.036
		c2.089,0.918,4.563,1.321,5.392,3.959c-1.721,0.051-3.504-0.204-4.995,0.999c-15.44,1.192-30.605,4.325-45.904,6.516
		c-10.692,1.531-21.288,3.746-32.09,4.492c-3.089,0.236-4.823-1.625-6.443-3.921c-7.944-11.256-16.238-22.276-23.861-33.744
		c-6.053-9.104-12.17-18.152-18.513-27.055c-0.773-1.084-2.726-3.018,0.812-3.283c15.746,6.221,31.487,12.455,47.247,18.643
		c1.525,0.599,3.163,0.913,4.749,1.359c0.495,0.677,1.536,0.261,2,1c5.682,3.384,12.024,5.28,18.004,7.993
		c1.318-0.613,2.137,0.26,3,1.005C285.667,207.047,287.333,207.714,289,208.381z"/>
	<path fill-rule="evenodd" clip-rule="evenodd" fill="#4B5AB3" d="M284,206.38c-1-0.335-2-0.67-3-1.005
		C282.875,203.099,283.39,204.881,284,206.38z"/>
	<path fill-rule="evenodd" clip-rule="evenodd" fill="#4B5AB3" d="M262.996,197.382c-0.667-0.333-1.333-0.667-2-1
		c1.02,0.28,2.154-0.78,3.109,0.265C263.736,196.892,263.366,197.137,262.996,197.382z"/>
	<path fill-rule="evenodd" clip-rule="evenodd" fill="#4454B2" d="M47.92,355.822c1.82,0.492,3.19,1.647,3.567,3.601
		c0.239,1.238-0.775,1.738-1.869,1.787c-1.939,0.087-3.22-0.776-3.432-2.793C46.058,357.201,46.221,356.043,47.92,355.822z"/>
	<path fill-rule="evenodd" clip-rule="evenodd" fill="#4454B2" d="M56.945,369.175c-1.733-0.162-2.721-1.115-2.711-2.894
		c0.008-1.292,0.612-2.412,2.038-2.301c1.864,0.146,3.083,1.33,3.117,3.246C59.415,368.673,58.251,369.096,56.945,369.175z"/>
	<path fill-rule="evenodd" clip-rule="evenodd" fill="#4454B2" d="M40.263,339.921c1.517,0.312,2.507,1.075,2.466,2.629
		c-0.04,1.5-0.832,2.538-2.43,2.392c-1.591-0.146-2.141-1.359-2.071-2.8C38.29,340.863,38.979,340.037,40.263,339.921z"/>
	<path fill-rule="evenodd" clip-rule="evenodd" fill="#4454B2" d="M8,303.38c0-1,0-2,0-3c1.017,0.459,2.034,0.917,3.602,1.624
		C10.115,302.571,9.058,302.976,8,303.38z"/>
	<path fill-rule="evenodd" clip-rule="evenodd" fill="#4454B1" d="M57.471,277.611c-0.224,0.292-0.362,0.632-0.51,0.636
		c-0.438,0.011-0.88-0.11-1.32-0.18c0.132-0.194,0.25-0.54,0.399-0.555C56.476,277.472,56.923,277.563,57.471,277.611z"/>
	<path fill-rule="evenodd" clip-rule="evenodd" fill="#4B5CB2" d="M1438,97.38c0,66.667,0,133.333,0,200c-0.333,0-0.667,0-1,0
		c-0.476-0.223-0.847-0.561-1.112-1.013c-1.587-11.09,0.029-22.214-0.314-33.324c-0.244-7.888-2.658-14.63-7.858-20.602
		c-3.403-3.907-5.975-8.51-8.889-12.763c-4.349-6.344-8.24-13.25-14.196-18.433c-0.919-0.8-1.537-1.854-1.761-2.964
		c-1.038-5.157-4.919-8.541-7.476-12.75c-3.715-6.117-10.274-10.273-11.989-17.667c-0.204-0.877-0.824-1.325-1.432-1.91
		c-2.858-2.749-6.965-4.637-6.676-9.638c0.061-1.058-1.261-1.44-1.928-2.151c-4.028-4.293-7.767-8.735-10.236-14.233
		c-1.081-2.406-3.037-4.677-4.838-6.584c-3.6-3.815-5.385-8.944-9.677-12.236c-3.053-2.342-2.135-6.854-4.904-9.863
		c-3.917-4.255-6.482-9.705-10.771-13.754c-2.09-1.974-4.02-4.642-4.602-6.921c-0.978-3.829-3.739-5.872-6.093-7.965
		c-2.824-2.511-3.105-4.793-2.048-7.82c-0.066-0.143,0.463-0.322-0.073-0.503c-0.05,0.022-0.52,0.088-0.52,0.088
		s-0.467-0.077-0.499-0.08c-0.823-0.396-1.519-0.843-1.109-1.913c28.041-4.335,56.082-8.666,84.12-13.016
		c1.638-0.254,3.254-0.654,4.88-0.986c3.333-0.333,6.667-0.666,10-0.999c2.031,1.147,3.413,2.733,4.729,4.776
		c4.279,6.648,8.963,13.041,13.623,19.436C1436.658,93.385,1437.577,95.239,1438,97.38z"/>
	<path fill-rule="evenodd" clip-rule="evenodd" fill="#5362AD" d="M1394.77,39.714c-0.123,0.836-0.252,1.587-1.13,1.403
		c-0.264-0.056-0.516-0.79-0.539-1.227c-0.034-0.623,0.011-1.476,0.988-1.212C1394.416,38.767,1394.59,39.423,1394.77,39.714z"/>
	<path fill-rule="evenodd" clip-rule="evenodd" fill="#4D5CB2" d="M510,5.38c-1.134-0.447-2.268-0.896-3.401-1.343
		c0.558-1.107,1.597-0.452,2.401-0.657C509.333,4.047,509.667,4.713,510,5.38z"/>
	<path fill-rule="evenodd" clip-rule="evenodd" fill="#4C5BB2" d="M512.002,205.381c-0.334,0.332-0.668,0.665-1.002,0.998
		c-2.816,3.164-6.717,2.953-10.43,3.406c-2.436,0.298-4.886,0.474-7.311,0.859c-0.526,0.117-1.059,0.193-1.596,0.237
		c-2.206,0.104-3.997,1.776-6.264,1.67c-4.137-0.355-8.552,2.203-12.4-1.172c0.982-0.979,1.099-1.812,0.015-2.949
		c-7.95-8.339-14.96-17.269-19.815-27.913c-1.616-3.544-4.803-6.65-7.396-9.733c-5.797-6.888-9.683-15.076-15.435-21.821
		c-4.214-4.94-5.777-11.907-12.127-15.281c-1.454-0.772-1.677-3.749-2.607-5.642c-2.573-5.231-7.378-8.779-10.361-13.812
		c-1.646-2.774-3.518-5.456-5.18-8.304c-7.954-13.63-18.475-25.512-26.91-38.898c-2.862-4.542-4.779-11.116-11.192-13.484
		c-1.806-0.667-1.276-3.842-2.388-5.788c-2.81-4.916-7.019-8.694-10.22-13.308c-2.935-4.229-5.155-8.71-7.701-13.083
		c-2.3-3.951-6.183-6.798-8.121-11.089c-0.435-0.964-2.131-1.477-1.593-2.805c0.633-1.562,2.294-1.057,3.547-1.062
		C346.676,6.365,357.838,6.382,369,6.38c1.622,0.373,2.428,1.679,3.273,2.911c9.165,13.354,17.899,27.03,27.645,39.945
		c5.284,7.004,10.773,13.932,15.591,21.208c6.034,9.115,12.354,17.997,18.622,26.938c5.673,8.092,11.265,16.255,16.812,24.438
		c9.268,13.672,19.905,26.365,28.186,40.769c4.101,7.132,10.363,13.003,14.647,20.052c3.961,6.519,8.772,12.351,13.012,18.621
		C508.068,203.158,509.182,205.383,512.002,205.381z"/>
	<path fill-rule="evenodd" clip-rule="evenodd" fill="#4252B4" d="M493,304.38c-7.666-4.669-15.678-8.646-24-12.001
		c-5.156,0.584-14.431-4.171-16.924-8.663c2.153-3.982,0.757-6.909-2.214-10.029c-4.564-4.794-7.001-11.187-11.143-16.321
		c-7.388-9.158-12.48-19.83-19.55-29.216c-1.817-2.413-3.889-4.88-5.16-7.758c1.995-0.005,3.99-0.009,5.985-0.014
		c2.186-1.359,4.813,0.371,6.997-1.002c9.419-2.651,19.163-3.422,28.776-4.938c5.383-0.849,10.695-2.358,16.228-2.06
		c5.888-1.988,8.117,3.442,9.708,6.432c2.881,5.416,7.752,9.011,10.712,14.18c5.827,10.175,13.056,19.438,19.327,29.339
		c4.049,6.391,8.567,12.559,13.59,18.278c1.119,1.275,2.264,2.509,2.643,4.154c0.662,2.871,2.366,5.222,4.154,7.305
		c6.032,7.023,11.591,14.41,16.976,21.913c4.232,5.896,7.856,12.23,11.546,18.481c1.281,2.171,3.574,5.718-1.635,6.859
		c-0.724-0.2-1.417-0.467-2.017-0.937v-0.005c-0.995-1.45-2.303-2.484-4-2.998c-1.674-1.651-4.018-1.964-6-3
		c-13.668-7.217-27.351-14.406-40.986-21.684c-1.934-1.032-3.892-1.849-6.014-2.319c-0.839,0.014-1.604-0.12-1.996-0.998
		c-1.335-0.998-2.67-1.995-4.005-2.993C493.664,304.735,493.331,304.733,493,304.38z"/>
	<path fill-rule="evenodd" clip-rule="evenodd" fill="#4252B3" d="M558.998,338.381c1.603-0.486,1.522-1.259,0.714-2.58
		c-5.895-9.639-11.418-19.516-18.432-28.43c-4.615-5.865-10.07-11.273-13.611-17.729c-4.864-8.867-12.189-15.882-17.086-24.532
		c-5.511-9.734-13.381-17.885-18.131-28.094c-1.086-2.334-2.742-4.651-4.714-6.274c-5.299-4.361-7.691-10.751-11.727-15.977
		c-1.148-1.487-2.223-2.344-4.016-2.387c0.335-0.332,0.669-0.665,1.004-0.998c4.356-0.001,8.597-1.515,12.993-1.003
		c1.793-1.587,4.31,1.169,6.005-1.001v0.001c3.96-0.568,6.549,1.668,8.576,4.544c8.788,12.466,17.194,25.199,25.812,37.781
		c5.152,7.523,9.901,15.283,16.032,22.08c1.48,1.642,2.137,3.798,2.93,5.737c3.111,7.608,10.062,12.178,14.386,18.863
		c6.209,9.603,12.641,19.077,19.236,28.438c5.814,8.253,10.919,17.001,17.09,25.019c1.018,1.321,2.163,2.673,2.561,4.245
		c0.477,1.885,0.965,4.381-2.623,3.297c-9.334-5-18.667-10.001-28-15.001c-1.937-1.125-4.404-1.189-5.998-3
		c-0.334-0.333-0.668-0.666-1.002-0.999C560.226,339.819,558.401,340.311,558.998,338.381z"/>
	<path fill-rule="evenodd" clip-rule="evenodd" fill="#4252B3" d="M414.01,220.392c1.843,1.544,4.214,0.576,6.663,1.411
		c-1.794,1.747-1.8,3.327,0.028,5.032c5.382,5.02,8.518,11.699,12.197,17.857c2.992,5.007,7.007,9.171,9.951,14.158
		c3.505,5.936,7.246,11.711,11.781,16.989c2.242,2.609,2.304,5.761-1.631,7.541c-1.8,1.385-3.113,0.752-4.148-0.95
		c-0.125-0.277-0.14-0.547-0.037-0.759c-0.183,0.165-0.406,0.346-0.709,0.568c-1.955,0.826-3.628-0.02-5.25-0.836
		c-8.438-4.244-17.057-8.105-25.546-12.239c-2.849-1.387-5.5-3.065-7.31-5.786c-2.154-1.646-5.089-1.927-7.001-3.998
		c-7.637-9.649-13.517-20.542-21.305-30.084c-0.721-0.884-1.706-1.612-1.698-2.919c0.668-0.333,1.336-0.667,2.004-1
		C392.708,223.96,403.477,222.927,414.01,220.392z"/>
	<path fill-rule="evenodd" clip-rule="evenodd" fill="#4252B3" d="M426.992,219.376c-2.056,2.267-4.701,0.411-6.997,1.002
		C422.156,218.848,424.638,219.551,426.992,219.376z"/>
	<path fill-rule="evenodd" clip-rule="evenodd" fill="#4C5BB2" d="M467.777,209.076c0.793-0.823,1.669-0.854,2.567-0.288
		C469.614,209.833,468.659,209.053,467.777,209.076z"/>
	<path fill-rule="evenodd" clip-rule="evenodd" fill="#505FB0" d="M935,140.383c-0.001,0.332-0.003,0.664-0.005,0.995
		c-1.665,0.001-3.33,0.001-4.995,0.001c-0.344-0.457-0.766-0.862-0.958-1.423c-0.016-0.191-0.029-0.384-0.042-0.576
		c1.489-0.617,2.928-1.469,4.478-1.802C936.719,136.883,935.367,138.96,935,140.383z"/>
	<path fill-rule="evenodd" clip-rule="evenodd" fill="#505FB0" d="M929,141.382c-0.853,0.778-1.896,0.979-3,0.991
		c0.333-0.998,0.667-1.995,1-2.993c0.667,0,1.333,0,2,0C929.593,140.048,929.597,140.715,929,141.382z"/>
	<path fill-rule="evenodd" clip-rule="evenodd" fill="#505FB0" d="M929,136.38c0-0.333,0-0.667,0-1c1.12,0,2.24,0,4.101,0
		C931.4,136.675,930.268,136.844,929,136.38z"/>
	<path fill-rule="evenodd" clip-rule="evenodd" fill="#4A5BB1" d="M1437,296.38c0,0.333,0,0.667,0,1c0,22.41,0,44.819,0,67.229
		c-3.411-5.473-4.799-11.911-11.117-15.189c-1.703-0.884-1.021-3.945-2.446-5.795c-5.413-7.032-10.844-14.079-15.752-21.463
		c-2.624-3.949-4.557-8.29-7.696-12.021c-7.725-9.177-12.743-20.426-21.645-28.725c-2.09-1.949-0.547-4.94-2.445-6.858
		c-9.921-10.022-17.871-21.8-24.995-33.64c-6.758-11.232-16.096-20.574-21.819-32.365c-0.537-1.105-1.526-1.737-2.169-2.641
		c-2.294-3.223-6.626-5.076-6.295-10.147c0.128-1.971-2.129-3.383-3.723-4.45c-3.917-2.622-6.422-5.68-7.788-10.55
		c-1.014-3.614-4.789-6.448-7.144-9.823c-3.343-4.792-7.258-8.92-9.087-14.85c-0.951-3.081-4.168-5.857-6.483-8.471
		c-6.4-7.226-10.426-16.075-16.853-23.202c-2.267-2.515-5.184-4.5-4.938-8.685c0.114-1.959-2.128-3.39-3.732-4.438
		c-3.971-2.593-7.054-5.47-7.574-10.638c-0.285-2.833-5.166-3.446-4.303-7.287c0.001-0.331,0.003-0.662,0.005-0.992
		c1.345-0.655,2.771-1.093,4.182-1.571c0.496,0.01,0.984,0.088,1.463,0.217c2.307,0.853,4.723,0.848,7.132,0.878
		c5.074,0.173,10.122,0.772,15.064-1.391c3.214-1.407,5.188,1.093,6.935,3.347c1.268-0.082,1.043-1.123,1.266-1.805
		c0.576-1.758,1.686-2.895,3.576-2.912c1.883-0.019,3.035,1.183,3.752,2.793c1.43,3.214,3.44,5.874,6.754,7.349
		c0.418,0.252,0.759,0.585,1.049,0.973c2.86,8.49,7.433,15.974,13.242,22.765c1.051,1.229,2.278,1.8,3.73,2.164
		c0.422,0.244,0.776,0.562,1.06,0.958c0.573,7.244,5.655,12.324,9.657,17.427c6.072,7.74,10.357,16.645,16.801,24.073
		c1.368,1.577,2.998,1.89,4.805,2.138c5.184,1.967,6.629,7.201,9.267,11.192c7.007,10.599,15.029,20.461,21.98,31.084
		c0.473,4.008,4.345,5.859,5.866,9.2c1.467,2.232,3.439,4.091,4.792,6.411c0.595,2.461,1.767,4.543,3.935,5.973
		c1.155,0.872,1.676,2.141,2.184,3.419c0.58,1.542,0.987,3.18,2.386,4.275c1.087,1.377,2.274,2.654,3.597,3.809
		c0.868,0.751,1.545,1.644,2.013,2.691c1.672,1.812,2.337,4.41,4.553,5.797c0.844,0.848,1.339,1.874,1.57,3.035
		c0.753,2.367,1.957,4.446,3.878,6.073c2.566,2.501,4.361,5.475,5.493,8.863c-0.143,2.25,0.999,3.729,2.876,4.769
		c1.241,0.646,2.364,1.404,2.773,2.852c0.111,1.415,1.117,2.235,2.085,3.084C1432.91,286.158,1435.635,290.869,1437,296.38z"/>
	<path fill-rule="evenodd" clip-rule="evenodd" fill="#5261AD" d="M1254,92.38c-1.667,0-3.333,0-5,0.001c-1.979,0-3.959,0-5.938,0
		c-0.033-0.267-0.065-0.533-0.099-0.8c2.095,0,4.19,0,6.285,0c-7.218-1.176-8.128-7.952-11.115-12.381
		c-8.104-12.013-16.438-23.905-24.754-35.731c-3.217-4.575-4.081-12.055-11.314-13.832c-1.032-0.254-1.512-2.753-2.248-4.212
		c-3.273-6.48-8.153-11.813-12.508-17.522c-1.163-1.526-2.718-3.425,0.921-3.451c11.482-0.084,22.968-0.03,34.45,0.089
		c1.331,0.014,2.654,0.769,5.07,1.518c-2.266-3.046-4.502-2.646-6.508-2.655c-10.319-0.045-20.64,0.001-30.959-0.042
		c-2.248-0.01-4.633,0.351-7.262-1.98c16.168,0,31.573,0,46.979,0c8.307,9.932,14.618,21.239,21.986,31.816
		c6.518,9.357,13.89,18.158,19.892,27.822c5.397,8.691,13.013,15.843,17.122,25.359c-0.355,1.175-1.093,2.015-2.21,2.521
		C1275.975,91.126,1265.076,92.597,1254,92.38z"/>
	<path fill-rule="evenodd" clip-rule="evenodd" fill="#4B5CB1" d="M1286.995,87.378c0.668-0.334,1.337-0.667,2.005-1
		c9.667-1.333,19.333-2.665,29-3.997c0.667,0.333,1.333,0.666,2,0.999c-0.594,5.637,1.803,9.594,6.565,12.531
		c1.87,1.152,1.607,3.839,2.786,5.704c4.773,7.553,11.525,13.661,15.755,21.547c2.446,4.561,5.013,8.929,8.196,13.058
		c2.908,3.77,5.987,7.453,8.543,11.519c3.927,6.248,9.323,11.757,12.816,17.907c3.963,6.979,9.631,12.555,13.457,19.615
		c3.442,6.354,9.232,11.565,12.978,17.965c2.604,4.449,5.143,8.852,8.218,13.037c2.725,3.709,5.949,7.052,8.204,11.165
		c4.808,8.771,12.028,15.884,17.216,24.407c0.838,1.376,1.41,3.078,1.222,4.784c-0.921,8.299-0.245,16.622-0.455,24.931
		c-0.038,1.491,0.192,3.164-1.467,3.942c-1.948,0.914-3.173-0.444-4.132-1.822c-0.949-1.364-2.428-1.662-3.748-2.31
		c-0.403-0.305-0.789-0.631-1.154-0.98c-0.667-1-1.333-2-2-3c-0.064-0.206-0.13-0.412-0.195-0.617
		c-0.492-1.021-1.392-1.634-2.274-2.264c-0.72-0.556-0.934-1.476-1.53-2.119c-1.667-3-3.333-6-5-9c-0.143-2.794-1.689-4.651-4-6
		c-0.779-0.852-0.982-1.895-1-3c-0.655-2.843-2.322-4.843-5-6c-0.667-0.667-1.333-1.333-2-2c-0.847-1.717-0.146-4.558-3.325-4.58
		c-1.984-0.325-2.062-2.697-3.675-3.42c-0.333-1.333-0.667-2.667-1-4c-0.301-2.688-2.015-4.435-4-6c-2.387-1.4-3.9-3.527-5-6
		c-0.049-4.301-3.264-6.49-6-9c-8.835-12.402-18.408-24.286-26.142-37.464c-0.989-1.687-2.558-3.032-3.858-4.536
		c-4.579-2.516-6.654-7.296-9.753-11.098c-4.279-5.249-7.604-11.228-11.542-16.77c-3.874-5.451-8.445-10.617-10.705-17.133
		c-8.078-7.228-13.221-16.488-18-26c-0.928-0.363-1.869-0.715-2.39-1.657C1294.165,94.297,1291.141,90.362,1286.995,87.378z"/>
	<path fill-rule="evenodd" clip-rule="evenodd" fill="#5362AC" d="M1404.156,64.309c-1.422,0.876-2.694,1.563-4.331,0.18
		C1401.313,63.424,1402.705,64.69,1404.156,64.309z"/>
	<path fill-rule="evenodd" clip-rule="evenodd" fill="#485AB2" d="M1149,108.381c-2.143,1.335-4.562,1.702-7,1.999
		c-1.667,0-3.334-0.001-5.001-0.001C1140.876,108.971,1144.929,108.622,1149,108.381z"/>
	<path fill-rule="evenodd" clip-rule="evenodd" fill="#485AB2" d="M1156,108.38c-2.001,1.272-4.002,0.467-6.003-0.001
		c1.826-1.383,3.964-0.893,6.003-0.999C1156,107.714,1156,108.047,1156,108.38z"/>
	<path fill-rule="evenodd" clip-rule="evenodd" fill="#4F5EB0" d="M895,147.38c-8.111,0.67-16.036,2.464-24.003,3.998
		c-15.412,0.853-30.439,4.459-45.698,6.387c-13.457,1.699-26.729,4.713-40.294,5.617c-2.634,0.661-3.962-2.143-6.455-2.287
		c1.114-1.312,2.604-0.278,3.453-0.819c-2.782-7.788-10.343-12.265-13.572-19.829c-0.659-1.542-2.925-2.357-3.725-3.887
		c-5.628-10.762-15.544-18.561-20.287-30.013c-1.782-4.304-5.086-8.128-8.244-11.685c-8.228-9.264-12.43-21.485-22.038-29.693
		c-0.851-6.782-8.437-9.237-9.966-15.928c-0.834-3.647-5.008-5.968-7.411-9.17c-8.004-10.66-14.118-22.579-22.341-33.087
		c-0.81-1.033-3.681-0.399-2.519-3.119c1.181-2.764,3.479-1.407,5.167-1.411C717.712,2.358,758.355,2.38,799,2.38
		c12.938,17.766,24.976,36.16,38.052,53.837c9.41,12.72,17.942,26.075,27.166,38.951c9.026,12.601,17.448,25.645,26.723,38.083
		c0.585,0.785,1.368,1.423,2.06,2.129c1.295,1.844,3.041,3.282,4.447,5.053c2.265,2.851,1.514,4.568-1.446,5.949
		c-0.001,0.331-0.003,0.663-0.006,0.995C895.664,147.685,895.333,147.701,895,147.38z"/>
	<path fill-rule="evenodd" clip-rule="evenodd" fill="#505FB0" d="M896.001,146.382c1.327-2.039,1.504-3.84-0.306-5.896
		c-1.236-1.404-1.82-3.383-2.695-5.105c4.5,1.866,6.877,5.431,8,9.999c-0.785,0.977-2.208,0.036-2.998,0.997
		C897.335,146.378,896.668,146.38,896.001,146.382z"/>
	<path fill-rule="evenodd" clip-rule="evenodd" fill="#505FB0" d="M916.002,143.381c-1.493,1.206-3.276,0.954-5.002,0.995
		C912.17,141.545,914.353,143.799,916.002,143.381z"/>
	<path fill-rule="evenodd" clip-rule="evenodd" fill="#4F5EB0" d="M898.002,146.376c0.852-0.777,1.895-0.978,2.998-0.997
		c0.668,0.001,1.335,0.001,2.002,0.002C901.51,146.587,899.727,146.336,898.002,146.376z"/>
	<path fill-rule="evenodd" clip-rule="evenodd" fill="#505FB0" d="M922.001,142.382c-1.166,1.003-2.584,0.994-3.999,0.995
		C919.181,142.427,920.427,141.743,922.001,142.382z"/>
	<path fill-rule="evenodd" clip-rule="evenodd" fill="#4D5CB2" d="M524.254,28.944c0.224,0.166,0.447,0.332,0.67,0.497
		c-0.165,0.198-0.335,0.561-0.496,0.557c-0.229-0.005-0.453-0.278-0.68-0.437C523.912,29.36,524.077,29.16,524.254,28.944z"/>
	<path fill-rule="evenodd" clip-rule="evenodd" fill="#485AB2" d="M1323,346.38c-1.37-0.222-2.836-0.781-3.318-1.963
		c-2.004-4.914-8.878-5.865-9.529-11.892c-0.074-0.681-1.348-1.413-2.209-1.798c-5.959-2.662-6.039-3.154-0.943-7.348
		C1312.967,330.606,1318.413,338.194,1323,346.38z"/>
	<path fill-rule="evenodd" clip-rule="evenodd" fill="#485AB2" d="M1249,240.38c-1.212-0.505-3.027-0.67-3.535-1.572
		c-2.808-4.984-7.157-7.65-13.416-8.799c2.362-2.083,5.084-2.278,5.951-4.629C1242.003,230.133,1245.882,234.978,1249,240.38z"/>
	<path fill-rule="evenodd" clip-rule="evenodd" fill="#485AB2" d="M1305,320.38c-1.212-0.505-2.964-0.665-3.544-1.573
		c-3.001-4.7-6.704-8.246-13.952-8.318c2.906-2.562,5.629-2.758,6.496-5.108C1298.003,310.133,1301.881,314.979,1305,320.38z"/>
	<path fill-rule="evenodd" clip-rule="evenodd" fill="#485AB2" d="M1204,178.38c-1.13-0.194-2.986-0.042-3.271-0.64
		c-1.915-4.012-4.367-6.809-8.696-8.913c-2.433-1.184,1.193-3.897,2.968-5.447c1.667,2.333,3.333,4.667,5,7
		C1200.701,173.363,1203.49,175.302,1204,178.38z"/>
	<path fill-rule="evenodd" clip-rule="evenodd" fill="#485AB2" d="M1255,254.38c-0.343-1.762-1.309-2.976-2.993-3.694
		c-6.062-2.589-6.121-3.092-1.007-7.306c2.812,2.998,5.536,6.058,7,10C1257.232,254.41,1256.364,255.14,1255,254.38z"/>
	<path fill-rule="evenodd" clip-rule="evenodd" fill="#485AB2" d="M1179,148.38c1.283-0.717,2.283-1.717,3-3c3.667,5,7.333,10,11,15
		c-1.656-0.304-3.543-0.727-4.27-2.202c-2.063-4.189-5.377-6.585-9.73-7.798C1178.384,149.713,1178.387,149.047,1179,148.38z"/>
	<path fill-rule="evenodd" clip-rule="evenodd" fill="#485AB2" d="M1161,117.38c-0.333-1.333-0.667-2.667-1-4
		c3.418,3.12,5.695,7.07,8,11c-2.484-0.647-4.839-1.598-7-3C1160.006,120.047,1160.27,118.713,1161,117.38z"/>
	<path fill-rule="evenodd" clip-rule="evenodd" fill="#485AB2" d="M1223,203.38c-0.807-0.202-1.605-0.543-2.42-0.584
		c-4.113-0.203-5.752-1.851-3.776-5.948c0.334-0.692,0.145-1.639,0.196-2.468C1219.33,197.16,1221.752,199.879,1223,203.38z"/>
	<path fill-rule="evenodd" clip-rule="evenodd" fill="#485AB2" d="M1267,266.38c-4.385-0.948-5.225-5.441-8-8
		c-0.562-1.114,0.089-1.622,1-2C1263.363,258.992,1265.084,262.754,1267,266.38z"/>
	<path fill-rule="evenodd" clip-rule="evenodd" fill="#485AB2" d="M1175,134.38c-4.553-1.274-6.742-4.387-7-9
		C1171.131,127.759,1173.117,131.029,1175,134.38z"/>
	<path fill-rule="evenodd" clip-rule="evenodd" fill="#485AB2" d="M1279,283.38c-1.333-0.333-2.667-0.667-4-1
		c-0.942-1.058-2.231-1.769-3-3c0.806-1.572,1.053-3.256,1-5C1275.33,277.16,1277.751,279.879,1279,283.38z"/>
	<path fill-rule="evenodd" clip-rule="evenodd" fill="#485AB2" d="M1204,178.38c-2.902-1.882-3.824-4.754-4-8
		c2.499,3.217,5.393,6.158,7,10c-0.667,0.644-1.333,0.562-2,0C1204.667,179.713,1204.333,179.047,1204,178.38z"/>
	<path fill-rule="evenodd" clip-rule="evenodd" fill="#485AB2" d="M1260,256.38c-0.333,0.667-0.667,1.333-1,2c-2.667,0-4-1.333-4-4
		c1-0.333,2-0.667,3-1C1258.667,254.38,1259.333,255.38,1260,256.38z"/>
	<path fill-rule="evenodd" clip-rule="evenodd" fill="#485AB2" d="M1231,214.38c-3.703-0.879-4.705-3.688-5-7
		C1228.164,209.358,1230.085,211.51,1231,214.38z"/>
	<path fill-rule="evenodd" clip-rule="evenodd" fill="#485AB2" d="M1287,294.38c-3.704-0.878-4.704-3.688-5-7
		C1284.164,289.358,1286.085,291.51,1287,294.38z"/>
	<path fill-rule="evenodd" clip-rule="evenodd" fill="#485AB2" d="M1205,180.38c0.667,0,1.333,0,2,0c1.469,1.909,3.482,3.456,4,6
		C1207.71,185.67,1206.334,183.046,1205,180.38z"/>
	<path fill-rule="evenodd" clip-rule="evenodd" fill="#4657B2" d="M969,286.38c0.953-0.22,2.481-1.338,2.666,0.146
		c0.166,1.34-1.715,0.593-2.666,0.854C969,287.047,969,286.713,969,286.38z"/>
	<path fill-rule="evenodd" clip-rule="evenodd" fill="#4657B2" d="M1009,307.38c-0.333,0-0.667,0-1,0
		c-6.293-2.553-7.926-8.434-10-14c-1.974-0.603-2.463-2.32-3-4c-5.273-3.599-7.409-9.629-11.146-14.42
		c-8.554-10.968-15.454-23.132-24.436-33.808c-1.99-2.364-3.977-4.951-4.204-8.299c-0.1-1.464-0.908-2.66-1.956-3.353
		c-5.244-3.463-7.646-9.012-10.963-13.983c-5.956-8.927-12.977-17.167-18.613-26.275c-3.675-5.938-9.073-10.659-11.761-17.155
		c-1.776-4.292-6.652-6.139-7.922-10.707c1.873-1.559,3.4-0.737,4.7,0.794c4.583,5.396,8.29,11.419,12.238,17.269
		c2.34,3.466,5.401,6.538,6.062,10.938c2.535-0.894,4.266,0.378,5.424,2.357c5.6,9.571,12.61,18.134,19.151,27.032
		c0.197,0.268,0.394,0.539,0.554,0.83c6.708,12.213,16.253,22.467,23.645,34.143c2.876,4.543,7.742,8.394,7.896,14.535
		c8.148,5.364,11.327,14.707,17.262,21.866C1004.721,295.717,1010.428,299.964,1009,307.38z"/>
	<path fill-rule="evenodd" clip-rule="evenodd" fill="#4657B2" d="M927,190.38c-4.081-7.351-10.182-13.291-14.245-20.706
		c-1.911-3.489-4.648-6.79-8.755-8.294c-0.333-0.667-0.667-1.333-1-2c-0.976-2.238-1.961-4.471-4-6c0.667-1,1.333-2,2-3
		c7.896,7.191,12.722,16.785,19.324,25c2.124,2.643,3.272,6.257,5.754,8.937C927.649,186.013,927.804,188.188,927,190.38z"/>
	<path fill-rule="evenodd" clip-rule="evenodd" fill="#4657B2" d="M895,147.38c0.332-0.002,0.664-0.003,0.995-0.003
		c0.335,0.334,0.67,0.669,1.005,1.003c-0.769,0.617-1.582,1.223-2.562,0.578C894.327,148.886,894.799,147.928,895,147.38z"/>
	<path fill-rule="evenodd" clip-rule="evenodd" fill="#505FAF" d="M929,141.382c0-0.667,0-1.334,0-2.002
		c0.803,0.097,2.102-0.062,2.31,0.342c0.481,0.933-0.962,0.987-1.31,1.657C929.667,141.38,929.333,141.381,929,141.382z"/>
	<path fill-rule="evenodd" clip-rule="evenodd" fill="#4657B2" d="M995,289.38c1,1.333,2,2.667,3,4
		c-0.763,0.285-1.547,0.521-2.281,0.866c-0.897,0.422-1.827,1.032-2.671,0.102c-1.102-1.215-0.044-2.021,0.687-2.91
		C994.241,290.821,994.584,290.07,995,289.38z"/>
	<path fill-rule="evenodd" clip-rule="evenodd" fill="#4657B2" d="M899,153.38c3.318,0.677,4.098,3.046,4,6
		C900.97,157.845,899.684,155.812,899,153.38z"/>
	<path fill-rule="evenodd" clip-rule="evenodd" fill="#4657B2" d="M993.706,310.705c-0.389,0.463-0.61,0.984-0.954,1.084
		c-0.736,0.214-1.284-0.233-1.194-0.99c0.04-0.336,0.577-0.816,0.928-0.853C992.819,309.911,993.204,310.37,993.706,310.705z"/>
	<path fill-rule="evenodd" clip-rule="evenodd" fill="#4657B2" d="M1001.52,327.276c-0.258,0.101-0.784,0.484-1.013,0.352
		c-0.296-0.171-0.43-0.745-0.473-1.162c-0.013-0.128,0.512-0.453,0.774-0.438C1001.367,326.062,1001.658,326.452,1001.52,327.276z"
		/>
	<path fill-rule="evenodd" clip-rule="evenodd" fill="#4657B2" d="M945.61,246.943c-0.194,0.207-0.38,0.403-0.564,0.6
		c-0.194-0.313-0.389-0.626-0.583-0.938c0.235-0.127,0.527-0.403,0.691-0.342C945.359,246.34,945.459,246.696,945.61,246.943z"/>
	<path fill-rule="evenodd" clip-rule="evenodd" fill="#485AB2" d="M1269,294.38c1.52-0.84,2.979-2.53,4.774-0.532
		c1.606,1.788,1.059,3.29-0.774,4.532C1270.756,297.957,1269.422,296.624,1269,294.38z"/>
	<path fill-rule="evenodd" clip-rule="evenodd" fill="#485AB2" d="M1259,278.38c0.983-1.508,2.212-2.134,3.642-0.657
		c2.011,2.077,0.927,3.923-0.642,5.657C1260.665,281.914,1259.383,280.417,1259,278.38z"/>
	<path fill-rule="evenodd" clip-rule="evenodd" fill="#485AB2" d="M1214,216.38c0.584-1.807,0.7-4.242,3.638-3.232
		c0.555,0.191,1.152,1.325,1.111,1.986c-0.148,2.388-2.348,1.72-3.749,2.246C1214.667,217.047,1214.333,216.713,1214,216.38z"/>
	<path fill-rule="evenodd" clip-rule="evenodd" fill="#485AB2" d="M1203,198.38c1.35-1.163,2.882-2.895,4.328-0.476
		c1.309,2.19-0.129,3.258-2.328,3.476C1203.836,200.712,1203.174,199.709,1203,198.38z"/>
	<path fill-rule="evenodd" clip-rule="evenodd" fill="#485AB2" d="M1152,121.38c-0.333,1-0.667,2-1,3c-2.03-1.535-3.316-3.567-4-6
		c0.333,0,0.667,0,1,0C1151.198,116.894,1150.504,120.598,1152,121.38z"/>
	<path fill-rule="evenodd" clip-rule="evenodd" fill="#485AB2" d="M1263,285.38c0.957-0.23,1.938-0.716,2.865-0.63
		c1.311,0.121,3.043,0.679,2.499,2.349c-0.618,1.896-2.182,0.607-3.364,0.281C1264.333,286.713,1263.667,286.047,1263,285.38z"/>
	<path fill-rule="evenodd" clip-rule="evenodd" fill="#485AB2" d="M1208,206.38c2.03-1.376,3.801-1.249,5.719,0.772
		c-2.284,1.615-3.238-0.814-4.719-0.772C1208.667,206.38,1208.333,206.38,1208,206.38z"/>
	<path fill-rule="evenodd" clip-rule="evenodd" fill="#485AB2" d="M1158,136.38c0.333-0.667,0.667-1.333,1-2
		c2.129-0.795,2.746-0.079,2,2c-0.667,0.333-1.333,0.667-2,1C1158.667,137.047,1158.333,136.713,1158,136.38z"/>
	<path fill-rule="evenodd" clip-rule="evenodd" fill="#4758B3" d="M953.18,141.528c-2.354,0.849-4.687,1.195-6.908-0.771
		C948.574,141.015,950.877,141.271,953.18,141.528z"/>
	<path fill-rule="evenodd" clip-rule="evenodd" fill="#485AB2" d="M1161,136.38c-0.253-1.08-0.92-1.747-2-2
		c0.726-1.848,1.984-2.326,3.22-0.71C1163.06,134.77,1163.906,136.613,1161,136.38z"/>
	<path fill-rule="evenodd" clip-rule="evenodd" fill="#485AB2" d="M1272,279.38c1.968,0.032,2.968,1.032,3,3
		C1273.16,282.22,1271.143,282.237,1272,279.38z"/>
	<path fill-rule="evenodd" clip-rule="evenodd" fill="#485AB2" d="M1152,121.38c-1.5-0.778-2.164-2.671-4-3
		C1150.29,116.662,1150.587,116.885,1152,121.38z"/>
	<path fill-rule="evenodd" clip-rule="evenodd" fill="#485AB2" d="M1153.188,126.34c1.781-0.978,3.234-1.255,4.195,0.914
		C1155.539,128.47,1154.555,125.851,1153.188,126.34z"/>
	<path fill-rule="evenodd" clip-rule="evenodd" fill="#485AB2" d="M1179,148.38c0,0.667,0,1.333,0,2
		c-1.109,0.342-2.458,0.668-2.458-1S1177.891,148.038,1179,148.38z"/>
	<path fill-rule="evenodd" clip-rule="evenodd" fill="#485AB2" d="M1161,117.38c0,1.333,0,2.667,0,4
		C1158.211,120.047,1160.01,118.713,1161,117.38z"/>
	<path fill-rule="evenodd" clip-rule="evenodd" fill="#4858B2" d="M410,263.379c10.143,4.738,20.278,9.489,30.431,14.206
		c2.832,1.316,5.711,2.533,8.568,3.795l0,0c1.085,1.163,2.455,1.759,4.001,2.001c5.333,2.999,10.667,5.999,16,8.998
		c-0.977,2.86,0.185,4.569,2.189,6.884c4.937,5.7,9.584,11.792,13.403,18.282c4.348,7.388,9.438,14.217,14.145,21.329
		c3.895,5.884,7.641,11.839,12.076,17.366c1.734,2.161,3.123,4.515,5.184,6.532c2.465,2.414,5.819,4.67,5.162,9.076
		c-0.099,0.659,0.498,1.586,1.028,2.149c3.606,3.832,7.216,7.546,10.126,12.085c2.062,3.214,3.003,4.377-1.456,5.321
		c17.73,0,35.461,0,53.19,0c0,0.325-0.001,0.65-0.002,0.976c-28.349,0-56.697,0-85.046,0c-6.393-9.079-12.564-18.323-19.231-27.195
		c-9.07-12.071-17.134-24.812-25.657-37.247c-7.991-11.659-16.394-23.036-24.484-34.628c-5.874-8.416-12.56-16.247-17.893-25.053
		C410.797,266.709,409.248,265.486,410,263.379z"/>
	<path fill-rule="evenodd" clip-rule="evenodd" fill="#4151B3" d="M379.996,226.378c1.701-0.002,3.076,0.297,4.19,1.959
		c6.357,9.483,12.862,18.869,19.287,28.309c0.659,0.969,1.304,2.107-0.474,2.735c-13.146-5.988-26.344-11.869-39.418-18.01
		c-6.897-3.239-14.317-5.424-20.572-9.987c10.185-1.467,20.367-2.951,30.556-4.386C375.696,226.698,377.852,226.58,379.996,226.378z
		"/>
	<path fill-rule="evenodd" clip-rule="evenodd" fill="#4858B2" d="M498.004,307.379c0.665,0.332,1.331,0.665,1.996,0.998
		c0.219,0.857,0.28,1.831-0.972,1.364c-0.979-0.366-2.639-0.326-2.372-2.121C496.678,307.477,497.535,307.456,498.004,307.379z"/>
	<path fill-rule="evenodd" clip-rule="evenodd" fill="#4252B3" d="M547,332.38c2.321,0.357,4.863,0.273,6,3
		C550.742,334.896,548.703,333.974,547,332.38z"/>
	<path fill-rule="evenodd" clip-rule="evenodd" fill="#4858B2" d="M493,304.38c0.333,0.001,0.666,0.003,0.999,0.006
		c-0.492,1.437-1.437,2.141-2.951,1.633c-0.332-0.111-0.799-0.885-0.722-0.987C491.011,304.13,492.07,304.482,493,304.38z"/>
	<path fill-rule="evenodd" clip-rule="evenodd" fill="#4252B3" d="M553,335.38c2.07,0.016,3.617,0.73,4,2.998
		c-0.668-0.333-1.335-0.666-2.002-0.998C554.332,336.713,553.666,336.047,553,335.38z"/>
	<path fill-rule="evenodd" clip-rule="evenodd" fill="#4253B3" d="M595.998,359.381c3.078-1.745,0.301-2.996-0.491-4.161
		c-10.875-16.012-21.814-31.979-32.757-47.945c-4.291-6.259-8.016-12.948-14.004-17.903c-2.606-2.157-3.759-5.374-5.195-8.3
		c-4.032-8.214-10.752-14.483-15.672-22.074c-9.533-14.71-19.442-29.179-29.313-43.668c-1.663-2.44-3.817-4.589-6.567-5.952
		c6.112-2.401,12.607-2.38,19.002-2.998c1.433,5.333,5.805,8.776,8.658,13.193c6.789,10.507,14.253,20.576,21.369,30.874
		c9.013,13.043,17.529,26.458,27.092,39.083c5.279,6.972,11.016,13.778,15.509,21.145c8.018,13.145,17.78,25.031,25.938,38.077
		c4.472,7.152,9.279,14.44,15.094,20.806c1.811,1.982,3.897,3.964,1.338,6.827C615.46,371.664,605.878,365.259,595.998,359.381z"/>
	<path fill-rule="evenodd" clip-rule="evenodd" fill="#4858B3" d="M562,341.38c2.259,0.481,4.297,1.404,5.998,3
		c-1.444-0.102-3-0.599-4.312-0.23C559.339,345.366,561.855,342.711,562,341.38z"/>
	<path fill-rule="evenodd" clip-rule="evenodd" fill="#4858B3" d="M558.998,338.381c0.666,0.667,1.333,1.334,2,2
		c-2.109,0.889-3.082-0.498-3.998-1.998C557.666,338.383,558.332,338.382,558.998,338.381z"/>
	<path fill-rule="evenodd" clip-rule="evenodd" fill="#4B5AB4" d="M252.237,45.677c-0.261,0.111-0.534,0.329-0.769,0.294
		c-0.154-0.023-0.254-0.412-0.377-0.638c0.254-0.117,0.522-0.343,0.758-0.312C252,45.04,252.104,45.435,252.237,45.677z"/>
	<path fill-rule="evenodd" clip-rule="evenodd" fill="#4B5CB1" d="M1426,280.38c3.377-0.681,4.873,2.159,6.902,3.981
		c1.752-1.467,0.989-3.243,1.07-4.783c0.399-7.62-0.511-15.255,0.769-22.891c0.836-4.99-3.187-8.507-5.962-11.599
		c-7.489-8.348-12.886-18.108-19.449-27.055c-9.654-13.163-17.699-27.528-27.635-40.456c-5.71-7.431-10.941-15.197-16.537-22.692
		c-5.844-7.827-12.896-15.232-17.042-23.757c-5.913-12.158-16.481-20.859-21.87-33.102c-0.442-1.004-1.334-1.959-2.257-2.578
		c-4.5-3.018-5.931-6.964-3.989-12.069c0.333,0,0.667,0,1,0c0.678,0.334,0.678,0.667,0,1c0.045,4.967,2.414,8.273,6.8,10.627
		c2.08,1.116,1.248,4.212,2.774,6.172c5.445,6.994,10.888,14.028,15.737,21.436c2.688,4.104,4.717,8.586,7.987,12.406
		c7.784,9.093,12.345,20.587,21.271,28.863c0.403,7.239,8.248,9.522,10.399,15.937c1.974,5.885,7.742,9.666,10.993,15.068
		c2.646,4.396,6.544,7.798,7.931,13.258c0.892,3.512,4.431,6.525,6.954,9.303c7.567,8.325,11.712,18.979,19.785,27.044
		c3.355,3.353,5.627,9.043,5.467,14.952c-0.335,12.304-0.101,24.622-0.1,36.935c-4.071-3.766-5.619-9.473-10-13
		C1426.248,282.52,1425.424,281.683,1426,280.38z"/>
	<path fill-rule="evenodd" clip-rule="evenodd" fill="#4B5CB1" d="M1321,84.38c0-0.333,0-0.666,0-1
		c1.107,0.172,2.324-0.384,3.376,0.5C1323.324,84.764,1322.107,84.208,1321,84.38z"/>
	<path fill-rule="evenodd" clip-rule="evenodd" fill="#4252B4" d="M491.998,209.376c-1.49,3.406-4.03,0.503-6.005,1.001
		C487.819,208.993,489.959,209.485,491.998,209.376z"/>
	<path fill-rule="evenodd" clip-rule="evenodd" fill="#4C5BB3" d="M388.94,37.426c-0.176,0.213-0.343,0.573-0.5,0.569
		c-0.229-0.006-0.451-0.274-0.676-0.431c0.163-0.2,0.325-0.561,0.487-0.562C388.479,37.003,388.708,37.271,388.94,37.426z"/>
	<path fill-rule="evenodd" clip-rule="evenodd" fill="#4C5BB3" d="M394.415,45.228c-0.243,0.132-0.47,0.256-0.697,0.38
		c-0.115-0.255-0.336-0.523-0.307-0.761c0.018-0.149,0.412-0.252,0.637-0.376C394.169,44.723,394.292,44.975,394.415,45.228z"/>
	<path fill-rule="evenodd" clip-rule="evenodd" fill="#4C5BB3" d="M444.94,117.426c-0.176,0.213-0.343,0.573-0.5,0.569
		c-0.229-0.006-0.451-0.274-0.677-0.431c0.162-0.2,0.324-0.561,0.487-0.562C444.479,117.003,444.708,117.271,444.94,117.426z"/>
	<path fill-rule="evenodd" clip-rule="evenodd" fill="#4C5BB3" d="M449.365,125.217c0.11-0.274,0.212-0.53,0.314-0.787
		c0.232,0.154,0.59,0.267,0.66,0.476c0.066,0.197-0.169,0.496-0.271,0.751C449.834,125.509,449.599,125.362,449.365,125.217z"/>
	<path fill-rule="evenodd" clip-rule="evenodd" fill="#4252B4" d="M448.999,281.38c0.969-0.879,1.92-1.798,3.875-1.58
		C451.754,281.348,450.32,281.244,448.999,281.38L448.999,281.38z"/>
	<path fill-rule="evenodd" clip-rule="evenodd" fill="#4A5BB1" d="M1286.995,87.378c6.725,1.82,9.371,7.404,12.005,13.002
		c-4.994,0.546-5.468-4.27-7.855-6.765c-0.707-0.739-0.663-2.226-1.885-2.722c-0.83-0.336-1.67-0.195-2.242,0.521
		c-0.482,0.604-0.285,1.263,0.303,1.709c1.278,0.968,3.527,2.127,1.019,3.533c-2.173,1.218-5.959,2.054-6.873-1.076
		c-1.437-4.918-3.42-3.435-6.349-1.833c-4.351,2.38-8.771,0.87-13.117-0.367c-2.538-1.352-5.457,0.351-7.995-0.999L1254,92.38
		C1264.892,90.011,1275.896,88.382,1286.995,87.378z"/>
	<path fill-rule="evenodd" clip-rule="evenodd" fill="#4A5BB1" d="M1317,126.38c3.871,2.98,5.964,7.359,8.678,11.222
		c7.866,11.195,15.561,22.511,23.322,33.778c-7.067-0.862-8.785-7.439-12.257-11.908c-5.758-7.412-9.632-16.213-16.584-22.795
		C1317.191,133.867,1318.365,129.719,1317,126.38z"/>
	<path fill-rule="evenodd" clip-rule="evenodd" fill="#4A5BB1" d="M1299,100.38c6.061,8.624,12.957,16.671,18,26
		c-5.51-0.34-7.472-5.385-10.039-8.725C1303.14,112.685,1300.167,106.822,1299,100.38z"/>
	<path fill-rule="evenodd" clip-rule="evenodd" fill="#4B5CB1" d="M1404,248.38c0.75-0.281,1.539-0.487,2.239-0.859
		c1.171-0.622,2.353-1.302,3.568-0.302c1.397,1.148,0.856,2.62,0.388,4.004c-0.361,1.064-0.794,2.105-1.195,3.157
		C1405.907,253.568,1404.934,250.991,1404,248.38z"/>
	<path fill-rule="evenodd" clip-rule="evenodd" fill="#4A5BB1" d="M1297.723,113.047c-1.9-0.146-3.18-1.135-3.317-2.975
		c-0.141-1.884,1.078-3.14,2.901-3.284c1.881-0.149,3.133,1.072,3.286,2.897C1300.752,111.586,1299.463,112.598,1297.723,113.047z"
		/>
	<path fill-rule="evenodd" clip-rule="evenodd" fill="#4A5BB1" d="M1283.497,133.015c-0.243,1.575-1.092,2.237-2.421,1.941
		c-1.65-0.367-2.352-1.703-2.512-3.239c-0.121-1.162,0.642-1.908,1.788-1.771C1282.198,130.166,1283.134,131.43,1283.497,133.015z"
		/>
	<path fill-rule="evenodd" clip-rule="evenodd" fill="#4B5CB1" d="M1379,213.38c5.393,1.6,7.872,5.319,6,9
		C1383,219.38,1381,216.38,1379,213.38z"/>
	<path fill-rule="evenodd" clip-rule="evenodd" fill="#4B5CB1" d="M1390,228.38c3.53,0.535,6.073,1.729,4,6
		C1391.222,233.343,1390.52,230.923,1390,228.38z"/>
	<path fill-rule="evenodd" clip-rule="evenodd" fill="#4B5CB1" d="M1410,257.38c4.457-0.082,5.875,1.861,4,6
		C1411.97,261.845,1410.684,259.813,1410,257.38z"/>
	<path fill-rule="evenodd" clip-rule="evenodd" fill="#4B5CB1" d="M1399,241.38c4.012-0.131,4.08-0.016,3,5c-1-1.333-2-2.667-3-4
		c-0.359-0.223-0.479-0.444-0.359-0.667C1398.76,241.491,1398.879,241.38,1399,241.38z"/>
	<path fill-rule="evenodd" clip-rule="evenodd" fill="#4A5BB1" d="M1419,272.38c0.667,0.333,1.333,0.667,2,1
		c1.541,0.896,2.576,2.045,2,4C1420.271,276.829,1419.051,275.072,1419,272.38z"/>
	<path fill-rule="evenodd" clip-rule="evenodd" fill="#4A5BB2" d="M1254.005,92.381c2.677,0.235,5.495-0.66,7.995,0.999
		C1259.323,93.142,1256.504,94.04,1254.005,92.381z"/>
	<path fill-rule="evenodd" clip-rule="evenodd" fill="#4A5BB1" d="M1399,241.38c0,0.333,0,0.667,0,1c-2.354-0.312-3.115-2.219-4-4
		C1396.837,238.709,1397.5,240.602,1399,241.38z"/>
	<path fill-rule="evenodd" clip-rule="evenodd" fill="#4A5BB1" d="M1426,280.38c0.333,1,0.667,2,1,3c-1.543-0.416-1.965-1.579-2-3
		C1425.333,280.38,1425.667,280.38,1426,280.38z"/>
	<path fill-rule="evenodd" clip-rule="evenodd" fill="#4B5CB1" d="M1423,277.38c-0.667-1.333-1.333-2.667-2-4
		C1423.74,273.677,1424.58,274.923,1423,277.38z"/>
</g>
</svg>
