<?xml version="1.0" encoding="utf-8"?>
<!-- Generator: Adobe Illustrator 16.0.0, SVG Export Plug-In . SVG Version: 6.00 Build 0)  -->
<!DOCTYPE svg PUBLIC "-//W3C//DTD SVG 1.1//EN" "http://www.w3.org/Graphics/SVG/1.1/DTD/svg11.dtd">
<svg version="1.1" id="Layer_1" xmlns="http://www.w3.org/2000/svg" xmlns:xlink="http://www.w3.org/1999/xlink" x="0px" y="0px"
	 width="281.73px" height="257.594px" viewBox="0 0 281.73 257.594" enable-background="new 0 0 281.73 257.594"
	 xml:space="preserve">
<g>
	<path fill="#00B9BB" d="M121.97,235.915c25.499,0,50.998,0.012,76.497-0.006c11.678-0.008,16.103-3.334,19.493-14.484
		c15.963-52.5,31.928-105,47.911-157.495c0.929-3.05,1.622-6.13,1.496-9.322c-0.105-2.666,0.929-2.631,2.967-1.684
		c7.854,3.649,13.137,13.795,10.867,23.148c-2.74,11.298-6.272,22.409-9.646,33.546c-12.1,39.943-24.296,79.857-36.419,119.793
		c-5.466,18.006-18.3,28.008-37.191,28.064c-49.496,0.146-98.995,0.172-148.492-0.006c-22.248-0.079-41.274-15.67-45.938-36.562
		c-1.756-7.869,1.687-15.105,1.883-22.703c0.03-1.156,0.708-2.447,0.376-3.438c-2.471-7.386,1.678-12.503,5.403-18.138
		c5.716-8.642,11.697-18.248,11.869-28.233c0.229-13.431,8.923-22.457,12.854-33.787c2.833-8.162,6.479-16.075,4.682-25.137
		c-0.607-3.062,1.546-5.302,3.569-7.352c9.31-9.425,14.633-21.469,15.105-33.949c0.328-8.659,3.21-14.459,7.663-20.919
		c3.348-4.857,5.104-10.791,7.769-16.146C79.181,2.072,84.258-0.74,93.96,0.959c4.613,0.808,8.812-0.971,13.28-0.959
		c40.497,0.108,80.995,0.041,121.493,0.075c13.91,0.013,22.561,5.803,25.663,16.961c1.389,4.99,0.883,9.954-0.576,14.776
		c-15.947,52.679-31.944,105.345-47.994,157.992c-1.015,3.327-2.637,6.468-3.873,9.733c-5.024,13.256-16.214,14.959-28.201,14.971
		c-46.498,0.043-92.996,0.016-139.494,0.023c-1.998,0-4.006-0.013-5.991,0.178c-5.555,0.531-7.567,3.635-5.817,8.951
		c2.166,6.58,7.297,9.656,13.611,11.157c3.903,0.927,7.895,1.121,11.912,1.114C72.639,235.895,97.305,235.915,121.97,235.915z"/>
	<path fill="#FEFEFE" d="M160.446,43.064c16.149-0.001,32.299-0.018,48.447,0.008c6.277,0.01,7.47,1.645,5.678,7.566
		c-4.161,13.751-4.343,13.886-18.633,13.886c-29.801,0-59.602,0.007-89.401-0.005c-7.629-0.003-8.667-1.428-6.329-8.528
		c0.675-2.051,1.335-4.105,2.041-6.146c1.599-4.623,4.655-6.881,9.751-6.835C128.147,43.155,144.297,43.064,160.446,43.064z"/>
	<path fill="#FEFEFE" d="M146.716,85.914c16.16,0,32.32-0.021,48.479,0.01c6.199,0.012,7.321,1.64,5.467,7.667
		c-4.229,13.741-4.487,13.934-18.696,13.934c-29.321-0.001-58.642,0.006-87.963-0.016c-1.822-0.002-3.663-0.096-5.46-0.373
		c-2.911-0.45-3.837-2.312-3.185-5.074c0.076-0.321,0.268-0.613,0.355-0.933c4.249-15.215,4.249-15.215,20.018-15.215
		C119.395,85.914,133.055,85.914,146.716,85.914z"/>
</g>
</svg>
