<?xml version="1.0" encoding="utf-8"?>
<!-- Generator: Adobe Illustrator 16.0.0, SVG Export Plug-In . SVG Version: 6.00 Build 0)  -->
<!DOCTYPE svg PUBLIC "-//W3C//DTD SVG 1.1//EN" "http://www.w3.org/Graphics/SVG/1.1/DTD/svg11.dtd">
<svg version="1.1" id="Layer_1" xmlns="http://www.w3.org/2000/svg" xmlns:xlink="http://www.w3.org/1999/xlink" x="0px" y="0px"
	 width="1441px" height="505px" viewBox="0 0 1441 505" enable-background="new 0 0 1441 505" xml:space="preserve">
<g>
	<path fill="#4455B3" d="M469,1c52,0,104,0,156,0c8.512,6.238,12.27,16.121,18.403,24.179
		c10.468,13.753,19.672,28.444,29.959,42.311c13.573,18.296,25.807,37.502,39.212,55.916c9.758,13.404,19.443,26.942,28.615,40.814
		c8.7,13.158,17.562,26.235,27.322,38.679c3.881,4.948,7.114,10.435,10.606,15.677c5.72,8.585,12.126,16.664,17.909,25.201
		c4.718,6.967,8.291,14.862,14.778,20.593c0.67,0.591,0.6,1.508,0.542,2.357c-0.16,0.542-0.464,0.975-0.912,1.312
		c-7.738,3.305-16.08,4.057-24.208,5.639c-32.959,6.415-65.888,12.989-98.885,19.207c-4.734,0.893-9.463,1.903-14.325,1.588
		c-3.595-0.593-5.512-3.23-7.599-5.891c-10.053-12.815-18.245-26.924-28.193-39.845c-8.293-10.772-15.139-22.66-23.031-33.771
		c-8.849-12.455-17.464-25.089-26.464-37.415c-12.941-17.724-24.29-36.55-37.666-53.923c-6.613-8.589-11.914-18.024-18.499-26.57
		c-14.011-18.182-25.467-38.161-39.621-56.205c-5.159-6.578-9.13-13.859-14.06-20.535c-2.765-3.744-5.38-7.576-8.386-11.162
		C468.696,7.005,465.72,4.383,469,1z"/>
	<path fill-rule="evenodd" clip-rule="evenodd" fill="#4354B3" d="M811.008,266.002c-5.223-2.108-7.322-7.139-10.074-11.345
		c-4.814-7.36-9.732-14.633-14.848-21.787c-5.793-8.103-11.293-16.414-17.057-24.537c-7.127-10.044-14.375-20.001-21.609-29.968
		c-3.211-4.423-5.946-9.153-9.057-13.65c-7.096-10.259-14.881-20.058-21.577-30.545c-9.308-14.575-20.511-27.775-29.53-42.572
		c-6.99-11.466-15.63-21.914-23.153-33.072c-10.676-15.836-22.977-30.534-32.717-47.021C629.303,7.979,625.436,5.536,625,1
		c49,0,98,0,147,0c4.353,2.624,7.158,6.514,9.863,10.775c5.341,8.414,11.488,16.303,17.371,24.353
		c7.257,9.928,13.914,20.259,21.021,30.285c11.723,16.535,23.059,33.347,34.933,49.776c12.263,16.968,23.811,34.433,36.078,51.4
		c15.396,21.296,30.108,43.081,45.279,64.541c1.962,2.775,5.186,5.584,3.434,9.861c-0.418,0.688-0.792,1.403-1.468,1.891
		c-18.948,4.568-38.171,7.765-57.272,11.556c-18.992,3.77-37.969,7.645-57.085,10.759c-1.174,0.191-2.113,0.728-3.191,1.015
		C817.613,267.07,813.905,269.832,811.008,266.002z"/>
	<path fill-rule="evenodd" clip-rule="evenodd" fill="#4758B2" d="M174,1c35.667,0,71.333,0,107,0
		c7.597,11.013,16.758,20.833,23.303,32.709c4.611,8.367,11.129,15.685,16.681,23.549c3.038,4.304,5.9,8.748,8.783,13.162
		c2.101,3.219,3.716,6.715,7.391,8.521c0.604,0.297,1.226,0.723,1.438,1.341c3.886,11.299,13.727,18.623,19.234,28.788
		c5.726,10.569,13.721,19.525,20.132,29.549c3.019,4.72,6.136,9.464,9.358,13.99c4.049,5.687,8.172,11.305,12.169,17.045
		c5.659,8.127,11.914,15.771,16.993,24.398c4.774,8.112,11.326,15.193,16.328,23.196c3.672,5.875,9.15,10.506,11.57,17.181
		c0.094,0.258,0.199,0.41,0.241,0.435c7.066,3.997,8.339,12.316,13.353,18.021c5.374,6.114,10.121,13.006,14.13,20.382
		c4.498,8.276,11.194,15.266,16.21,23.277c3.935,6.286,9.503,11.431,12.406,18.426c1.088,2.62,3.517,4.399,5.492,6.419
		c1.297,1.325,2.715,2.554,1.997,4.724c-0.528,1.187-1.655,1.333-2.722,1.586c-13.189,4.317-27.002,5.727-40.496,8.619
		c-13.342,2.859-26.772,5.321-40.175,7.905c-3.263,0.629-6.524,1.425-9.848,0.395c-4.703,0.454-7.596-2.686-9.599-5.969
		c-12.659-20.748-27.464-40.004-41.295-59.932c-12.889-18.569-25.307-37.49-38.925-55.522c-7.201-9.535-13.716-19.559-20.922-29.098
		c-6.033-7.986-11.333-16.731-17.258-24.947c-8.053-11.163-15.059-23.059-23.647-33.855c-3.938-4.95-6.693-10.707-10.627-15.687
		c-8.424-10.662-15.083-22.585-23.372-33.328c-8.119-10.523-15.311-21.706-22.915-32.562c-6.058-8.646-13.161-16.615-18.17-26.049
		c-3.2-6.025-7.955-11.079-11.841-16.675C174.462,8.208,170.794,5.258,174,1z"/>
	<path fill-rule="evenodd" clip-rule="evenodd" fill="#4A5BB2" d="M3,1c7.333,0,14.667,0,22,0
		c5.559,1.905,8.802,6.541,11.671,11.042c6.45,10.116,14.511,19.113,20.537,29.457c6.727,11.547,15.286,21.75,22.77,32.725
		c10.669,15.646,22.496,30.502,32.618,46.487c7.755,12.249,16.585,23.669,24.829,35.532c8.431,12.133,17.167,24.046,25.556,36.202
		c8.303,12.032,15.81,24.626,24.728,36.22c5.671,7.371,10.98,15.018,16.212,22.654c7.696,11.233,16.689,21.577,23.2,33.639
		c2.928,5.424,6.871,10.221,10.49,15.198c14.646,20.148,28.94,40.546,43.421,60.811c1.26,1.764,2.474,3.582,4.449,4.648
		c1.32,0.712,1.979,1.726,1.75,3.261c-1.237,2.227-3.39,2.96-5.667,3.487c-17.439,2.506-34.61,6.457-51.898,9.776
		c-11.906,2.285-23.828,4.42-35.815,6.18c-0.524,0.095-1.057,0.147-1.59,0.157c-0.765,0.016-1.533,0.003-2.292-0.099
		c-3.535-1.67-5.898-4.357-8.398-7.463c-10.049-12.485-17.798-26.573-27.909-39.021c-3.678-4.528-7.252-9.322-9.822-14.872
		c-3.698-7.987-10.504-14.04-15.229-21.451c-2.51-3.937-6.146-7.226-8.263-11.102c-2.817-5.157-6.773-9.339-9.723-14.224
		c-5.51-9.125-12.12-17.378-18.726-25.657c-1.924-2.411-2.518-5.396-4.049-7.984c-4.411-7.454-10.559-13.621-15.168-20.905
		c-2.491-3.938-5.992-7.285-8.228-11.135c-2.927-5.041-6.781-9.312-9.747-14.179c-5.548-9.105-12.064-17.441-18.713-25.699
		c-1.949-2.42-2.531-5.391-4.055-7.974c-4.406-7.466-10.537-13.655-15.184-20.918c-2.604-4.069-5.798-7.651-8.693-11.458
		c-3.307-4.35-4.657-9.936-6.057-15.307C1.998,81.756,1.989,44.5,2.027,7.243C2.029,5.14,1.431,2.884,3,1z"/>
	<path fill-rule="evenodd" clip-rule="evenodd" fill="#4656B2" d="M361,1c32,0,64,0,96,0c5.067,3.308,6.907,9.151,10.47,13.647
		c6.164,7.778,11.347,16.352,17.071,24.479c7.729,10.973,14.118,22.873,22.695,33.224c12.283,14.822,22.152,31.325,33.335,46.906
		c7.732,10.774,13.678,22.847,22.532,32.714c10.032,11.18,17.021,24.403,26.002,36.275c7.981,10.552,14.9,21.909,22.255,32.934
		c4.036,6.05,8.683,11.691,13.505,17.158c0.764,0.866,1.778,1.513,2.257,2.626c4.39,10.203,12.295,18.062,18.177,27.271
		c4.82,7.547,9.702,15.035,15.93,21.56c1.571,1.646,1.441,3.997,1.089,6.199c-0.376,0.778-1.072,1.162-1.81,1.504
		c-6.928,3.163-14.502,3.604-21.812,5.052c-17.963,3.558-35.963,6.934-53.904,10.605c-2.754,0.563-5.546,1.179-8.403,0.953
		c-4.237-3.377-8.234-6.744-10.918-11.833c-4.342-8.234-10.527-15.346-15.778-23.041c-5.056-7.408-8.972-15.58-14.978-22.348
		c-0.109-0.122-0.146-0.31-0.261-0.424c-8.733-8.76-14.793-19.573-21.778-29.578c-7.02-10.054-14.271-20.018-20.73-30.483
		c-4.542-7.357-10.03-14.076-14.546-21.456c-0.877-1.433-2.229-2.463-3.673-3.33c-1.003-0.604-2.376-1.148-2.529-2.285
		c-1.168-8.632-8.916-12.952-12.894-19.786c-6.674-11.467-14.981-21.923-22.242-33.041c-4.728-7.239-9.099-14.957-14.823-21.203
		c-6.384-6.966-10.099-15.554-16.385-22.499c-6.329-6.992-10.357-15.786-15.948-23.439c-7.94-10.87-15.222-22.207-22.741-33.374
		c-1.134-1.684-2.513-3.065-4.169-4.24C357.642,8.656,357.37,5.434,361,1z"/>
	<path fill-rule="evenodd" clip-rule="evenodd" fill="#4859B2" d="M174,1c1.696,4.388,4.316,8.219,7.016,12.036
		c13.417,18.976,26.758,38.006,40.139,57.007c7.922,11.249,16.009,22.384,23.774,33.739c11.52,16.85,23.587,33.317,35.119,50.143
		c6.844,9.986,14.222,19.598,20.8,29.753c14.178,21.89,30.315,42.396,44.755,64.12c14.712,22.134,30.729,43.397,46.03,65.144
		c5.352,7.606,10.232,15.544,15.42,23.269c1.826,2.721,3.402,5.797,6.954,6.794c0.544,0.927,0.225,1.682-0.465,2.364
		c-1.872,1.623-4.287,1.678-6.526,2.164c-12.365,2.687-24.906,4.495-37.231,7.388c-1.471,0.345-2.954,0.498-4.455,0.351
		c-3.267-1.057-5.814-2.742-6.658-6.455c-0.516-2.271-2.014-4.193-3.326-6.113c-10.57-15.465-21.292-30.82-31.326-46.655
		c-3.04-4.797-5.952-10.1-11.302-13.076c-0.595-0.331-1.229-0.746-1.41-1.365c-3.252-11.077-13.121-17.739-18.32-27.509
		c-6.648-12.493-15.665-23.43-23.601-35.052c-3.894-5.702-6.231-13.102-13.234-16.453c-0.294-0.142-0.574-0.41-0.679-0.717
		c-4.487-13.169-15.496-22.066-22.241-33.92c-6.652-11.69-14.952-22.686-23.238-33.497c-3.299-4.305-5.2-9.666-10.361-12.469
		c-0.988-0.537-0.952-2.064-1.315-3.165c-0.792-2.396-1.881-4.663-3.538-6.562c-6.558-7.516-12.3-15.526-17.207-24.281
		c-3.46-6.175-8.515-11.468-12.26-17.535c-4.797-7.773-10.073-15.289-15.59-22.446c-3.897-5.057-7.113-10.517-10.99-15.456
		c-4.82-6.142-9.255-12.547-14.019-18.713c-2.155-2.79-2.606-6.431-5.103-9.079C118.297,3.357,119.964,2.064,121,1
		C138.667,1,156.333,1,174,1z"/>
	<path fill-rule="evenodd" clip-rule="evenodd" fill="#4756B2" d="M979,1c29.333,0,58.667,0,88,0
		c2.603,1.152,4.615,2.87,6.422,5.172c7.389,9.409,13.797,19.513,20.951,29.086c7.93,10.612,14.892,21.904,22.539,32.719
		c11.296,15.972,22.354,32.112,33.907,47.899c7.536,10.297,14.194,21.201,21.739,31.484c9.698,13.218,17.927,27.508,28.943,39.76
		c1.199,1.334,1.026,2.692,0.7,4.187c-1.285,2.199-3.243,3.155-5.728,3.147c-18.567,2.976-36.908,7.165-55.421,10.43
		c-6.526,1.151-12.934,3.186-19.659,3.072c-4.479-3.283-7.114-8.264-10.007-12.65c-3.608-5.473-7.955-10.398-11.526-15.924
		c-4.632-7.166-9.748-14.173-14.709-21.198c-6.991-9.899-14.16-19.707-20.851-29.763c-3.521-5.293-6.867-11.027-10.909-15.761
		c-4.849-5.676-8.39-12.16-12.924-17.99c-4.838-6.219-9.37-12.844-13.556-19.604c-5.168-8.349-11.196-16.078-16.816-24.1
		c-4.141-5.91-7.851-12.127-12.114-17.966c-0.194-0.267-0.259-0.665-0.505-0.854c-5.946-4.548-7.752-12.207-13.049-17.28
		c-2.918-2.794-3.953-6.885-6.13-10.223C977.481,3.392,978.171,2.105,979,1z"/>
	<path fill-rule="evenodd" clip-rule="evenodd" fill="#4655B2" d="M1201.001,190.015c-2.163-0.409-3.441-1.927-4.495-3.671
		c-5.423-8.978-12.692-16.684-18.137-25.578c-8.077-13.195-17.585-25.383-26.066-38.292c-6.998-10.649-14.707-20.927-22.198-31.299
		c-6.792-9.402-13.244-19.049-19.968-28.501c-13.098-18.412-25.357-37.42-39.227-55.287c-1.521-1.96-2.617-4.25-3.91-6.387
		c30,0,60,0,90,0c7.612,2.777,9.848,10.461,14.015,16.134c8.035,10.942,15.028,22.634,23.015,33.668
		c3.231,4.464,6.972,8.841,9.199,14.068c0.325,0.764,0.688,1.589,1.309,2.11c3.789,3.181,6.124,7.451,9.053,11.279
		c5.541,7.246,10.923,14.639,15.721,22.307c7.476,11.946,15.941,23.199,23.728,34.916c3.727,5.608,7.185,11.574,12.554,16.454
		c3.704,3.365,6.044,9.159,9.699,13.398c0.531,0.616,0.869,1.411,1.413,2.046c1.222,1.427,4.322,2.222,3.172,4.446
		c-1.318,2.55-1.657,6.333-5.618,6.874c-22.077,4.928-44.305,9.057-66.526,13.21C1205.209,192.382,1202.774,192.31,1201.001,190.015
		z"/>
	<path fill-rule="evenodd" clip-rule="evenodd" fill="#4859B2" d="M52,1c15,0,30,0,45,0c5.996,3.198,7.536,9.872,11.35,14.771
		c5.712,7.338,10.823,15.151,16.181,22.769c2.815,4.004,5.54,8.34,8.491,11.893c4.053,4.879,6.524,10.562,10.358,15.348
		c6.228,7.773,11.625,16.046,17.207,24.264c7.902,11.635,15.119,23.903,25.089,34.055c0.994,1.013,1.496,2.166,1.778,3.485
		c0.353,1.651,0.899,3.228,2.049,4.499c9.291,10.271,16.898,21.876,24.332,33.406c6.844,10.615,14.671,20.514,21.334,31.221
		c3.021,4.855,6.754,9.282,10.002,13.938c3.421,4.902,6.139,10.461,10.078,14.869c8.469,9.48,14.288,20.707,21.729,30.826
		c6.878,9.354,12.358,19.769,20.846,27.916c1.033,0.992,1.386,2.238,1.68,3.544c0.333,1.479,0.793,2.938,1.83,4.062
		c9.183,9.944,16.069,21.603,23.825,32.577c4.853,6.868,9.469,13.968,14.119,21.007c2.736,4.143,7.425,6.22,9.718,10.601
		c0.08,0.553-0.023,1.062-0.304,1.542c-0.381,0.424-0.843,0.706-1.385,0.862c-3.223,1.653-6.357,3.594-10.229,3.078
		c-9.981,1.178-19.732,3.623-29.604,5.371c-3.963-0.017-4.71-3.86-6.553-6.04c-6.443-7.618-11.28-16.479-17.563-24.21
		c-3.742-4.604-5.833-10.538-11.068-13.934c-0.279-0.181-0.55-0.418-0.687-0.716c-7.059-15.302-19.188-27.231-27.654-41.688
		c-5.649-9.645-12.885-18.541-19.434-27.73c-3.825-5.367-9.086-9.693-11.401-16.529c-1.903-5.62-7.44-9.588-10.987-14.632
		c-4.494-6.391-8.576-13.036-12.992-19.459c-6.68-9.715-13.622-19.271-20.29-28.977c-3.753-5.463-9.212-9.611-11.438-16.481
		c-1.857-5.729-7.45-9.585-10.968-14.656c-4.734-6.824-9.572-13.565-13.639-20.805c-1.819-3.238-4.162-6.138-6.593-8.736
		c-5.488-5.866-9.45-12.882-13.508-19.509c-3.56-5.813-9.434-9.775-11.602-16.836c-1.694-5.52-7.304-9.232-10.712-14.188
		c-4.708-6.846-9.555-13.588-13.637-20.827c-1.821-3.229-4.181-6.128-6.596-8.734c-5.344-5.766-8.417-13.014-13.413-19.021
		C54.086,10.01,50.809,6.112,52,1z"/>
	<path fill-rule="evenodd" clip-rule="evenodd" fill="#4758B3" d="M507.007,325.003c-4.938-2.798-7.495-7.411-10.529-12.048
		c-4.047-6.183-8.115-12.462-12.69-18.3c-4.797-6.121-10.021-12.184-13.82-18.719c-3.559-6.123-6.926-12.438-11.54-17.653
		c-5.591-6.318-9.315-13.833-14.603-20.371c-5.175-6.398-9.705-13.599-14.302-20.595c-4.709-7.168-9.539-14.367-15.53-20.604
		c-2.085-2.169-1.375-5.243-3.349-7.609c-5.291-6.345-10.712-12.748-14.841-19.85c-4.754-8.177-11.82-14.553-16.401-22.726
		c-4.806-8.572-10.851-16.249-16.674-24.095c-7.421-10.001-12.309-21.78-21.462-30.564c-0.237-0.227-0.41-0.523-0.598-0.798
		c-9.491-13.846-18.761-27.851-28.596-41.448c-3.176-4.392-5.739-9.366-10.031-12.935c-2.33-1.938-1.424-5.203-3.386-7.572
		c-5.374-6.491-10.208-13.429-15.279-20.172C281.596,6.578,280.784,3.95,281,1c14,0,28,0,42,0
		c15.116,17.542,27.435,37.105,40.441,56.161c12.557,18.396,26.025,36.143,38.695,54.441c13.054,18.853,25.556,38.102,39.066,56.628
		c7.932,10.874,15.861,21.752,23.436,32.865c10.488,15.387,20.756,30.927,31.758,45.95c8.05,10.991,16.114,21.974,23.685,33.294
		c5.912,8.842,12.104,17.488,17.972,26.357c1.014,1.531,1.813,3.355,3.482,4.164c3.672,1.781,4.234,4.779,3.765,8.346
		c-0.253,0.514-0.626,0.891-1.133,1.149c-10.531,3.06-21.338,4.754-32.101,6.647C510.068,327.355,508.033,327.331,507.007,325.003z"
		/>
	<path fill-rule="evenodd" clip-rule="evenodd" fill="#4757B2" d="M979,1c3.677,5.72,7.765,11.228,11.36,16.907
		c3.521,5.564,7.551,10.811,11.439,15.96c6.886,9.117,12.471,19.07,19.458,28.104c6.586,8.514,12.137,17.818,18.489,26.522
		c5.04,6.908,9.593,14.143,14.977,20.84c5.326,6.625,9.399,14.239,14.427,21.126c9.791,13.412,18.641,27.485,28.413,40.87
		c4.435,6.074,8.385,12.559,13.299,18.402c3.997,4.753,8.606,9.711,10.138,16.258c0.324,2.147-0.92,3.006-2.77,3.323
		c-3.577,0.611-7.089,1.899-10.731,1.721c-2.164-0.106-3.766,0.611-5.36,1.783c-1.396,0.516-2.806,0.244-4.211,0.072
		c-1.582-2.794-4.425-3.822-7.055-5.304c-14.29-8.052-29.188-15.096-42.279-25.157c-1.869-1.436-4.269-0.872-6.222-1.896
		c-1.202-1.634-3.469-2.346-4.003-4.57c0.016-1.258,0.573-2.668-0.776-3.604c-8.365-5.806-11.456-15.64-17.647-23.131
		c-7.084-8.569-13.546-17.746-19.657-26.938c-6.039-9.083-12.781-17.722-18.362-27.143c-4.229-7.139-9.427-13.68-14.176-20.501
		c-6.178-8.874-12.39-17.74-18.875-26.378c-7.157-9.532-13.209-19.807-20.479-29.261c-2.9-3.771-5.238-8.046-8.023-11.969
		C918.844,4.884,918.515,2.775,921,1C940.333,1,959.667,1,979,1z"/>
	<path fill-rule="evenodd" clip-rule="evenodd" fill="#4657B2" d="M544.002,318.001c-16.066-18.775-28.026-40.479-42.881-60.104
		c-6.419-8.48-12.959-16.961-18.81-25.749c-6.06-9.104-12.504-17.98-18.373-27.239c-6.836-10.783-14.769-20.867-22.143-31.312
		c-7.853-11.122-15.784-22.183-23.471-33.428c-14.713-21.526-30.002-42.657-44.899-64.059
		c-11.275-16.196-22.226-32.619-33.499-48.816c-4.746-6.819-9.961-13.31-14.936-19.97C323.603,5.465,321.982,3.636,323,1
		c12.667,0,25.333,0,38,0c-0.396,4.062,1.263,6.737,4.139,9.898c5.77,6.34,10.927,13.441,15.213,20.877
		c5.434,9.428,12.593,17.592,18.217,26.837c4.92,8.088,11.492,15.087,16.616,22.862c6.596,10.007,14.612,18.995,20.599,29.324
		c6.037,10.415,13.939,19.503,20.152,29.73c4.246,6.989,8.68,13.745,14.505,19.507c1.485,1.469,2.442,3.082,2.64,5.207
		c0.088,0.949,0.383,2.094,1.006,2.745c14.925,15.595,24.612,34.958,37.397,52.102c5.139,6.891,10.896,13.562,15.184,20.8
		c6.648,11.222,16.133,20.251,22.179,31.927c4.772,9.219,12.007,17.133,17.661,25.938c2.952,4.597,6.492,8.711,9.493,13.235
		c-0.022,2.358-1.701,2.976-3.568,3.401c-7.747,1.767-15.605,2.953-23.395,4.494C546.814,320.325,545.334,319.553,544.002,318.001z"
		/>
	<path fill-rule="evenodd" clip-rule="evenodd" fill="#485AB2" d="M52,1c4.541,7.208,10.147,13.679,14.025,21.38
		c2.136,4.241,5.974,7.486,8.854,11.365c7.131,9.603,12.616,20.285,20.033,29.697c2.068,2.624,5.082,4.673,6.375,7.556
		c3.109,6.932,8.607,12.16,12.333,18.662c2.82,4.92,6.152,9.833,9.691,14.177c8.116,9.961,14.53,20.986,21.861,31.421
		c3.715,5.287,7.174,10.772,11.782,15.428c4.621,4.668,6.689,11.07,10.966,16.193c6.975,8.355,12.303,18.061,18.847,26.806
		c7.167,9.578,12.57,20.32,20.126,29.628c1.773,2.186,3.274,4.572,5.332,6.559c4.999,4.827,7.108,11.592,11.636,16.939
		c7.028,8.3,12.316,18.045,18.847,26.802c7.251,9.722,12.781,20.582,20.408,30.037c1.56,1.935,2.844,4.07,4.692,5.8
		c5.461,5.11,7.806,12.356,12.541,18.109c7.242,8.797,13.106,18.714,19.887,27.912c2.137,2.899,3.43,6.56,6.765,8.53
		c0.671,1.94-0.53,2.74-2.066,3.152c-4.896,1.312-9.847,2.388-14.897,2.916c-1.755,0.183-3.24-0.305-4.035-2.067
		c-2.413-0.265-4.369-1.134-5.864-3.267c-8.487-12.109-17.055-24.161-25.632-36.207c-9.42-13.229-19.648-25.963-28.081-39.793
		c-6.775-11.111-14.619-21.396-22-32.013c-5.746-8.265-11.891-16.35-17.601-24.622c-6.771-9.812-14.062-19.276-20.279-29.547
		c-7.552-12.473-16.76-23.943-25.263-35.84c-7.606-10.643-15.551-21.061-22.768-31.961c-11.459-17.307-23.447-34.214-35.572-51.059
		c-8.122-11.283-16.787-22.268-24.039-34.138C48.584,32.659,36.477,17.062,25,1C34,1,43,1,52,1z"/>
	<path fill-rule="evenodd" clip-rule="evenodd" fill="#4859B3" d="M348.002,356.001c-4.487-0.728-7.28-3.811-9.769-7.198
		c-4.113-5.599-9.065-10.879-12.236-16.782c-3.385-6.302-6.919-12.443-11.525-17.679c-5.567-6.329-9.185-13.909-14.597-20.379
		c-3.968-4.744-7.427-10.27-10.988-15.525c-6.047-8.923-13.017-17.229-18.756-26.236c-3.76-5.9-6.847-12.421-11.507-17.653
		c-5.712-6.415-9.694-14.009-14.823-20.799c-3.956-5.237-8.011-10.693-11.636-16.312c-5.573-8.638-12.296-16.495-17.905-25.018
		c-3.748-5.695-6.562-12.139-11.219-17.253c-5.997-6.583-9.85-14.643-15.486-21.547c-3.808-4.665-7.222-10.017-10.665-15.154
		c-6.002-8.955-13.005-17.236-18.749-26.242c-3.763-5.9-6.835-12.425-11.503-17.657c-5.717-6.409-9.641-14.03-14.84-20.791
		c-3.994-5.192-7.955-10.728-11.608-16.326c-5.619-8.607-11.734-16.829-18.075-24.924C99.602,9.316,98.658,4.878,97,1c8,0,16,0,24,0
		c5.648,9.988,10.982,20.188,19.151,28.48c0.233,0.237,0.504,0.463,0.659,0.747c7.039,12.928,17.632,23.375,25.001,36.135
		c3.856,6.678,8.453,13.12,13.965,18.667c2.282,2.296,1.674,5.486,3.659,8.002c4.917,6.229,10.12,12.372,14.317,19.025
		c6.436,10.2,14.799,18.957,20.898,29.323c3.961,6.731,8.663,12.938,13.248,19.215c7.153,9.795,13.41,20.177,20.645,29.962
		c9.859,13.337,20.092,26.52,28.765,40.77c2.979,4.894,6.159,9.886,10.522,13.792c2.32,2.077,1.474,5.228,3.371,7.597
		c5.274,6.588,11.116,13.014,15.376,20.065c6.979,11.552,16.841,20.923,23.017,33.048c3.484,6.84,8.78,12.852,13.82,18.759
		c1.94,2.274,1.52,5.03,3.112,7.146c3.392,4.507,6.389,9.388,10.266,13.425c2.295,2.391,1.174,6.163,4.208,7.837
		c-2.313,4.731-7.19,3.638-11.043,4.854c-2.091,0.635-3.532-0.857-5.201-1.604C348.505,356.164,348.254,356.082,348.002,356.001z"/>
	<path fill-rule="evenodd" clip-rule="evenodd" fill="#4655B2" d="M1173,1c16.667,0,33.333,0,50,0
		c7.915,5.407,11.479,14.27,16.961,21.586c8.47,11.302,17.131,22.513,24.695,34.427c6.253,9.851,13.403,19.033,19.818,28.738
		c9.174,13.881,19.276,27.095,28.85,40.685c7.748,11,15.036,22.329,22.678,33.41c1.077,1.562,2.066,3.076,0.953,5.028
		c-0.49,0.632-0.983,1.255-1.589,1.785c-12.218,3.502-24.855,4.991-37.216,7.799c-0.818,0.187-1.606-0.276-2.396-0.452
		c-0.51-0.092-1.028-0.18-1.545-0.241c-3.929-0.994-6.52-3.208-8.97-6.732c-6.685-9.617-12.53-19.816-20.753-28.444
		c-3.573-3.749-6.071-8.854-9.207-13.279c-10.73-15.141-20.43-30.985-31.349-46.036c-5.143-7.089-10.184-14.154-15.733-20.955
		c-3.114-3.816-5.739-8.314-8.607-12.503c-9.081-13.26-17.756-26.807-26.842-40.072C1171.526,3.958,1171.169,2.491,1173,1z"/>
	<path fill-rule="evenodd" clip-rule="evenodd" fill="#4454B1" d="M1307,1c17.333,0,34.667,0,52,0
		c9.111,5.05,14.04,13.629,18.793,22.339c2.325,4.262,5.603,7.828,8.373,11.764c6.675,9.479,12.584,19.522,19.384,28.832
		c4.538,6.213,8.297,13.025,13.668,18.795c6.125,6.58,12.718,13.238,14.878,22.598c0.174,0.754,0.848,1.177,1.394,1.979
		c-3.108-5.174-2.151-8.744,2.626-10.897c2.52-1.135,3.4-0.158,3.385,2.309c-0.021,14.924,0.043,29.833-0.033,44.74
		c-0.969,2.591-2.977,3.664-5.595,4.154c-7.828,1.466-15.581,3.336-23.49,4.36c-2.99,0.941-4.893-1.106-7.006-2.548
		c-0.503-0.186-0.933-0.49-1.283-0.896c-0.09-2.369-1.123-4.127-2.729-5.996c-3.741-4.353-7.621-8.912-10.318-13.772
		c-7.609-13.712-17.812-25.571-26.253-38.672c-5.097-7.91-9.923-16.104-15.925-23.472c-6.656-8.171-12.506-16.918-18.439-25.643
		c-7.72-11.351-15.335-22.867-23.818-33.706C1304.563,4.652,1304.64,2.955,1307,1z"/>
	<path fill-rule="evenodd" clip-rule="evenodd" fill="#4554B2" d="M1336,164.002c-8.544-12.438-16.969-24.96-25.659-37.296
		c-14.242-20.216-28.656-40.31-42.999-60.455c-3.162-4.441-6.035-9.088-9.031-13.629c-7.047-10.682-15.32-20.474-22.244-31.201
		C1231.687,14.634,1225.951,8.697,1223,1c14,0,28,0,42,0c6.795,2.655,10.318,8.218,13.692,14.323
		c3.771,6.821,9.166,12.648,13.37,19.231c7.33,11.475,15.089,22.665,23.325,33.477c12.077,15.854,22.902,32.568,34.242,48.919
		c7.273,10.486,14.798,20.814,21.766,31.514c2.175,3.339,4.663,4.672,8.767,3.705c2.89-0.681,6.734-2.299,8.076,2.651
		c-0.531,2.292-2.515,2.428-4.264,2.781c-13.987,2.834-27.954,5.777-42.049,8.051C1339.757,166.002,1337.486,166.301,1336,164.002z"
		/>
	<path fill-rule="evenodd" clip-rule="evenodd" fill="#4454B2" d="M1387.007,154.003c-4.22-0.165-8.242,1.068-12.348,1.725
		c-1.817,0.291-2.39,0.001-3.679-2.191c-5.19-8.83-11.264-17.179-17.447-25.377c-4.803-6.368-8.369-13.483-13.122-19.896
		c-7.894-10.652-14.466-22.33-22.802-32.596c-7.848-9.665-14.516-20.133-21.775-30.151c-6.482-8.946-12.971-18.062-18.648-27.581
		C1273.576,11.884,1268.844,6.793,1265,1c14,0,28,0,42,0c0.219,0.969,0.125,2.22,0.705,2.862
		c6.716,7.436,11.015,16.545,17.042,24.482c3.644,4.798,8.354,8.968,10.314,15.062c0.733,2.281,2.496,4.244,4.085,6.212
		c8.503,10.525,16.24,21.592,23.849,32.797c5.852,8.618,11.483,17.422,17.693,25.828c3.591,4.859,8.35,8.988,10.302,15.066
		c0.639,1.987,1.897,4.09,3.483,5.401c5.218,4.316,7.119,11.109,12.096,15.568c2.734,2.45-0.445,2.725-1.569,3.718
		c-0.527,0.503-1.161,0.195-1.75,0.232c0.589-0.037,1.223,0.271,1.75-0.232c2.338,0.338,4.677,0.673,7.016,1.009
		c0.809,2.338-0.931,2.925-2.504,3.371c-5.887,1.669-11.894,2.798-17.945,3.673C1389.661,156.326,1387.917,156.041,1387.007,154.003
		z"/>
	<path fill-rule="evenodd" clip-rule="evenodd" fill="#4858B2" d="M921,1c1.227,6.892,6.472,11.544,10.09,16.938
		c13.675,20.385,27.823,40.469,42.317,60.282c8.817,12.055,17.389,24.331,25.618,36.719c11.763,17.704,25.551,34.012,36.015,52.578
		c0.937,1.662,2.513,2.633,3.764,3.95c0.876,0.923,2.958,1.644,1.196,3.534c-2.081,3.284-4.113,0.811-5.874-0.243
		c-16.834-10.078-33.821-19.916-49.823-31.32c-3.115-2.009-6.651-3.274-9.654-5.478c-3.022-2.443-2.498-6.597-5.067-9.589
		c-7.646-8.904-14.574-18.409-20.268-28.762c-2.56-4.654-6.844-7.998-9.853-12.457c-7.685-11.392-15.426-22.762-23.12-34.145
		c-6.225-9.208-13.732-17.537-19.277-27.083c-4.21-7.248-10.396-12.894-14.38-20.199C881.655,3.841,881.142,2.468,883,1
		C895.667,1,908.333,1,921,1z"/>
	<path fill-rule="evenodd" clip-rule="evenodd" fill="#4858B3" d="M883,1c2.917,4.189,5.068,8.889,8.992,12.408
		c2.567,2.303,4.423,5.077,5.657,8.567c2.126,6.009,7.484,9.996,11.1,15.15c6.84,9.75,13.054,19.938,20.189,29.453
		c6.938,9.249,11.719,20.065,20.334,28.063c2.559,2.375,3.088,5.848,4.905,8.457c4.899,7.038,9.968,13.994,15.205,20.768
		c2.991,3.869,4.618,8.397,7.617,12.135c-1.799,3.017-3.721,1.042-5.451,0.018c-7.442-4.409-14.641-9.219-21.84-13.998
		c-24.387-16.19-48.93-32.15-72.836-49.054c-2.03-1.435-4.138-2.801-5.387-5.083c0.917-4.476-2.561-6.24-5.276-8.433
		c-0.857-0.691-2.39-0.936-2.669-1.916c-1.604-5.623-5.738-9.635-9.037-14.094c-5.213-7.048-8.865-15.089-14.539-21.836
		c-3.947-4.695-7.139-9.981-10.579-15.068C827.887,4.32,827.844,2.633,830,1C847.667,1,865.333,1,883,1z"/>
	<path fill-rule="evenodd" clip-rule="evenodd" fill="#4253B3" d="M939,241.003c-10.814-15.779-21.557-31.609-32.471-47.319
		c-6.918-9.957-14.183-19.673-21.13-29.61c-9.696-13.867-19.163-27.896-28.881-41.749c-6.199-8.836-12.819-17.377-18.991-26.231
		c-10.248-14.705-20.179-29.633-30.449-44.322c-8.466-12.108-17.414-23.882-25.768-36.065C778.043,10.938,774.229,6.449,772,1
		c4,0,8,0,12,0c11.444,4.17,19.566,13.297,29.45,19.796c1.343,0.884,2.622,2.105,2.751,3.973c-0.688,2.037-0.807,3.893,1.137,5.459
		c8.643,6.964,12.773,17.328,19.35,25.86c8.904,11.555,16.572,23.996,25.288,35.719c4.386,5.899,8.29,12.337,12.746,18.281
		c9.358,12.484,17.522,25.787,26.662,38.426c5.729,7.921,11.803,15.662,17.068,23.828c6.217,9.642,13.852,18.246,19.831,27.869
		c6.511,10.477,14.002,20.188,20.815,30.402c1.705,2.556,3.147,5.122,2.01,8.351c-6.315,2.664-12.82,4.223-19.729,3.488
		C940.36,242.344,939.45,242.049,939,241.003z"/>
	<path fill-rule="evenodd" clip-rule="evenodd" fill="#4354B2" d="M1440.818,97c-4.278,2.973-5.904,6.445-2.636,11.306
		c1.007,1.498,1.241,3.944-0.967,4.686c-2.3,0.771-1.655-1.88-2.337-2.983c-6.125-9.913-12.776-19.364-19.91-28.656
		c-8.378-10.913-16.271-22.464-23.611-34.259c-2.974-4.778-6.322-9.358-9.85-13.747c-6.606-8.219-10.494-18.248-17.713-26.082
		c-1.73-1.878-3.982-3.589-4.795-6.264c19.333,0,38.667,0,58,0c3.541,2.55,6.057,5.852,8.235,9.671
		c2.446,4.288,5.335,8.369,8.459,12.242c3.652,4.527,6.035,9.713,7.803,15.218c0.007,3.711,0.001,7.416,0.003,11.124
		c0,4.274,0,8.545,0,12.816c0,5.018,0,10.034,0,15.051C1441.085,83.742,1442.341,90.419,1440.818,97z"/>
	<path fill-rule="evenodd" clip-rule="evenodd" fill="#5463AC" d="M3,1c0,40-0.001,79.999-0.001,119.999
		c2.153,4.821,2.438,9.941,2.514,15.119c0.257,17.313-0.653,34.639,0.558,51.94c-0.711,6.73,0.774,13.594-1.353,20.259
		c-0.664,2.078-0.135,4.287,0.413,6.403c1.1,4.241,1.313,8.43,0.154,12.773c-1.129,4.233,0.285,8.563,0.276,12.876
		c-0.097,50.089-0.066,100.179-0.06,150.269c0,3.327-0.1,6.66,0.49,9.947c-1.584,4.171-0.711,8.454-0.436,12.696
		c0.308,4.743,1.395,5.769,6.137,5.855c1.844,0.033,3.625,0.42,5.443,0.571c5.875,4.426,9.007,11.032,13.122,16.814
		c6.458,9.076,13.659,17.616,19.761,26.928c7.284,11.114,14.713,22.107,22.615,32.798c3.784,5.12,3.202,7.509-1.178,9.25
		c-21.417,0.002-42.82,0.012-64.223-0.021c-1.797-0.003-3.651,0.41-5.398-0.408c-0.656-1.952-0.317-3.966-0.317-5.946
		C1.498,373.113,1.5,247.103,1.5,121.093c0-38.238-0.008-76.477,0.025-114.715C1.526,4.588,1.042,2.719,2,1C2.333,1,2.667,1,3,1z"/>
	<path fill-rule="evenodd" clip-rule="evenodd" fill="#4656B3" d="M661.003,295.011c-7.021-8.988-13.646-18.25-19.941-27.77
		c-3.366-5.09-7.025-9.998-10.957-14.73c-3.438-4.138-4.954-9.558-8.642-13.829c-8.193-9.491-15.508-19.664-22.023-30.459
		c-5.38-8.913-11.869-17.15-17.666-25.821c-3.561-5.324-8.562-9.627-10.838-15.886c-1.14-3.133-3.528-5.602-5.826-8.031
		c-8.479-8.968-14.731-19.517-21.361-29.822c-5.642-8.77-11.801-17.205-17.634-25.854c-3.767-5.584-8.724-10.276-11.434-16.684
		c-2.885-6.82-9.282-11.119-13.457-17.168c-4.229-6.128-8.191-12.44-12.464-18.539c-6.742-9.625-13.079-19.522-19.913-29.095
		C464.305,14.961,458.195,9.364,457,1c4,0,8,0,12,0c3.117,7.687,9.337,13.251,13.742,20.075
		c14.421,22.338,30.263,43.714,45.425,65.542c10.404,14.978,20.413,30.287,31.707,44.697c8.494,10.837,15.256,23.018,23.512,34.061
		c7.565,10.119,13.872,21.088,21.612,31.041c10.43,13.409,19.414,27.813,29.236,41.638c9.707,13.662,19.266,27.431,28.91,41.139
		c3.253,4.624,6.568,9.203,9.855,13.803c-0.197,1.266-0.597,2.401-1.892,2.967C667.646,296.651,664.03,298.949,661.003,295.011z"/>
	<path fill-rule="evenodd" clip-rule="evenodd" fill="#4655B1" d="M1173,1c3.786,7.022,9.343,12.824,13.339,19.756
		c4.452,7.723,9.138,15.504,14.949,22.194c5.425,6.246,8.683,13.867,14.645,19.807c4.943,4.924,7.769,11.897,12.174,17.455
		c9.489,11.974,16.966,25.3,25.901,37.659c8.289,11.465,16.702,22.838,24.945,34.326c3.623,5.049,7.256,10.273,10.203,15.831
		c1.111,2.095,2.713,3.289,4.854,3.975c0.337,1.319-0.181,1.955-1.44,2.567c-4.945,2.406-10.255,3.065-15.61,3.493
		c-1.336,0.106-2.607-0.465-2.959-2.062c5.102-5.996-1.462-8.977-3.883-12.179c-5.065-6.697-10.084-13.424-14.881-20.315
		c-5.103-7.331-9.848-14.932-15.283-22.004c-5.481-7.131-9.224-15.399-14.924-22.298c-5.041-6.1-8.986-12.979-14.015-19.14
		c-3.31-4.055-7.168-8.288-9.911-13.017c-7.831-13.498-17.717-25.599-26.104-38.718c-5.876-9.19-11.991-18.227-18-27.332
		C1162.333,1,1167.667,1,1173,1z"/>
	<path fill-rule="evenodd" clip-rule="evenodd" fill="#E8EAF4" d="M2.103,504.872c23.632-0.014,47.265-0.026,70.898-0.04
		c2.829-2.986,6.493-2.427,9.875-1.882c2.165,0.349,4.072,0.368,6.045-0.435c17.592-0.027,35.184-0.033,52.775-0.007
		c25.582,0.037,51.164-0.146,76.745,0.121c1.53,0.016,2.958-0.314,4.419-0.599c12.98,0.979,25.979,0.296,38.969,0.437
		c3.037,0.033,6.171,1.392,9.145-0.38c31.724,0.931,63.452,0.22,95.176,0.335c3.553,0.014,7.184,1.423,10.707-0.233
		c20.122,0.669,40.251,0.199,60.378,0.264c3.219,0.011,6.53,1.462,9.698-0.33c22.743,0.829,45.491,0.229,68.235,0.309
		c3.219,0.012,6.523,1.388,9.703-0.27c29.529,0.761,59.066,0.142,88.6,0.336c3.817,0.025,7.636,0,11.451,0.135
		c14.914-0.04,29.832-0.571,44.736,0.307c1.272,0.075,2.206-0.458,3.27-0.826c38.602,0.878,77.209,0.157,115.813,0.382
		c5.987,0.035,11.978-0.081,17.954,0.372c4.753-1.005,9.713,0.837,14.402-1.063c3.952,0.659,7.938,0.697,11.934,0.708
		c46.432,0.122,92.865-0.289,139.297,0.219c0.854,0.009,1.638-0.236,2.451-0.4c4.752-0.827,9.567,1.831,14.296-0.273
		c18.314,0.939,36.64,0.315,54.958,0.419c20.16,0.114,40.322,0.028,60.483,0.025c6.127-0.001,12.256-0.087,18.371,0.436
		c13.857-0.483,27.72-1.253,41.555,0.551c0.922,0.051,1.828,0.146,2.528,0.842c0.411,0.551,0.42,1.107,0.029,1.671
		c-387.167,0-774.333,0.002-1161.5-0.062c-1.463,0-3.391,1.153-4.5-0.938C1.293,504.315,1.661,504.273,2.103,504.872z"/>
	<path fill-rule="evenodd" clip-rule="evenodd" fill="#4958B3" d="M830,1c2.508,6.595,6.953,12.03,11.154,17.485
		c6.043,7.848,10.394,16.816,16.543,24.493c4.778,5.964,8.075,12.997,13.686,18.327c1.554,1.477,2.809,3.313,2.617,5.7
		c-1.276,2.232-2.865,1.581-4.538,0.524c-3.319-2.096-6.448-4.464-9.686-6.672c-7.699-5.793-15.865-10.951-23.416-16.94
		c-2.523-2.002-5.911-3.204-7.047-6.7c2.448-4.492,1.014-8.089-2.271-11.594c-5.758-6.143-9.531-13.755-14.641-20.39
		C811.099,3.544,811.479,2.225,813,1C818.667,1,824.333,1,830,1z"/>
	<path fill-rule="evenodd" clip-rule="evenodd" fill="#4958B2" d="M813,1c5.562,8.013,10.313,16.677,17.149,23.67
		c2.634,2.695,1.804,7.38,6.221,8.808c-1.92,1.257-3.645,2.387-5.37,3.517c-1.35,1.797-2.869,0.641-4.343,0.26
		c-1.724-0.475-2.882-1.777-4.185-2.884c-3.422-2.588-7.009-5.021-8.47-9.373c-6.352-6.015-13.847-10.562-20.615-16.044
		C790.197,6.369,786.654,4.214,784,1C793.667,1,803.333,1,813,1z"/>
	<path fill-rule="evenodd" clip-rule="evenodd" fill="#4353B2" d="M1440.837,36.998c-7.297-8.528-13.49-17.858-19.267-27.432
		c-1.646-2.728-4.744-4.833-4.57-8.566c8,0,16,0,24,0c1.124,9.421,0.203,18.879,0.49,28.315c0.062,1.993,0.016,3.989,0.004,5.984
		C1441.557,35.975,1441.337,36.541,1440.837,36.998z"/>
	<path fill-rule="evenodd" clip-rule="evenodd" fill="#9DA5D0" d="M2.103,504.872C1.735,504.915,1.368,504.957,1,505
		c0-128,0-256,0-384c0.138-0.237,0.275-0.475,0.413-0.712c0.136,0.239,0.271,0.478,0.407,0.716
		c0.056,24.157,0.154,48.313,0.159,72.471c0.023,101.134,0.019,202.269,0.029,303.402C2.008,499.542,2.07,502.207,2.103,504.872z"/>
	<path fill-rule="evenodd" clip-rule="evenodd" fill="#C6CBE5" d="M1440.818,97c0.114-6.663,0.229-13.325,0.344-19.988
		c0.269-0.745,0.548-0.749,0.838-0.012c0,99,0,198,0,297c-0.602,0.379-1.174,0.338-1.718-0.123
		c-0.395-0.518-0.652-1.094-0.775-1.733c-1.097-2.858-0.966-5.852-1.001-8.829c-0.197-16.866,0.418-33.739-0.412-50.605
		c0.622-1.698,1.842-3.123,0.641-5.314c-0.515-0.939-0.225-2.803-0.225-4.25c-0.019-50.306-0.026-100.611,0.015-150.916
		c0.002-2.979,0.243-5.863,2.322-8.244C1440.837,128.323,1440.828,112.661,1440.818,97z"/>
	<path fill-rule="evenodd" clip-rule="evenodd" fill="#E8E9F5" d="M1167,506c0-0.277,0-0.556-0.001-0.833
		c0.93-3.076,3.604-2.505,5.775-2.559c9.464-0.238,18.932-0.117,28.397-0.097c22.089,0.048,44.178-0.185,66.266,0.148
		c1.536,0.023,2.951-0.332,4.407-0.622c22.111,1.026,44.236,0.272,66.354,0.387c3.551,0.019,7.194,1.474,10.712-0.281
		c18.193,0.756,36.394,0.196,54.589,0.347c5.086,0.042,10.171-0.01,15.24,0.476c7.29-0.325,14.612-1.537,21.808,0.798
		c0.517,0.373,1.001,0.786,1.453,1.236c-1.109,2.092-3.036,0.937-4.5,0.938C1347.333,506.007,1257.167,506,1167,506z"/>
	<path fill-rule="evenodd" clip-rule="evenodd" fill="#D1D4EB" d="M1442,505c-0.374-0.021-0.748-0.042-1.123-0.062
		c-2.81-2.371-2.34-5.659-2.346-8.751c-0.056-28.633-0.029-57.267-0.025-85.899c0.001-9.987-0.115-19.977,0.084-29.963
		c0.046-2.323-0.647-5.179,2.567-6.312c0.281,0.012,0.562,0.008,0.843-0.013C1442,417.667,1442,461.333,1442,505z"/>
	<path fill-rule="evenodd" clip-rule="evenodd" fill="#9BA4D1" d="M1.82,121.004C1.546,121.003,1.273,121.001,1,121
		C1,82.326,0.986,43.653,1.061,4.979C1.063,3.688-0.059,1.893,2,1C1.995,38.514,1.992,76.026,1.976,113.54
		C1.975,116.028,1.875,118.516,1.82,121.004z"/>
	<path fill-rule="evenodd" clip-rule="evenodd" fill="#AAB0D3" d="M1441.173,36.015C1441.115,24.344,1441.058,12.672,1441,1
		c2.217,0.08,0.922,1.75,0.929,2.501C1442.033,14.333,1442,25.167,1442,36c-0.134,0.241-0.268,0.483-0.4,0.725
		C1441.457,36.488,1441.315,36.252,1441.173,36.015z"/>
	<path fill-rule="evenodd" clip-rule="evenodd" fill="#BFC4E1" d="M1442,77l-0.419,0.015l-0.419-0.003
		c0.003-4.999,0.006-9.999,0.01-14.998c0.264-0.75,0.54-0.754,0.828-0.014C1442,67,1442,72,1442,77z"/>
	<path fill-rule="evenodd" clip-rule="evenodd" fill="#B1B7D8" d="M1441.173,36.015c0.276,0.009,0.552,0.004,0.827-0.015
		c0,4.333,0,8.667,0,13c-0.27,0.751-0.549,0.755-0.839,0.011c-0.108-4.004-0.216-8.008-0.324-12.013
		C1440.949,36.671,1441.061,36.343,1441.173,36.015z"/>
	<path fill-rule="evenodd" clip-rule="evenodd" fill="#B8BDDC" d="M1441.161,49.011c0.28,0.007,0.56,0.003,0.839-0.011
		c0,4.333,0,8.667,0,13l-0.414,0.018l-0.414-0.004C1441.168,57.68,1441.165,53.346,1441.161,49.011z"/>
	<path fill-rule="evenodd" clip-rule="evenodd" fill="#4E5DB1" d="M975.001,504.833c-26.913,0.056-53.826,0.152-80.738,0.155
		c-24.421,0.002-48.842-0.1-73.262-0.155c-2.461-0.998-4.463-2.443-6.018-4.73c-3.823-5.625-8.394-10.718-11.764-16.681
		c-5.242-9.274-12.157-17.386-18.271-26.055c-8.204-11.63-16.393-23.278-24.641-34.868c-7.987-11.226-15.126-23.008-23.316-34.11
		c-5.404-7.324-10.743-14.775-16.115-22.133c-8.793-12.041-16.277-24.989-25.706-36.568c-1.584-1.945-2.702-4.192-3.963-6.341
		c-5.475-9.328-12.093-17.838-18.745-26.324c-0.713-0.91-1.647-1.689-1.464-3.023c0.667-0.335,1.334-0.669,2.002-1.004
		c33.746-6.515,67.473-13.136,101.25-19.486c12.223-2.298,24.335-5.273,36.747-6.518c2.767,1.084,4.493,3.36,6.046,5.667
		c10.393,15.439,21.749,30.218,32.057,45.687c9.41,14.123,19.31,27.886,29.012,41.791c8.938,12.81,18.501,25.22,27.074,38.248
		c14.91,22.66,30.966,44.499,46.603,66.63c7.487,10.596,14.313,21.623,21.906,32.138
		C975.217,499.26,978.537,501.627,975.001,504.833z"/>
	<path fill-rule="evenodd" clip-rule="evenodd" fill="#4D5CB1" d="M975.001,504.833c-5.49-10.279-12.392-19.671-18.849-29.316
		c-8.873-13.255-18.536-25.979-27.724-39.025c-15.028-21.342-30.05-42.689-44.879-64.17c-12.841-18.603-26.106-36.903-38.784-55.632
		c-10.033-14.823-20.498-29.416-31.017-43.936c-1.287-1.776-2.55-3.498-2.752-5.763c0.003-0.33,0.006-0.659,0.01-0.989
		c3.329-0.335,6.659-0.671,9.988-1.007c3.267-0.027,4.947,1.962,7.051,4.303c4.947,5.506,7.547,12.743,13.362,17.523
		c0.514,0.422,1.062,0.867,1.317,1.486c4.232,10.306,12.461,17.97,18.062,27.353c4.509,7.551,8.565,15.641,14.898,21.609
		c6.008,5.662,9.278,12.997,13.871,19.393c3.565,4.967,8.176,9.306,10.859,15.065c4.017,8.618,11.074,15.293,15.985,23.367
		c4.653,7.651,9.427,15.197,14.956,22.263c1.559,1.992,3.009,3.966,5.235,5.242c0.719,0.413,1.833,0.783,1.891,1.531
		c0.551,7.232,7.758,10.618,9.716,17.005c0.098,0.318,0.146,0.752,0.381,0.91c6.816,4.572,8.844,12.639,13.516,18.797
		c4.973,6.554,10.201,12.993,14.013,20.513c3.426,6.76,8.79,12.458,13.063,18.794c1.169,1.733,1.85,3.19-0.174,4.684
		C984.333,504.833,979.667,504.833,975.001,504.833z"/>
	<path fill-rule="evenodd" clip-rule="evenodd" fill="#4D5CB2" d="M988.999,504.833c-4.618-6.858-9.063-13.873-14.794-19.87
		c-2.225-2.328-1.856-5.426-3.622-8.004c-6.059-8.841-13.777-16.544-18.235-26.521c-0.899-2.013-2.403-4.495-5.746-3.638
		c-2.249,0.576-1.377-1.313-1.211-2.183c0.638-3.351-0.731-5.646-3.171-7.851c-2.677-2.419-5.41-4.968-5.531-9.104
		c-0.024-0.826-0.84-1.851-1.577-2.4c-7.631-5.685-13.201-13.812-17.18-21.593c-6.084-11.9-16.376-20.744-21.472-33.07
		c-1.129-2.729-3.336-5.031-7.477-3.429c1.546-5.215-0.336-8.688-4.021-11.698c-2.298-1.878-4.146-4.28-4.222-7.621
		c-0.019-0.847-0.746-1.941-1.476-2.467c-7.751-5.58-12.118-14.131-17.341-21.574c-3.761-5.359-6.96-11.411-10.903-16.86
		c-3.962-5.476-8.076-10.838-10.956-17.042c-1.229-2.649-3.783-3.714-6.766-3.427c-0.09-2.593,1.247-5.683-1.1-7.602
		c-4.743-3.879-7.179-9.502-11.205-13.884c3.453-1.911,7.367-1.976,11.103-2.703c33.485-6.528,66.979-13.008,100.475-19.484
		c1.793-0.347,3.615-0.543,5.425-0.81c2.975-0.731,5.163,0.221,6.979,2.745c12.924,17.958,25.588,36.096,38.265,54.229
		c14.201,20.312,28.795,40.378,42.798,60.811c12.038,17.567,24.903,34.562,36.391,52.519c5.644,8.823,12.588,16.777,18.284,25.588
		c11.75,18.173,25.173,35.185,36.935,53.346c1.902,2.938,3.763,5.909,6.025,8.588c1.669,1.977,1.363,3.584-0.673,5.011
		c-33.876,0.056-67.752,0.129-101.627,0.157C1010.582,504.999,999.791,504.889,988.999,504.833z"/>
	<path fill-rule="evenodd" clip-rule="evenodd" fill="#4C5BB2" d="M1123.001,504.833c-2.486-6.427-6.897-11.736-10.814-17.195
		c-14.147-19.72-27.705-39.841-41.579-59.744c-11.69-16.77-23.729-33.295-35.53-49.987c-6.425-9.089-12.631-18.33-19.014-27.448
		c-10.481-14.973-21.079-29.862-31.526-44.857c-8.643-12.403-17.075-24.953-25.722-37.354c-5.698-8.172-11.605-16.197-17.431-24.28
		c-0.826-1.146-2.094-1.596-3.388-1.969c0.334-0.332,0.669-0.664,1.003-0.995c7.168-0.461,14.142-1.943,21.007-3.996
		c1.939-3.692,5.825-2.876,8.926-3.85c8.495,0.397,14.653,3.975,18.447,12.023c3.321,7.046,7.695,13.555,14.342,18.117
		c0.545,0.374,0.245-0.241,0.35,0.312c1.223,6.507,6.456,10.581,9.486,15.969c1.063,1.891,1.825,3.78,3.665,5.151
		c2.436,1.813,3.864,4.411,5.23,7.144c4.252,8.502,10.823,15.445,16.125,23.255c5.028,7.406,8.429,16.184,15.095,22.124
		c6.211,5.535,9.23,13.013,13.834,19.396c3.653,5.067,8.362,9.507,11.104,15.404c4.004,8.609,10.791,15.454,16.098,23.261
		c4.938,7.265,8.824,15.232,14.639,21.908c0.434,0.499-0.235,0.06,0.277,0.396c7.041,4.612,8.139,13.745,14.432,18.91
		c0.259,0.213,0.49,0.466,0.629,0.769c1.457,3.173,1.186,6.921,5.659,8.827c3.803,1.62,4.3,6.84,6.473,10.338
		c2.188,3.521,5.27,6.346,7.397,9.979c2.08,3.553,5.117,6.518,7.316,10.063c4.98,8.032,10.061,16.002,15.622,23.648
		c1.228,1.688,1.862,3.184-0.154,4.682C1151,504.834,1137,504.834,1123.001,504.833z"/>
	<path fill-rule="evenodd" clip-rule="evenodd" fill="#505FAF" d="M624.999,504.833c-33.333,0-66.665,0-99.998,0
		c-6.513-3.372-9.955-9.793-13.547-15.459c-4.268-6.73-8.865-13.25-13.375-19.774c-12.46-18.025-25.264-35.819-37.899-53.729
		c-9.848-13.956-18.97-28.425-29.214-42.09c-5.98-7.977-11.202-16.466-17.252-24.381c-1.177-1.541-2.414-3.349-0.713-5.398
		c0.335-0.332,0.671-0.665,1.006-0.998c12.772-1.088,25.142-4.448,37.697-6.745c17.795-3.256,35.532-6.82,53.294-10.252
		c1.14,2.565,3.959,0.163,5.459,1.881c2.153,2.466,5.091,4.342,5.423,8.076c0.099,1.116,0.377,2.309,1.225,3.215
		c10.547,11.281,18.485,24.431,26.894,37.262c2.708,4.133,5.055,8.637,9.021,11.856c1.195,0.971,1.975,2.227,2.406,3.712
		c0.325,1.123,0.561,2.561,1.475,3.111c5.418,3.264,6.709,9.663,10.785,13.864c2.424,2.498,4.148,5.118,4.457,8.604
		c0.058,0.648-0.043,1.561,0.574,1.833c7.874,3.476,9.222,12.209,14.396,17.937c7.097,7.856,11.057,18.198,17.975,26.153
		c4.521,5.196,7.34,11.478,12.547,16.38c3.718,3.501,6.683,8.862,9.409,13.688C629.168,497.34,628.967,501.681,624.999,504.833z"/>
	<path fill-rule="evenodd" clip-rule="evenodd" fill="#505FB0" d="M624.999,504.833c1.438-6.38-1.25-10.946-4.858-16.28
		c-3.813-5.639-9.799-9.643-11.996-16.631c-1.077-3.428-5.024-5.59-7.155-8.83c-8.19-12.457-16.538-24.812-24.864-37.179
		c-0.642-0.953-1.631-2.483-2.368-2.433c-5.937,0.407-3.898-4.01-4.505-6.923c-0.261-1.254-0.784-2.756-1.706-3.518
		c-5.3-4.375-8.531-10.579-12.35-15.904c-6.204-8.653-13.354-16.804-18.259-26.383c-3.592-7.017-9.272-12.539-13.379-19.175
		c-0.959-1.549-1.923-3.096-2.829-4.675c-1.995-3.475-3.494-4.358-7.606-4.251c1.48-6.466-0.878-11.068-6.881-13.776
		c-1.312-0.592-1.586-1.586-1.244-2.869c0.67-0.335,1.339-0.67,2.009-1.004c9.379-0.824,18.479-3.219,27.69-4.976
		c3.091-0.589,6.15-1.126,9.299-1.036c2.165,0.647,3.77,2,5.043,3.846c8.565,12.417,18.426,23.918,25.903,37.115
		c4.019,7.093,9.547,13.173,14.315,19.768c5.929,8.198,11.184,16.844,17.182,24.995c6.688,9.089,13.944,17.848,19.847,27.4
		c5.17,8.367,10.928,16.222,16.558,24.228c10.021,14.253,19.77,28.699,29.75,42.983c1.191,1.706,3.078,3.468,0.407,5.507
		C657,504.833,641,504.833,624.999,504.833z"/>
	<path fill-rule="evenodd" clip-rule="evenodd" fill="#5261AE" d="M377,504.833c-35.333,0-70.667,0-106.001,0
		c-4.668-1.531-6.629-5.508-9.284-9.244c-6.023-8.476-11.897-17.102-17.76-25.649c-4.574-6.669-9.823-12.814-14.428-19.444
		c-8.463-12.185-15.711-25.277-25.859-36.276c-1.805-1.956-2.828-4.538-3.938-6.898c-2.712-5.768-6.836-10.495-10.573-15.513
		c-0.961-1.291-1.565-2.513-1.106-4.11c0.482-0.695,1.083-1.06,1.943-0.704c0.669,0.003,1.338,0.006,2.008,0.009
		c0.331,0,0.666,1.014,0.991-0.004c6.408-2.498,13.266-3.023,19.921-4.365c20.841-4.2,41.75-8.067,62.639-12.028
		c1.787-0.339,3.625-0.412,5.438-0.608c4.812-1.469,7.371,1.562,9.59,4.968c7.609,11.678,15.658,23.053,23.719,34.414
		c15.07,21.236,29.498,42.917,44.855,63.964c6.132,8.404,12.5,16.774,17.681,25.882C377.853,501.007,379.662,502.891,377,504.833z"
		/>
	<path fill-rule="evenodd" clip-rule="evenodd" fill="#4A5BB1" d="M189.996,386.993c-0.334,0.334-0.669,0.667-1.003,1
		c-0.575,2.269-2.597,2.319-4.315,2.741c-10.338,2.541-20.885,4.042-31.291,6.245c-1.874,0.397-3.624-0.129-5.412-0.385
		c-2.127,0.095-3.482-0.996-5.089-2.413c-5.974-5.271-9.188-12.484-13.784-18.706c-9.97-13.498-18.794-27.799-28.83-41.264
		c-6.944-9.316-14.14-18.551-20.407-28.243c-7.481-11.57-15.644-22.671-23.107-34.251c-6.185-9.598-13.299-18.669-19.933-28.019
		c-6.517-9.186-13.581-17.991-19.45-27.63c-1.213-1.992-2.386-3.999-3.875-5.806c-4.276-5.192-7.51-10.985-9.88-17.271
		c-0.466-1.633,0.444-3.438-0.623-4.994c0-22.333,0-44.666,0.001-66.999c2.363,3.231,6.045,5.631,6.382,10.146
		c0.023,0.312,0.169,0.737,0.403,0.894c6.464,4.333,8.543,11.957,13.167,17.712c5.2,6.473,11.155,12.523,13.976,20.83
		c1.272,3.746,4.637,6.856,7.282,9.884c7.123,8.153,11.227,18.531,19.46,25.782c0.721,7.354,7.649,10.71,10.822,16.664
		c4.234,7.946,11.383,14.33,15.694,22.249c5.954,10.935,14.673,19.818,20.824,30.513c1.58,2.747,3.37,5.343,5.661,7.56
		c2.277,2.205,4.616,4.359,4.725,7.884c0.014,0.454,0.303,1.009,0.643,1.325c7.925,7.378,12.181,17.507,19.211,25.572
		c3.223,3.697,5.926,7.679,7.732,12.513c1.491,3.99,4.959,7.386,7.829,10.706c6.961,8.056,11.026,18.257,19.158,25.382
		c0.328,7.399,8.635,9.755,10.375,16.379C186.749,384.539,188.736,385.671,189.996,386.993z"/>
	<path fill-rule="evenodd" clip-rule="evenodd" fill="#5160AE" d="M377,504.833c-3.629-7.747-9.359-14.105-13.997-21.185
		c-10.906-16.646-23.455-32.126-34.204-48.901c-8.15-12.721-17.373-24.749-25.874-37.251c-4.845-7.124-10.592-13.607-14.717-21.253
		c-1.534-2.843-3.273-5.954-7.216-6.247c1.67-0.665,3.341-1.329,5.011-1.994c7.13-0.649,14.107-2.101,20.999-4.001
		c8.018-1.433,16.032-2.889,24.056-4.284c1.96-0.341,3.956-0.484,5.935-0.72c10.637-1.717,15.174,0.741,18.961,10.285
		c0.309,0.778,0.561,1.644,1.163,2.192c8.634,7.871,13.784,18.358,20.427,27.688c3.812,5.352,7.306,11.038,11.084,16.455
		c6.643,9.521,12.474,19.658,20.554,28.124c1.067,1.118,1.988,2.187,2.235,3.737c0.539,3.382,2.432,5.76,5.436,7.318
		c0.742,0.386,1.445,0.854,1.877,1.599c8.732,15.055,19.586,28.73,28.413,43.726c1.004,1.707,1.955,3.197-0.144,4.711
		C423.666,504.833,400.333,504.833,377,504.833z"/>
	<path fill-rule="evenodd" clip-rule="evenodd" fill="#5261AD" d="M192.995,386.998c2.076,0,4.152,0,6.228,0
		c-2.423,1.253-4.828,1.127-7.219,0.004C192.334,387,192.664,386.999,192.995,386.998z"/>
	<path fill-rule="evenodd" clip-rule="evenodd" fill="#4F5EB0" d="M673.001,504.833c-6.79-9.85-13.797-19.558-20.314-29.584
		c-8.662-13.325-18.805-25.592-27.287-39.045c-9.215-14.614-20.25-27.98-29.863-42.303c-6.921-10.312-14.802-19.938-21.387-30.423
		c-8.406-13.386-17.86-26-26.938-38.896c-1.232-1.751-2.151-3.722-3.216-5.591c0.002-0.33,0.004-0.66,0.006-0.99
		c10.666-2.003,21.332-4.007,31.998-6.011c28.001-5.329,56.001-10.657,84.002-15.986c3.477,1.024,6.231,2.946,7.907,6.261
		c2.051,4.054,5.62,6.957,8.385,10.444c6.778,8.553,11.83,18.352,19.359,26.312c0.942,0.997,1.698,2.102,2.13,3.345
		c2.402,6.922,7.201,12.387,11.586,17.935c5.287,6.689,9.072,14.269,13.911,21.206c2.677,3.838,5.884,7.198,8.749,10.812
		c6.881,8.675,12.006,18.62,19.652,26.694c0.946,1,1.609,2.132,2.115,3.355c3.288,7.959,9.145,14.16,14.064,21.027
		c4.146,5.786,7.665,12.041,11.454,18.089c2.506,3.999,5.874,7.203,8.724,10.842c6.723,8.585,11.888,18.295,19.271,26.351
		c2.202,2.402,2.278,4.227-0.312,6.156c-33.21,0.056-66.421,0.13-99.632,0.156C695.912,504.999,684.456,504.889,673.001,504.833z"/>
	<path fill-rule="evenodd" clip-rule="evenodd" fill="#4F5EB1" d="M806.999,504.833c-1.137-5.296-5.532-8.489-8.317-12.715
		c-4.504-6.831-9.396-13.409-14.186-20.05c-2.517-3.489-5.822-6.29-8.149-10.014c-6.841-10.944-14.729-21.224-21.655-32.069
		c-5.009-7.843-11.054-14.907-15.879-22.7c-8.774-14.167-19.539-26.864-28.731-40.733c-8.626-13.014-17.086-26.307-26.63-38.85
		c-7.926-10.415-16.506-20.498-23.449-31.698c0.334-0.331,0.667-0.662,1.001-0.993c3.331-0.337,6.663-0.675,9.995-1.012
		c5.125,0.569,6.709,5.095,9.107,8.486c9.671,13.674,19.513,27.253,28.537,41.35c5.634,8.801,12.189,16.898,17.915,25.613
		c4.815,7.331,10.458,14.116,15.658,21.199c5.206,7.09,9.258,14.922,14.532,22.01c11.371,15.278,21.576,31.39,33.019,46.641
		c6.255,8.339,12.453,16.756,17.707,25.853c3.97,6.873,9.782,12.586,13.527,19.683C816.334,504.833,811.666,504.833,806.999,504.833
		z"/>
	<path fill-rule="evenodd" clip-rule="evenodd" fill="#5160AF" d="M446.999,504.833c-6.254-9.335-12.752-18.519-18.669-28.062
		c-3.417-5.513-7.347-10.646-10.772-16.123c-1.086-1.735-2.094-3.24-3.891-4.339c-1.376-0.843-2.874-2.027-3.526-3.428
		c-5.551-11.93-14.871-21.277-21.784-32.222c-3.973-6.292-8.406-12.289-12.291-18.658c-3.139-5.145-6.839-10.149-10.241-15.202
		c-4.43-6.578-10.435-11.882-13.788-19.464c-2.454-5.549-7.299-10.521-15.043-8.338c3.184-1.424,6.558-1.9,10.007-1.999
		c0.333,0.727,0.661,0.48,0.989-0.004c0.003-0.331,0.008-0.662,0.013-0.993L348,356.002c1.492-1.216,3.512,0.212,5.004-1
		c4.133,0.135,7.965-1.53,11.996-2.007c13.54-2.609,27.077-5.23,40.621-7.816c2.446-0.467,4.919-0.788,7.38-1.177
		c8.982,12.747,17.962,25.496,26.948,38.24c13.574,19.252,27.453,38.298,40.625,57.821c8.438,12.507,17.944,24.253,25.812,37.166
		c4.042,6.636,8.91,12.77,13.395,19.137c1.912,2.715,4.026,5.309,5.221,8.467C499,504.833,473,504.833,446.999,504.833z"/>
	<path fill-rule="evenodd" clip-rule="evenodd" fill="#515FB2" d="M1274,176.002c6.812-0.621,13.5-1.863,20.01-3.999
		c0.337,0.01,0.674,0.019,1.011,0.027c1.494,0.835,3.319,0.817,4.076,3.103c2.584,7.807,7.692,14.235,12.203,20.959
		c4.423,6.592,9.719,12.523,14.231,19.105c4.745,6.923,10.896,13.025,15.076,20.343c7.668,13.421,17.848,25.124,25.514,38.559
		c2.779,4.869,5.896,10.128,11.319,13.02c0.443,0.237,0.941,0.545,1.079,1.005c3.402,11.375,13.587,18.224,18.887,28.31
		c6.967,13.259,17.545,24.157,24.375,37.498c0.687,1.342,1.703,2.461,2.653,3.622c4.075,4.974,3.908,6.303-1.295,10.465
		c-4.368,0.329-7.98-1.981-11.749-3.551c-33.595-13.985-67.09-28.215-100.051-43.647c-9.237-4.325-19.037-7.605-27.378-13.753
		c-0.669-0.492-1.597-0.396-2.423-0.498c-3.697-0.701-6.86-2.3-9.129-5.404c-0.033-1.392,0.021-2.586-0.931-4.01
		c-11.357-16.992-23.82-33.202-35.392-50.031c-9.754-14.185-19.828-28.149-29.353-42.496c-2.626-3.955-5.321-8.093-9.722-10.523
		c-0.825-0.456-1.049-1.228-1.023-2.107c1.67-0.661,3.34-1.321,5.011-1.981c8.22-0.219,16.086-2.593,24.081-4.102
		C1241.429,182.827,1257.698,179.33,1274,176.002z"/>
	<path fill-rule="evenodd" clip-rule="evenodd" fill="#5260B2" d="M1195.99,191.996c3.519-0.343,5.656,1.313,7.819,4.118
		c7.776,10.09,14.837,20.728,22.163,31.092c7.525,10.647,14.386,21.847,22.221,32.345c9.019,12.084,17.72,24.385,25.734,37.165
		c0.737,1.175,1.833,2.146,0.067,3.286c-1.135,2.356-2.871,1.635-4.638,0.934c-3.549-1.405-7.049-2.907-10.464-4.623
		c-23.718-11.913-47.509-23.68-71.188-35.67c-1.484-0.752-2.99-1.434-4.576-1.931c-1.671-0.468-3.344-0.935-4.459-2.428
		c-2.641-1.417-4.437-4.071-7.379-5.044c-23.331-11.059-45.744-23.828-68.197-36.525c-2.01-1.137-3.228-2.325-2.085-4.713
		c6.664-1.337,13.327-2.674,19.991-4.011c21.714-4.175,43.425-8.365,65.146-12.504
		C1189.403,192.866,1192.707,192.487,1195.99,191.996z"/>
	<path fill-rule="evenodd" clip-rule="evenodd" fill="#5160AE" d="M347.99,356.994c0.19,0.374,0.381,0.749,0.571,1.124
		c-0.269,0.128-0.569,0.405-0.801,0.357c-0.793-0.167-0.791-0.835-0.76-1.478C347.33,356.996,347.66,356.994,347.99,356.994z"/>
	<path fill-rule="evenodd" clip-rule="evenodd" fill="#4B5AB3" d="M1101.009,210.002c10.283,7.028,21.369,12.67,32.278,18.606
		c11.216,6.104,22.56,11.971,33.81,18.011c1.737,0.934,3.273,2.243,4.903,3.378c4.762,5.145,9.773,10.002,13.282,16.269
		c2.898,5.178,5.962,10.332,9.924,14.889c1.635,1.88,2.928,4.021,5.155,5.306c0.433,0.249,1.104,0.408,1.24,0.796
		c2.021,5.718,6.927,9.587,9.548,14.784c1.43,2.836,2.36,5.689,5.061,7.625c0.92,0.66,1.881,1.454,2.418,2.498
		c4.954,9.626,11.7,18.066,17.872,26.875c5.045,7.201,8.926,15.157,14.617,21.945c1.715,2.046,3.116,4.288,5.512,5.641
		c0.577,0.325,0.196-0.272,0.394,0.259c2.412,6.533,8.8,10.592,10.799,17.318c0.576,1.939,0.747,3.663,3.143,4.457
		c1.467,0.486,2.774,1.983,3.548,3.405c8.024,14.746,19.165,27.435,27.566,41.964c2.808,4.856,5.872,10.133,11.292,13.031
		c1.288,0.689,1.797,1.938,2.02,3.286c0.403,2.438,1.822,4.265,3.518,5.9c2.673,2.579,5.06,5.283,5.254,9.267
		c0.032,0.646,0.066,1.426,0.636,1.835c8.214,5.9,11.8,15.253,17.312,23.166c2.277,3.27,5.072,6.14,7.09,9.626
		c1.036,1.79,1.819,3.201-0.199,4.695c-25.676,0-51.352-0.001-77.028-0.001c-4.635-1.826-7.402-5.38-9.94-9.572
		c-5.335-8.812-11.698-16.956-17.525-25.454c-5.077-7.403-9.789-15.188-15.632-21.906c-6.818-7.841-11.323-17.102-17.605-25.25
		c-7.38-9.572-13.591-20.059-20.716-29.857c-7.42-10.205-14.455-20.696-22.579-30.396c-2.417-2.887-3.552-6.774-5.79-9.872
		c-14.108-19.528-27.101-39.837-41.625-59.079c-9.683-12.825-17.985-26.64-27.354-39.676c-8.33-11.591-15.234-24.264-25.378-34.519
		c-0.926-0.936-1.285-1.882-1.037-3.132c0.343-0.859,1.068-1.27,1.852-1.622c7.784-3.043,16.041-3.886,24.182-5.259
		c2.046-0.346,3.712,0.395,5.173,1.757C1099,210.664,1100.004,210.333,1101.009,210.002z"/>
	<path fill-rule="evenodd" clip-rule="evenodd" fill="#4252B3" d="M1069,215.995c-0.338,0.333-0.677,0.665-1.015,0.998
		c-0.884,3.167-3.868,2.842-6.072,3.264c-6.649,1.272-13.269,2.713-19.939,3.837c-5.015,0.274-8.764-2.835-10.91-6.35
		c-5.895-9.653-12.371-18.809-19.363-27.68c-2.943-3.733-4.07-8.771-7.575-12.234c-6.069-5.996-10.396-13.315-15.464-20.073
		c-2.507-3.344-4.039-7.246-6.482-10.641c-2.727-3.785-2.059-4.795,2.822-5.119c12.501,6.568,23.9,14.938,36.072,22.043
		c6.296,3.676,12.617,7.309,18.927,10.961c1.333,0.999,2.667,1.998,4,2.997c10.918,8.737,16.467,21.55,24.57,32.423
		C1069.812,212.087,1071.522,213.938,1069,215.995z"/>
	<path fill-rule="evenodd" clip-rule="evenodd" fill="#4151B3" d="M1069,215.995c-7.602-11.012-14.26-22.673-22.752-33.069
		c-1.201-1.471-1.807-3.145-2.248-4.928c13.466,7.769,26.922,15.554,40.404,23.293c3.439,1.975,6.992,3.754,10.436,5.723
		c1.535,0.877,3.386,1.644,3.155,3.981C1088.33,212.662,1078.665,214.329,1069,215.995z"/>
	<path fill-rule="evenodd" clip-rule="evenodd" fill="#4859B2" d="M353.004,355.002c-1.562,0.864-3.27,1-5.004,1
		C349.562,355.134,351.27,355,353.004,355.002z"/>
	<path fill-rule="evenodd" clip-rule="evenodd" fill="#515FB3" d="M1423,366.002c1.561-1.996,1.4-4.18,0.01-5.994
		c-8.863-11.559-15.891-24.358-24.888-35.899c-4.06-5.207-7.126-11.666-11.105-17.295c-1.54-2.179-3.012-4.299-4.953-6.182
		c-2.46-2.385-5.257-4.704-5.284-8.688c-0.005-0.734-0.495-1.694-1.075-2.162c-10.208-8.244-14.973-20.496-22.65-30.592
		c-3.81-5.009-8.073-9.962-11.088-15.218c-3.364-5.865-6.986-11.439-10.835-16.958c-1.623-2.329-3.218-4.554-5.272-6.555
		c-5.216-5.08-7.53-12.268-12.717-17.511c-4.158-4.204-7.578-9.294-10.67-14.254c-3.153-5.059-6.706-10.35-7.452-16.664
		c11.199-2.08,22.394-4.18,33.599-6.225c2.104-0.384,4.249-0.546,6.375-0.811c3.395-0.941,5.315,1.37,7.033,3.518
		c5.093,6.365,9.654,13.142,14.371,19.777c6.928,9.745,14.208,19.288,20.646,29.324c6.571,10.248,13.871,19.944,20.712,29.976
		c9.183,13.464,18.803,26.632,28.214,39.939c5.661,8.006,12.176,15.665,14.865,25.468c-0.003,20.004-0.006,40.009-0.008,60.014
		C1436.676,376.081,1423.741,370.994,1423,366.002z"/>
	<path fill-rule="evenodd" clip-rule="evenodd" fill="#505EB3" d="M1440.834,312.997c-3.224-2.055-4.835-5.528-6.805-8.496
		c-18.002-27.118-37.521-53.171-55.938-79.985c-12.681-18.462-25.547-36.783-38.496-55.051c-1.248-1.761-2.527-3.538-4.602-4.47
		c0.335-0.331,0.67-0.662,1.006-0.993c17.089-2.892,34.173-5.81,51.007-9.999c8.481-0.937,16.833-2.529,25.009-4.997
		c9.799-0.588,19.21-3.407,28.831-5.021c0.051,35.73,0.132,71.462,0.142,107.193
		C1440.995,271.784,1440.889,292.391,1440.834,312.997z"/>
	<path fill-rule="evenodd" clip-rule="evenodd" fill="#4454B1" d="M1405,148.001c-0.85,0.392-1.66,1.058-2.677,0.399
		C1403.023,146.918,1404.079,147.916,1405,148.001z"/>
	<path fill-rule="evenodd" clip-rule="evenodd" fill="#4252B4" d="M985.001,141.997c-0.594,1.126-2.157,1.609-0.78,3.647
		c7.286,10.779,13.759,22.138,23.145,31.372c0.812,0.8,1.546,1.784,2.008,2.819c4.363,9.778,12.062,17.268,17.812,26.089
		c3.021,4.634,5.183,9.824,9.648,13.519c1.335,1.104,2.866,1.559,4.166,2.53c-0.757,2.866-3.373,2.961-5.51,3.409
		c-16.872,3.539-33.812,6.733-50.771,9.826c-2.737,0.499-5.496,0.163-8.245,0.068c-2.012-0.45-4.194,0.006-5.499-2.521
		c-7.025-13.609-16.88-25.334-25.357-37.974c-9.218-13.744-19.717-26.531-28.663-40.489c-7.032-10.974-13.974-22.083-21.948-32.474
		c-9.055-11.797-17.434-24.099-26.282-36.054c-3.839-5.185-6.688-11.051-11.184-15.818c-1.526-1.619-2.556-3.907-2.779-6.304
		c-0.416-4.458,1.806-6.094,6.241-4.646c4.723,2.036,8.075,6.295,12.997,8.008c2.887,3.838,7.231,5.829,11.037,8.428
		c17.565,11.995,35.246,23.82,52.948,35.613c11.062,7.368,22.222,14.589,33.368,21.828c1.8,1.169,3.76,2.091,5.646,3.127
		C979.667,138,982.334,139.998,985.001,141.997z"/>
	<path fill-rule="evenodd" clip-rule="evenodd" fill="#4252B3" d="M861.003,58.998c-3.755,0.924-4.154,3.176-2.788,6.435
		c1.65,3.936,4.998,6.585,7.25,10.1c6.516,10.165,13.589,19.916,21.248,29.326c4.14,5.087,7.35,11.173,11.344,16.631
		c8.599,11.752,16.768,23.838,24.667,36.074c4.229,6.549,8.928,12.743,13.237,19.219c0.823,1.235,1.748,2.446,2.819,3.465
		c3.023,2.876,5.503,5.874,7,10.031c2.095,5.818,7.281,9.77,10.879,14.728c6.616,9.12,12.7,18.497,18.035,28.396
		c0.181,0.336,0.857,0.405,1.304,0.598c0.296,1.533-0.794,1.4-1.754,1.506c-1.417,0.156-2.926-0.451-4.251,0.492
		c-3.329,0.337-6.658,0.673-9.987,1.01c-11.73-16.686-23.503-33.344-35.181-50.066c-9.535-13.653-18.647-27.614-28.516-41.02
		c-10.307-14.003-19.996-28.449-30.272-42.476c-7.444-10.162-14.968-20.512-21.578-31.396c-5.246-8.636-11.851-16.438-17.231-25.002
		c-3.647-5.804-8.041-10.944-12.153-16.345c-1.276-1.675-2.973-3.384-1.071-5.705c3.199,2.525,6.246,5.269,10.002,6.998
		c2.354-0.36,2.462,2.269,3.995,3.002c1,0.666,2,1.331,3,1.997C841.001,44.329,851.002,51.664,861.003,58.998z"/>
	<path fill-rule="evenodd" clip-rule="evenodd" fill="#4454B1" d="M1409.186,63.656c0.688,0.152,1.156,0.585,1.142,1.278
		c-0.021,0.964-0.619,1.424-1.56,1.176c-0.675-0.178-1.044-0.734-0.934-1.448C1407.947,63.935,1408.462,63.624,1409.186,63.656z"/>
	<path fill-rule="evenodd" clip-rule="evenodd" fill="#4B5CB2" d="M2.998,187.998C3.865,189.559,4,191.266,4,193
		c2.185,3.045,2.333,6.615,2.45,10.133c0.156,4.657,0.421,9.361-0.057,13.973c-0.53,5.111,1.315,9.275,4.491,12.686
		c3.976,4.271,6.957,9.297,10.994,13.477c0.708,0.732,1.333,1.524,1.67,2.46c2.24,6.205,5.896,11.645,10.14,16.505
		c6.598,7.557,9.823,17.271,16.504,24.719c0.988,1.102,1.732,2.433,2.81,3.489c3.067,3.005,5.762,6.053,7.439,10.312
		c1.793,4.555,6.143,7.693,9.081,11.738c4.856,6.686,9.876,13.184,13.796,20.52c2.737,5.123,6.18,9.882,10.352,13.997
		c2.011,1.983,2.351,4.735,3.693,7.001c3.722,6.284,7.96,12.198,12.93,17.569c2.458,2.657,4.47,5.434,6.041,8.886
		c2.097,4.605,6.047,8.263,10.451,11.062c3.417,2.172,3.527,2.734,0.39,5.352c0.126,0.089,0.274,0.054,0.411,0.062
		c2.274,0.133,2.927,1.255,2.042,3.338c-2.582,2.116-5.825,2.331-8.877,2.939c-27.215,5.428-54.483,10.585-81.705,15.98
		c-3.77,0.748-7.842,0.126-11.286,2.392c-0.98,0.462-2.058,0.356-3.086,0.516c-9.858,0.488-18.554-6.834-20.641-17.443
		c-0.192-0.975-0.193-1.96-1.03-2.659C3.001,330.666,3,259.332,2.998,187.998z"/>
	<path fill-rule="evenodd" clip-rule="evenodd" fill="#5362AC" d="M24.003,419.001c1,0.001,2,0.002,3,0.002
		c4.592,0.007,6.627,3.056,9.56,6.217c5.384,5.803,8.478,12.913,13.168,19.036c3.707,4.839,7.613,9.585,10.405,15.097
		c4.518,8.918,11.622,16.08,16.847,24.52c3.66,5.91,6.922,12.084,12.267,16.77c1.566,1.373,1.413,2.889-0.251,4.191
		c-5.333,0-10.666,0-15.998-0.001c-0.12-4.503-3.073-7.604-5.434-11.004c-9.188-13.226-18.307-26.5-27.57-39.673
		c-6.989-9.938-14.175-19.739-21.226-29.635c-0.752-1.056-1.189-2.337-1.772-3.513C18.813,418.521,21.839,420.268,24.003,419.001z"
		/>
	<path fill-rule="evenodd" clip-rule="evenodd" fill="#4C5DB1" d="M24.003,419.001c-2.335,0.669-4.669,1.338-7.004,2.006
		c-2.78,0.447-5.592,0.752-8.332,1.375c-3.867,0.88-5.694-0.458-5.656-4.463c0.05-5.306,0-10.612-0.007-15.919
		c2.803,2.258,4.988,4.786,6.439,8.303C12.021,416.549,16.577,420.418,24.003,419.001z"/>
	<path fill-rule="evenodd" clip-rule="evenodd" fill="#4C5BB3" d="M969.993,235.997c2.002-0.666,4.003-1.332,6.005-1.998
		c18.565-3.479,37.13-6.964,55.699-10.43c3.092-0.577,6.201-1.065,9.303-1.595c8.893-2.217,17.839-4.143,26.985-4.981
		c4.757,1.166,6.615,5.61,8.952,8.938c7.044,10.029,13.978,20.162,20.943,30.242c11.23,16.254,22.076,32.789,34.104,48.505
		c7.646,9.992,14.692,20.45,21.522,31.05c5.841,9.062,12.249,17.761,18.466,26.578c8.23,11.674,16.345,23.436,24.841,34.914
		c6.026,8.144,11.355,16.739,17.153,25.023c8.074,11.539,16.216,23.032,24.396,34.497c7.992,11.201,16.313,22.18,23.994,33.589
		c3.233,4.802,6.33,9.72,9.613,14.504c-32.16,0.056-64.321,0.106-96.482,0.173c-2.83,0.006-5.659,0.105-8.489,0.161
		c-0.666-0.111-1.333-0.222-2-0.333c-8.885-11.554-15.775-24.458-24.622-36.067c-4.265-5.597-8.868-11.085-11.691-17.747
		c-1.575-3.717-3.445-4.474-7.59-4.282c1.462-4.819-0.496-8.257-4.143-11.29c-2.121-1.765-4.115-3.929-4.087-7.132
		c0.011-1.201-0.63-2.208-1.589-2.991c-8.279-6.767-12.896-16.246-18.586-24.951c-3.896-5.961-7.711-12.085-12.432-17.356
		c-3.216-3.592-4.899-7.812-7.36-11.691c-1.765-2.782-3.233-6.048-8.031-4.057c1.655-5.261-0.14-8.583-3.67-11.553
		c-2.229-1.876-4.391-4.133-4.357-7.533c0.013-1.204-0.707-2.165-1.669-2.942c-8.199-6.618-12.74-15.969-18.295-24.56
		c-4.319-6.678-8.87-13.206-14.066-19.218c-2.679-3.101-3.735-6.993-5.977-10.253c-1.531-2.228-2.529-5.144-6.322-4.384
		c-2.174,0.436-1.255-1.436-1.106-2.307c0.532-3.118-0.569-5.372-2.892-7.48c-2.8-2.541-5.76-5.141-5.818-9.475
		c-0.008-0.585-0.432-1.35-0.905-1.716c-8.238-6.354-12.728-15.596-18.3-23.961C978.616,237.574,975.187,235.312,969.993,235.997z"
		/>
	<path fill-rule="evenodd" clip-rule="evenodd" fill="#5362AD" d="M88.999,504.833c-9.959-9.175-14.783-22.09-23.392-32.212
		c-7.707-9.061-11.649-20.675-20.338-29.086c-2.137-2.068-2.83-5.569-4.441-8.258c-1.383-2.309-2.514-5.338-6.225-4.398
		c-1.328,0.336-1.568-0.404-1.352-1.282c1.378-5.604-3.074-7.711-6.248-10.594c33.996-6.671,67.992-13.341,101.988-20.012
		c3.457-4.221,11.097-5.81,16.889-3.514c4.414,1.033,7.551,3.202,9.769,7.591c3.132,6.197,7.943,11.447,11.729,17.275
		c8.754,13.476,18.527,26.236,27.304,39.688c8.346,12.792,17.807,24.793,26.58,37.283c1.597,2.273,3.76,4.414,1.724,7.519
		c-34.204,0.056-68.407,0.128-102.611,0.157C109.915,504.999,99.457,504.889,88.999,504.833z"/>
	<path fill-rule="evenodd" clip-rule="evenodd" fill="#5261AD" d="M222.984,504.833c-9.055-13.521-18.943-26.45-28.328-39.73
		c-6.023-8.524-11.858-17.198-17.777-25.803c-9.939-14.448-19.783-28.966-29.881-43.308c-0.702-0.335-0.699-0.664,0.007-0.988
		c10.371-1.065,20.501-3.487,30.714-5.445c3.731-0.716,7.423-1.702,11.272-1.565c5.281,3.316,8.424,8.821,10.965,13.861
		c5.062,10.04,12.551,18.196,18.75,27.315c2.71,3.986,4.917,8.279,7.799,12.127c5.229,6.98,10.746,13.751,15.81,20.847
		c7.272,10.189,14.293,20.56,21.324,30.919c2.597,3.826,4.915,7.842,7.36,11.771C254.995,504.833,238.989,504.833,222.984,504.833z"
		/>
	<path fill-rule="evenodd" clip-rule="evenodd" fill="#4958B3" d="M828,34.997c-1.73-0.471-2.865-1.732-3.995-3.002
		C826.643,31.258,827.299,33.157,828,34.997z"/>
	<path fill-rule="evenodd" clip-rule="evenodd" fill="#4A59B4" d="M1423,366.002c5.736,2.86,11.593,5.411,17.826,7.009
		c0.109,0.334,0.221,0.668,0.33,1.002c-0.052,34.814-0.099,69.628-0.16,104.442c-0.016,8.827-0.078,17.655-0.119,26.482
		c-7.291-0.034-14.584-0.069-21.875-0.104c-4.885-2.998-7.694-7.787-11.135-12.167c-8.526-10.856-15.172-22.971-23.604-33.896
		c-6.275-8.134-11.379-17.176-17.508-25.459c-7.115-9.616-13.341-19.905-21.321-28.855c-2.646-2.969-3.577-6.723-5.755-9.873
		c-5.58-8.073-11.836-15.662-17.031-24.014c-8.609-13.842-18.646-26.707-28.122-39.936c-4.731-6.605-9.314-13.294-13.731-20.097
		c-1.178-1.813-3.874-4.745,1.208-5.543c8.027,1.922,14.972,6.39,22.322,9.814c37.114,17.292,74.746,33.38,112.536,49.112
		C1418.852,364.748,1420.951,365.313,1423,366.002z"/>
	<path fill-rule="evenodd" clip-rule="evenodd" fill="#4B5AB4" d="M1282.003,304.993c-0.62,1.435,0.004,2.804,0.796,3.749
		c4.698,5.599,7.537,12.365,12.229,18.104c5.846,7.148,11.078,14.934,16.424,22.549c9.83,14.004,19.718,27.996,29.117,42.265
		c9.41,14.285,20.092,27.621,29.46,41.919c8.463,12.915,18.135,25.039,26.592,37.958c6.727,10.275,13.902,20.188,21.164,30.064
		c0.657,0.893,0.822,2.146,1.217,3.232c-23.335,0.001-46.669,0.001-70.003,0.001c-5.941-8.588-11.899-17.164-17.809-25.774
		c-1.026-1.496-1.718-3.229-2.788-4.688c-1.245-1.696-2.474-4.272-4.851-3.689c-3.405,0.836-2.28-1.148-2.102-2.61
		c0.229-1.875,0.444-4.196-0.828-5.271c-5.062-4.275-7.176-10.699-11.728-15.314c-5.977-6.058-10.346-13.359-14.805-20.5
		c-5.979-9.573-12.719-18.606-18.956-27.989c-0.914-1.375-1.589-2.91-2.526-4.267c-1.298-1.878-2.517-4.554-5.143-4.026
		c-2.684,0.538-2.396-0.573-2.092-2.223c0.373-2.03,0.621-4.566-0.794-5.746c-5.104-4.255-7.149-10.721-11.739-15.313
		c-6.02-6.021-10.335-13.366-14.795-20.506c-5.894-9.432-12.555-18.316-18.66-27.589c-0.999-1.518-1.771-3.188-2.82-4.668
		c-1.312-1.852-2.506-4.538-5.181-3.947c-2.896,0.639-2.214-0.874-1.987-2.312c0.351-2.221,0.54-5.004-1.081-6.166
		c-5.649-4.052-7.321-10.958-12.153-15.669c-6.164-6.011-10.387-13.691-14.88-21.028c-2.259-3.688-4.462-7.256-7.893-10.065
		c-1.426-1.168-4.35-2.816-1.39-5.475c2.668,1.337,5.336,2.673,8.005,4.01c1.105,1.117,2.699,1.256,3.995,1.993
		c25.122,12.561,50.224,25.162,75.384,37.646c4.752,2.358,9.735,4.249,14.611,6.356
		C1276.664,301.666,1279.334,303.33,1282.003,304.993z"/>
	<path fill-rule="evenodd" clip-rule="evenodd" fill="#4B5CB1" d="M147.005,395.004c-0.003,0.329-0.005,0.659-0.007,0.989
		c-6.135,0.205-11.967,2.228-18.007,2.998c-1.926-0.977-3.851-1.954-5.957-3.022c0.873-1.439,2.566,0.272,3.427-1.085
		c-0.356-0.252-0.705-0.53-1.082-0.762c-5.348-3.285-9.539-7.727-12.283-13.317c-0.795-1.619-1.22-3.371-2.591-4.682
		c-6.167-5.895-11.486-12.71-15.356-20.087c-4.66-8.881-12.312-15.688-16.399-24.532c-3.766-8.149-9.491-14.66-14.675-21.514
		c-8.291-10.959-16.944-21.731-24.28-33.28c-5.481-8.629-12.465-16.266-17.139-25.229c-4.624-8.867-10.481-16.407-17.542-23.252
		c-1.452-1.407-1.073-3.438-1.082-5.233C3.985,212.998,4.004,202.999,4,193c5.74,5.813,9.578,13.031,14.307,19.584
		c7.756,10.745,15.378,21.616,22.816,32.561c7.369,10.842,16.012,20.774,22.503,32.264c3.742,6.623,8.737,12.535,13.132,18.793
		c4.952,7.048,9.647,14.288,14.847,21.147c7.015,9.255,12.814,19.352,20.398,28.234c5.05,5.915,8.231,13.235,12.904,19.534
		c6.713,9.047,13.005,18.405,19.536,27.59C145.092,393.619,146.142,394.245,147.005,395.004z"/>
	<path fill-rule="evenodd" clip-rule="evenodd" fill="#4B5AB3" d="M1184,256c-1.593-0.142-2.964-0.728-3.996-1.994
		C1181.336,254.671,1182.668,255.336,1184,256z"/>
</g>
</svg>
