<?xml version="1.0" encoding="utf-8"?>
<!-- Generator: Adobe Illustrator 16.0.0, SVG Export Plug-In . SVG Version: 6.00 Build 0)  -->
<!DOCTYPE svg PUBLIC "-//W3C//DTD SVG 1.1//EN" "http://www.w3.org/Graphics/SVG/1.1/DTD/svg11.dtd">
<svg version="1.1" id="Capa_1" xmlns="http://www.w3.org/2000/svg" xmlns:xlink="http://www.w3.org/1999/xlink" x="0px" y="0px"
	 width="800px" height="800px" viewBox="0 0 800 800" enable-background="new 0 0 800 800" xml:space="preserve">
<g>
	<path fill="#4857B7" d="M400,0C179.44,0,0,179.442,0,400.002C0,620.562,179.44,800,400,800c220.56,0,400-179.438,400-399.998
		C800,179.442,620.56,0,400,0z M400,727.272c-180.46,0-327.273-146.812-327.273-327.271C72.727,219.544,219.54,72.728,400,72.728
		c180.461,0,327.272,146.817,327.272,327.274C727.272,580.461,580.458,727.272,400,727.272z"/>
	<path fill="#4857B7" d="M399.995,169.697c-26.729,0-48.476,21.76-48.476,48.507c0,26.723,21.746,48.463,48.476,48.463
		s48.476-21.741,48.476-48.463C448.471,191.457,426.725,169.697,399.995,169.697z"/>
	<path fill="#4857B7" d="M400,339.394c-20.082,0-36.363,16.281-36.363,36.364v218.182c0,20.082,16.281,36.363,36.363,36.363
		s36.363-16.281,36.363-36.363V375.758C436.363,355.675,420.082,339.394,400,339.394z"/>
</g>
</svg>
