<svg id="Layer_1" data-name="Layer 1" xmlns="http://www.w3.org/2000/svg" viewBox="0 0 564.19 543.53"><defs><style>.cls-1{fill:#48bfad;}.cls-2{fill:#e3117f;}.cls-3{fill:#4dbfab;}.cls-4{fill:#49bfae;}.cls-5{fill:#4cbfac;}.cls-6{fill:#4bbfac;}.cls-7{fill:#4abfac;}.cls-8{fill:#4bbfaf;}.cls-9{fill:#52c1b0;}.cls-10{fill:#7ac7b4;}.cls-11{fill:#e4127c;}</style></defs><title>Untitled-1</title><path class="cls-1" d="M342.75,255.55c4.52-27.49,8.89-58.49,17.67-88.55,2.48-8.49,9-14.08,18.84-16.09,16.82-3.42,33.26-8.47,49.62,1.73,4.11,2.57,9.24,1.64,12.95-1.58,7.19-6.24,14.08-5,21.88-1.05,11.86,6,23.43,12.35,35.82,17.5,21.15,8.79,26.76,41.44,12.27,58.86-11.93,14.34-6.19,30.63-1.54,45.2,3.68,11.52,9.37,22.08.61,32.76-11.79,14.38-22.74,31.47-44,31.74s-38.35-10.5-51.4-26.71c-5.67-7-4.77-14.64,4.16-20.08,7.09-4.31,14.49-8.89,15.78-18.24.43-3.09,1.62-7.16-2.15-9s-7-.07-9.73,3.27c-4.94,6.15-10.45,11.86-15.25,18.11-12.75,16.63-22.36,20.62-38,15.24C355.46,293.58,342.55,275,342.75,255.55Z" transform="translate(-45.29 -30.5)"/><path class="cls-2" d="M186.47,414.25c-19.79-.25-48.84-25.83-51.63-44.45-1.14-7.55,3.31-13.46,5.5-20,6.11-18.18,10.8-35.09-4.12-52.58-11.67-13.68.12-47,18.38-52.89,12.52-4.06,23.05-11.42,35-16.23,7.77-3.13,15-4.65,22.26,1.18,5.23,4.21,10.85,3,16.43.38,18.32-8.52,36.09-2.44,53.46,3.08,4.87,1.55,9.59,6.63,10.9,12.93,4.16,20,9.51,39.69,10.72,60.26.56,9.36,4,18.5,5.3,27.85,4,28-26.09,53-51.37,43.05-11.17-4.38-13.77-16.34-21.89-23.35-1.85-1.6-3.08-3.91-4.77-5.73-3.52-3.79-7.32-11-12.48-7.38-6,4.17-2.21,11.41.92,16.88,2.54,4.44,6.83,7.19,11.09,9.88,9.61,6.08,12.1,15,4.57,22.59C221.27,403.29,205.45,413.2,186.47,414.25Z" transform="translate(-45.29 -30.5)"/><path class="cls-3" d="M279.64,523.1c0-17.59.1-32.44,0-47.29-.09-9.13,3.24-13.87,13.3-13.7s14.58,4.08,14.51,14.19c-.18,27.18-.06,54.36-.06,81.55,0,5.94.32,12.8-7,14.23-7.05,1.38-14.9,3.32-20.53-4.42-9-12.45-18.45-24.65-27.55-37.07-3.7-5.06-7.28-10.15-13.58-14.39-2.79,13.63-1.17,26.79-1.26,39.8-.07,10-1.55,17.21-14.12,17.11-12.73-.1-13.93-8-13.91-17.57,0-25.51,0-51,.12-76.53,0-6.12-1.16-13.61,6.69-15.88,8.38-2.43,16.47-1.64,22.37,6.48,11.27,15.53,22.8,30.86,34.28,46.23C274.21,517.7,276,519.25,279.64,523.1Z" transform="translate(-45.29 -30.5)"/><path class="cls-4" d="M101.78,531c0,12.65-.24,21.35.07,30,.28,7.92-3.41,11.51-11,11.93s-14.35-.86-16.1-10a33.22,33.22,0,0,1-.49-6.23c0-26.35.09-52.71,0-79.06-.06-9.92,2.94-15.44,14.36-15.71,12.17-.28,13.89,6,13.38,15.67-.39,7.44-.08,14.92-.08,25.65,11.67-13.13,21.58-24,31.11-35.13,6.52-7.64,13-9.53,21.34-2.59,8.65,7.21,7.57,13.24-.22,20.46-8.85,8.21-16.72,17.46-25.27,26-4,4.06-4.56,6.71.21,11.09,9.19,8.44,17.35,18,26.28,26.74,6.74,6.6,7.15,12.13-.15,18.84s-13.74,7.53-20.42,0C124.49,557.19,114.46,545.52,101.78,531Z" transform="translate(-45.29 -30.5)"/><path class="cls-2" d="M144.39,196.11c1.05-6.39-1.61-11.64-6.61-17-10.89-11.75-23.39-22.86-21.76-41.59.6-6.9,2.39-12.5,8.82-15.14,6.84-2.8,12.58.93,16.43,6,7,9.18,14.14,18.26,16,30.56,1.81,12,6.56,23.28,15.69,32,7.1,6.75,12.46,14.55,7.55,24.19-3.94,7.74-12,8.5-19.76,5.79-10-3.5-18.34-8.68-16.66-21.45C144.19,198.54,144.24,197.7,144.39,196.11Z" transform="translate(-45.29 -30.5)"/><path class="cls-5" d="M538.57,64.26c.58,11.45-6.09,19.56-13.22,27.13-9.8,10.38-18.94,20.15-17,36.63,1.37,11.41-10.39,12.48-18.09,15.44-6.21,2.38-12.48.88-16.66-5-5.45-7.64-2.4-14.7,3.11-20.25,12.47-12.58,18.95-27.6,22.44-44.78,1.32-6.45,7-12.06,10.85-17.95,5-7.61,11.6-12.4,21-9.23C539.83,49.23,538.3,57.28,538.57,64.26Z" transform="translate(-45.29 -30.5)"/><path class="cls-6" d="M590,100.69c9-.54,14.58,4.1,17.12,11,3.28,9,.83,17.75-7.08,23.31-8.45,6-17.7,10.81-26.83,15.71-8.81,4.72-16.92,9.11-21.6,19.32a22.8,22.8,0,0,1-20,13.12c-7.07.05-10-6.47-12.53-12.35-2.42-5.51-.9-9.56,3.76-13,20.25-14.75,37.8-32.46,55.19-50.35C581.46,104,584.87,100,590,100.69Z" transform="translate(-45.29 -30.5)"/><path class="cls-7" d="M171.29,517.73c0-14.21.14-28.42,0-42.63-.14-9.66,4.27-13.07,13.85-13,9.34,0,12.72,3.89,12.69,12.71q-.15,43.26.14,86.52c.07,9.75-5.37,11.84-13.72,11.7-7.88-.12-12.84-2.26-12.65-11.39.29-14.62.08-29.25.08-43.88Z" transform="translate(-45.29 -30.5)"/><path class="cls-2" d="M242.69,181.32c-.34,6.17.06,12.57-1.23,18.62-1.58,7.43-5.91,12.79-14.78,12.26-8.36-.5-13.21-5.18-14.51-12.93-1.09-6.5-1.61-13.15,1.62-19.6,7-13.9,5.42-27.46-2.86-40.35-1.81-2.83-3.77-5.42-4.1-8.94-.81-8.78-.62-17.06,9.69-20.47,10.11-3.34,14.92,2.9,17.78,10.89C241.28,140.32,240.11,161,242.69,181.32Z" transform="translate(-45.29 -30.5)"/><path class="cls-3" d="M412.36,100.58a369.81,369.81,0,0,1,4.91-47.2,44.08,44.08,0,0,1,1.64-7.32c4.52-12.92,12-18.12,20.56-14.38,9.33,4.1,12,15.66,5.19,26.87-9.09,15-11.42,30-3.26,46.11a19.19,19.19,0,0,1,.78,14.7c-2.72,8.26-7.8,16.26-17.36,15.26-9.06-.94-12.26-9.06-12.44-17.78C412.27,111.42,412.36,106,412.36,100.58Z" transform="translate(-45.29 -30.5)"/><path class="cls-2" d="M77.22,185.92l36.89,36.38c-.39,6.67,6.51,6.56,9.49,10.13,4.06,4.86,13.76,7.11,7.58,16.45-5.33,8.07-12.2,9.06-20.05,3.45-1.41-1-2.91-1.44-4.53-.45-8.49-11-16.84-22.16-30.32-27.7-3.2-6.29-10-7.56-15.21-11.08-5-3.39-11-5.82-14-11.72-1.39-5-1.8-10.08.25-15.07,4.4,1,2.18,4.59,2.82,6.95.12-1.55.14,1.41.24.67C53.63,171.75,66,180.94,77.22,185.92Z" transform="translate(-45.29 -30.5)"/><path class="cls-8" d="M553.29,284.13a50.5,50.5,0,0,1-8.59-1.07c-13.12-3.34-16.28-15.67-6.7-25.55,13.82-14.26,49.16-14.82,63.17-.74,6,6.05,7.27,11.54-2.35,16.24C585.21,279.66,569.88,284.14,553.29,284.13Z" transform="translate(-45.29 -30.5)"/><path class="cls-2" d="M106.88,359.68c-20.87,4.95-39.3-2.82-56.82-12.27-8-4.3-4.83-11,1.35-15.92,13.45-10.65,39.59-11.69,55.11-2.17C118.06,344,118.07,344.93,106.88,359.68Z" transform="translate(-45.29 -30.5)"/><path class="cls-9" d="M377.91,75.69c-.7,7.45-1.3,14.92-2.15,22.35-.57,4.91-3,9-8,10s-7.57-3.3-9.11-7c-3.64-8.82-7.23-17.75-9.7-26.94-2.05-7.63.47-15.09,5.79-20.85,3.8-4.13,9.67-3.64,14.09-1.64,7.28,3.3,9,10.29,8.75,17.84-.08,2.08,0,4.17,0,6.25Z" transform="translate(-45.29 -30.5)"/><path class="cls-2" d="M282.65,133.68c5.29-5.59,11.76-4.54,16.9-1.06s6.34,10.46,5.34,15.73c-2.14,11.23-3.88,22.86-10.53,32.74-12.36,3.27-14.09,2.13-14.39-10-.19-7.51,0-15,0-22.55,0-4.32.41-8.59,4.28-11.2C290.9,132.89,280.42,136.06,282.65,133.68Z" transform="translate(-45.29 -30.5)"/><path class="cls-2" d="M106.6,251.88c-.38-2.55-2.59-6.75,3.17-4.53,2.54,1,4.37,3.66,6.79,5.12,5.94,3.59,9.06-1.14,12.45-4.64,4.44-4.57.89-7.73-2.51-10s-5.61-5.81-10-7-5.54-4.61-2.39-8.58c4,2.92,8,5.68,11.83,8.76,12.7,10.26,13.26,14,4,24.8C123,263.94,117.79,263.06,106.6,251.88Z" transform="translate(-45.29 -30.5)"/><path class="cls-2" d="M282.65,133.68h12.21c-10.77,2.67-13.61,9.82-12.55,19.89a74,74,0,0,1,.06,16.09c-1.11,9.55,2.91,13,12,11.43-4.27,6.87-9.12,9.69-14.6,1.36C275.06,175.3,277.32,140.93,282.65,133.68Z" transform="translate(-45.29 -30.5)"/><path class="cls-2" d="M77.22,185.92c-3.31.24-6.42.32-9.72-1.18-8.17-3.7-14.63,1-17.08,12.82-1.21-4.44-2.13-7.84-3.05-11.25C56.33,172.47,66.2,172.34,77.22,185.92Z" transform="translate(-45.29 -30.5)"/><path class="cls-2" d="M106.88,359.68c.25-2-.26-4.78.87-5.9,7.93-7.84,5.66-14.43-1.94-20.62-2.26-1.84-4.22-3.43.71-3.84,9,3.08,13,9.81,12.4,18.79C118.49,355,113.94,359,106.88,359.68Z" transform="translate(-45.29 -30.5)"/><path class="cls-2" d="M47.12,201.38c9.82,6.81,21.13,11.19,30.38,19,3.89,3.29,1.26,3.21-1.22,3.79C65.5,217.94,51.91,215.28,47.12,201.38Z" transform="translate(-45.29 -30.5)"/><path class="cls-10" d="M375.49,128.31c-.13,3.23.37,7.85-4.2,7.42-6.79-.63-7.31-6.93-8.12-12.16-.57-3.66,1.65-5.36,5.24-5C374.33,119.16,375.7,123.18,375.49,128.31Z" transform="translate(-45.29 -30.5)"/><path class="cls-2" d="M284.7,198c2.86.17,6.19.31,5,3.85-1.58,4.82-.35,11.76-7,13.45-3.84,1-4.6-2.87-4.41-5.92C278.64,204.51,277.76,198.8,284.7,198Z" transform="translate(-45.29 -30.5)"/><path class="cls-11" d="M605.34,517.3a55,55,0,0,1,0-29.51C609.77,497.63,610,507.46,605.34,517.3Z" transform="translate(-45.29 -30.5)"/><path class="cls-2" d="M500.88,546.52c-11.67.33-23.37.13-35-.36-13.95-.59-14.63-1.92-10-15.68,7.48.13,15,.42,22.43.36,18-.16,19.84-2.4,17.15-20.76h0c-.66-.92-1.33-1.83-2-2.75-12.31-5.9-25.31-1.37-37.93-2.51h0c-4-14-3.23-15.53,10.12-16.21s27-.67,40.55-1h0c10.32-5.81,9.68-13,2.71-21.07h0a14.49,14.49,0,0,0-9.77-4.15q-30.67-.19-61.36,0c-7.46.06-10,5-10,11.68,0,28.8.17,57.6,0,86.4-.05,8.49,3.78,12.28,12,12.27,20.46,0,40.91-.1,61.37.06,9.36.07,12.24-5,12.3-13.46C513.53,550.61,510.23,546.26,500.88,546.52Z" transform="translate(-45.29 -30.5)"/><path class="cls-2" d="M367.21,462.48c-11.23-.64-22.53.1-33.79-.26-7.85-.25-11.75,3-11.75,10.85q0,22.5,0,45c0,10.85-.76,21.7-.76,32.55,0,.83,0,1.67,0,2.5.77,19.23,1.19,19.66,20,19.67,8.76,0,17.55.32,26.28-.24,26.8-1.73,50.56-27.69,50.34-54.6C417.36,489.29,394.7,464.06,367.21,462.48Zm17.55,72c-8,10.78-19.29,11.77-31.27,11.25-4.22-.18-5.84-2.42-5.84-6.37,0-14.55-.07-29.1,0-43.65.08-10.21,8.38-5,12.83-6.86,11.82.26,21.37,5,26.87,15.22S391.89,524.87,384.76,534.53Z" transform="translate(-45.29 -30.5)"/><path class="cls-2" d="M608.11,555.11c-2.44-6-5.66-11.73-8.54-17.57h0c-3.75-8.37,4.95-13.18,5.77-20.24a127.19,127.19,0,0,0,0-29.51c-4.22-13.06-13.27-20.58-26.58-23.23-13.89-3.19-28-1.88-42-2.37-9.81-.35-13.48,4.07-13.41,13.49q.29,42,0,84.07c-.08,9.86,4.74,13.39,14,13.15,9-.23,12.74-4.67,12.18-13.52-.34-5.42,0-10.88,0-16.32,22.38-1.51,22.38-1.51,32.12,18.27,1.1,2.23,2.21,4.45,3.32,6.68h0c4.86,8.59,11.73,5.37,18,2.65C610,567.59,610.7,561.49,608.11,555.11Zm-46.58-39.94c-8.65,1.73-13.17-1.18-12.87-12.45.27-9.77,2-14.46,13.08-13.74,9.8.64,19,.87,20.69,12.94C583.62,510.56,576.36,515.12,561.53,515.17Z" transform="translate(-45.29 -30.5)"/></svg>