<?xml version="1.0" encoding="utf-8"?>
<!-- Generator: Adobe Illustrator 16.0.0, SVG Export Plug-In . SVG Version: 6.00 Build 0)  -->
<!DOCTYPE svg PUBLIC "-//W3C//DTD SVG 1.1//EN" "http://www.w3.org/Graphics/SVG/1.1/DTD/svg11.dtd">
<svg version="1.1" id="Layer_1" xmlns="http://www.w3.org/2000/svg" xmlns:xlink="http://www.w3.org/1999/xlink" x="0px" y="0px"
	 width="1434.625px" height="58.285px" viewBox="3.512 1 1434.625 58.285" enable-background="new 3.512 1 1434.625 58.285"
	 xml:space="preserve">
<g>
	<path fill="#4E5DB1" d="M586,1c49.667,0,99.333,0,149,0c4.912,2.072,6.665,6.934,9.729,10.705
		c9.021,11.113,15.564,23.955,24.775,34.921c2.376,2.828,4.313,6.043,2.391,10.043c-0.856,1.604-2.443,1.652-3.907,1.689
		c-10.474,0.268-20.796,2.135-31.225,2.805c-2.174,0.898-4.618-0.346-6.763,0.836c-1,0-2,0-3,0
		c-1.719-0.961-3.588-0.473-5.379-0.475c-29.273-0.035-58.547-0.025-87.814-0.025c-2.66-0.006-5.323,0.015-7.983-0.01
		c-0.864-0.053-1.562-0.443-2.13-1.072c-0.279-0.428-0.562-0.862-0.843-1.293c-10.128-12.75-18.132-27.016-28.265-39.788
		c-3.366-4.243-6.036-9.068-9.066-13.599C584.334,3.966,584.164,2.411,586,1z"/>
	<path fill="#4D5CB2" d="M625,58c0,0.334,0,0.668,0,1c-3.576,2.822-7.722,1.541-11.526,1.146c-2.275-0.239-4.568-0.631-6.88-0.634
		c-35.319-0.016-70.642-0.012-105.963-0.012c35.595,0,71.188-0.026,106.782,0.103c1.467,0.006,4.162-1.838,4.632,1.621
		c-1.803,0.534-3.646,0.264-5.465,0.264c-38.785,0.021-77.57,0.015-116.35,0.015c-1.438-0.002-2.888,0.006-4.326-0.006
		c-3.579-0.979-6.047-3.142-8.169-6.287c-7.413-10.982-14.698-22.062-22.926-32.481c-4.213-5.335-7.505-11.308-11.257-16.963
		C442.379,3.989,442.174,2.432,444,1c43,0,86,0,129,0c6.359,2.724,9.222,8.763,13.207,13.779
		c7.417,9.337,11.725,20.821,20.383,29.297c1.054,1.029,1.473,2.596,2.172,3.92c2.253,4.271,4.841,7.92,10.521,7.775
		C621.273,55.723,623.038,57.365,625,58z"/>
	<path fill="#4859B2" d="M1121,1c8,0,16,0,24,0c9.559,13.055,20.071,25.412,28.152,39.544c3.363,5.886,7.928,11.021,11.81,16.599
		c1.438,2.065,2.323,4.01-1.472,4.356c-16.184,0.002-32.353,0-48.521,0c-22.977,0-45.952,0-68.921,0
		c-2.008-0.002-4.021,0.004-6.031-0.004c-4.428-1.381-6.449-5.397-8.775-8.74c-6.229-8.944-12.857-17.575-19.317-26.341
		c-2.431-3.3-4.045-7.234-3.239-11.644c0.185-0.534,0.474-0.99,0.876-1.383c13.896-3.173,28.109-4.354,42.095-6.938
		c7.745-1.43,15.646-1.554,23.4-2.903C1103.699,2.64,1112.376,2.086,1121,1z"/>
	<path fill="#4C5BB3" d="M302,1c33.667,0,67.333,0,101,0c7.42,3.289,10.895,10.324,15.082,16.482
		c5.003,7.354,11.466,13.646,15.729,21.467c3.18,5.828,7.312,11,10.647,16.695c2.687,4.588,2.521,4.895-3.242,5.854
		c-32.039,0-64.066,0-96.082,0c-3.334,0.244-5.324-1.562-7.41-4.039c-11.685-13.885-20.451-29.825-31.458-44.172
		c-1.93-2.516-3.797-4.975-5.088-7.915C300.365,3.522,300.486,2.229,302,1z"/>
	<path fill="#4A5BB2" d="M1161,1c33.333,0,66.667,0,100,0c6.327,2.562,9.097,8.554,12.975,13.475
		c0.309,0.389,0.471,0.904,0.819,1.249c8.429,8.26,13.389,19.15,21.215,27.922c2.799,3.139,5.476,6.641,7.746,10.299
		c3.981,6.416,3.867,6.594-3.635,7.557c-31.736,0-63.461,0-95.173,0c-7.369,0.097-10.196-5.992-13.517-10.707
		c-9.429-13.393-18.571-26.989-28.062-40.344c-1.159-1.632-2.046-3.41-3.088-5.102C1159.208,3.607,1159.497,2.24,1161,1z"/>
	<path fill="#4F5EB0" d="M748,1c42.667,0,85.333,0,128,0c7.407,2.718,10.781,9.666,14.418,15.541c3.039,4.909,6.809,9.323,9.57,14.4
		c0.889,1.635,2.127,3.023,0.896,4.969c-0.796,0.678-1.382,1.637-2.476,1.965c-8.328,2.152-17.023,2.205-25.373,4.334
		c-23.989,3.646-47.986,7.226-71.96,10.963c-4.056,0.634-8.112,0.582-12.181,0.353c-7.781,1.957-10.579-4.162-14.229-8.838
		c-6.431-8.235-11.252-17.556-17.352-26.009c-2.991-4.146-6.766-7.694-9.478-12.091C746.606,4.586,745.597,2.801,748,1z"/>
	<path fill="#4B5CB2" d="M1340,1c33.667,0,67.333,0,101,0c0.2,0.445,0.484,0.839,0.482,1.379
		c-0.079,19.515,0.262,39.031-0.187,58.542c-1.502,1.082-3.221,0.547-4.829,0.552c-17.435,0.045-34.869,0.026-52.288,0.026
		c-0.548,0.002-1.108-0.004-1.657-0.02c-8.771-2.312-10.7-11.117-15.78-16.902c-3.796-4.324-6.669-9.463-10.56-13.76
		c-1.871-2.068-2.373-4.728-3.666-7.027c-3.344-5.945-7.684-11.184-11.888-16.504C1338.972,5.188,1337.248,3.403,1340,1z"/>
	<path fill="#4B5AB3" d="M302,1c3.979,9.08,10.641,16.388,16.191,24.424c8.188,11.859,16.529,23.611,24.808,35.408
		c-1.617,1.318-3.519,0.627-5.268,0.631C314.816,61.52,291.901,61.5,269,61.5c-3.227,0.25-4.596-2.24-6.102-4.348
		c-5.675-7.936-9.93-16.818-16.243-24.332c-0.105-0.127-0.14-0.32-0.259-0.422c-5.22-4.374-8.197-10.508-12.384-15.677
		c-4.941-6.1-5.421-9.06-1.012-15.722C256,1,279,1,302,1z"/>
	<path fill="#4B5AB4" d="M233,1c-1.441,6.561,0.9,11.376,5.249,16.608c10.092,12.146,19.449,24.937,27.55,38.569
		c0.897,1.511,1.553,2.906,1.202,4.654c-1.612,1.316-3.508,0.625-5.252,0.631c-20.36,0.058-40.721,0.037-61.068,0.037
		c-2.322,0.486-3.192-1.471-4.239-2.787c-10.911-13.729-20.196-28.614-30.227-42.969c-1.984-2.84-4.734-5.037-6.22-8.313
		C158.822,4.845,158.528,2.818,161,1c22.333,0,44.667,0,67,0c1.333,1.743,2.667,1.743,4,0C232.333,1,232.667,1,233,1z"/>
	<path fill="#4A59B4" d="M161,1c0.271,6.974,6.063,10.837,9.396,15.98c8.268,12.757,17.361,24.979,26.102,37.43
		c1.35,1.924,2.233,4.062,2.501,6.426c-0.465,0.836-1.276,0.627-2.005,0.664c-0.773-0.002-1.549,0.037-2.301-0.211
		c-12.778-3.209-25.247-7.422-37.538-12.098c-23.798-9.049-47.793-17.535-71.863-25.818c-5.079-1.748-10.149-3.51-15.066-5.703
		c-2.117-1.225-5.316-0.523-6.392-3.599c-1.206-2.535-3-4.689-5.015-6.581C56.299,5.125,56.378,3.093,59,1C93,1,127,1,161,1z"/>
	<path fill="#4A5BB1" d="M1302,60.83c3.33-2.309,0.458-4.502-0.711-5.719c-6.666-6.934-12.256-14.863-17.502-22.676
		C1276.549,21.658,1267.196,12.467,1261,1c16,0,32,0,48,0c3.341,1.396,5.615,3.863,7.71,6.798
		c10.491,14.696,20.667,29.616,31.229,44.259c1.178,1.633,1.946,3.467,2.954,5.18c1.542,2.619,0.587,4.062-2.401,4.265
		c-13.921,0.002-27.83,0.024-41.74-0.033C1305.172,61.458,1303.436,62.111,1302,60.83z"/>
	<path fill="#515FB3" d="M64.992,13.003C66.994,14.002,68.997,15.001,71,16c0.103,0.488,0.052,1.237,0.36,1.42
		c7.15,4.224,9.323,12.479,14.712,18.15c2.62,2.758,3.481,6.754,5.512,10.008c4.473,7.17,10.395,11.129,19.258,11.01
		c20.456-0.271,40.918-0.096,61.378-0.08c3.333,0.002,6.623,0.16,9.911,0.98c1.422,0.354,3.143,0.229,3.109,1.969
		c-0.034,1.785-1.867,1.471-3.149,1.525c-1.162,0.053-2.328,0.018-3.492,0.018c-25.284-0.004-50.567,0.006-75.85-0.002
		c-2.157-0.002-4.327-0.125-6.441,0.486C81.824,61.519,67.342,61.49,52.872,61.5c-3.422,0.289-4.94-2.346-6.558-4.553
		c-6.255-8.543-12.078-17.408-18.577-25.762C21.734,23.471,17.24,14.771,11.339,7.003C10.005,5.246,8.255,3.152,11,1c6,0,12,0,18,0
		c7.235,1.971,14.812,2.258,21.927,5.046C55.857,7.978,60.924,9.412,64.992,13.003z"/>
	<path fill="#4C5BB2" d="M443,60.833c1.37-2.99-1.575-4.555-2.654-6.328c-5.354-8.807-10.625-17.828-17.239-25.663
		c-7.017-8.307-12.195-17.857-19.27-26.048C403.422,2.314,403.272,1.604,403,1c13.667,0,27.333,0,41,0
		c4.5,8.523,10.093,16.346,15.907,23.974c8.854,11.617,16.491,24.074,25.092,35.859c-1.275,1.209-2.854,0.631-4.285,0.638
		c-11.143,0.053-22.286,0.053-33.43,0C445.854,61.464,444.274,62.042,443,60.833z"/>
	<path fill="#505FAF" d="M1030.01,15.006c-0.004,0.331-0.007,0.661-0.01,0.992c-1.388,2.938-4.359,2.867-6.839,3.243
		c-26.155,3.971-52.326,7.84-78.457,11.969c-1.825,0.289-3.648,0.248-5.456-0.067c-6.646,0.071-8.983-5.581-12.021-9.732
		c-3.716-5.08-7.428-10.227-10.599-15.72C915.544,3.812,915.093,2.431,917,1c34,0,68,0,102,0
		C1024.174,4.486,1027.623,9.328,1030.01,15.006z"/>
	<path fill="#4B5CB1" d="M1349.999,60.833C1337.498,40.089,1321.971,21.421,1309,1c10.333,0,20.667,0,31,0
		c1.99,4.81,6.235,7.984,8.91,12.364c2.712,4.44,6.223,8.219,8.158,13.35c1.426,3.782,4.922,6.896,7.494,10.298
		c3.893,5.147,8.074,10.12,11.046,15.829c1.669,3.209,5.223,4.611,6.443,7.99c-4.196,1.412-8.528,0.65-12.778,0.594
		C1362.851,61.335,1356.381,62.289,1349.999,60.833z"/>
	<path fill="#505EB3" d="M11,1c5.432,8.312,10.787,16.675,16.315,24.922c7.825,11.673,17.326,22.21,23.632,34.914
		c-0.25,0.199-0.501,0.398-0.751,0.601c-14.76,0.041-29.521,0.244-44.279-0.104c-2.362-0.793-2.436-2.732-2.399-4.729
		C7.265,40.044,4.802,23.23,5.498,6.541C5.58,4.576,5.198,2.494,7,1C8.333,1,9.667,1,11,1z"/>
	<path fill="#505FB0" d="M917,1c5.325,8.094,9.798,16.807,17.052,23.499c1.479,1.363,1.079,4.371,3.954,4.504
		c-0.495,4.134-3.757,4.101-6.744,4.479c-8.311,0.498-16.381,2.793-24.686,3.322c-2.362,0.15-4.872,0.566-6.576-1.805
		c-5.97-6.877-10.543-14.73-15.621-22.234C881.681,8.78,878.799,4.918,876,1C889.667,1,903.333,1,917,1z"/>
	<path fill="#485AB2" d="M1161,1c1.229,3.52,3.587,6.327,5.694,9.321c10.512,14.936,20.946,29.923,31.354,44.933
		c1.438,2.074,3.076,3.918,4.948,5.582c-6,1.07-11.999,1.074-17.998-0.002c-7.736-8.668-14.002-18.373-20.195-28.158
		c-4.41-6.967-8.885-13.948-14.704-19.883c-3.245-3.311-5.827-6.809-5.1-11.792C1150.333,1,1155.667,1,1161,1z"/>
	<path fill="#4F5EB1" d="M748,1c3.544,7.169,9.283,12.765,13.828,19.219c5.15,7.312,9.138,15.385,14.855,22.332
		c1.367,1.66,3.083,3.188,4.004,5.009c0.629,1.246,5.604-0.233,2.385,3.588c-0.198,0.233,3.204,0.578,4.936,0.856
		c0.414,0.498,0.469,1.031,0.165,1.604c-4.259,3.379-9.332,2.717-14.242,2.867c-1.229,0.02-2.335-0.217-2.931-1.467
		c-1.146-3.146-2.914-5.896-4.871-8.627c-10.223-14.271-20.293-28.656-30.376-43.029C735.302,2.708,735.242,1.79,735,1
		C739.333,1,743.667,1,748,1z"/>
	<path fill="#4D5CB1" d="M625,58c-0.664,0-1.344-0.092-1.991,0.015c-8.883,1.459-13.947-1.974-17.967-10.429
		c-3.219-6.77-9.962-12.024-13.396-18.893C586.588,18.58,578.378,10.776,573,1c4.333,0,8.667,0,13,0
		c5.269,8.021,10.065,16.406,15.92,23.973C610.16,35.625,616.736,47.396,625,58z"/>
	<path fill="#5160AF" d="M1030.01,15.006c-6.117-2.744-8.475-8.445-11.01-14.006c25,0,50,0,75,0
		c0.104,0.127,0.178,0.308,0.311,0.373c1.564,0.775,4.354-1,4.776,0.99c0.591,2.766-3.276,0.76-4.077,2.642
		c-13.562,3.475-27.525,4.585-41.29,6.872C1045.869,13.182,1038.037,14.927,1030.01,15.006z"/>
	<path fill="#4A59B5" d="M64.992,13.003C52.74,9.764,40.708,5.866,29,1c10,0,20,0,30,0c1.536,6.22,5.174,10.15,10.038,10.776
		C67.976,13.254,66.366,12.751,64.992,13.003z"/>
	<path fill="#505EB3" d="M5,57c0.333,1.275,0.667,2.553,1,3.828c-1.473,1.035-2.933,1.082-4.378-0.059
		C1.341,41.475,1.577,22.18,1.499,2.886C1.496,2.201,1.614,1.57,2,1c1,0,2,0,3,0c1.158,1.225,0.988,2.766,0.99,4.254
		c0.017,15.831,0.017,31.662,0,47.492C5.988,54.232,6.158,55.773,5,57z"/>
	<path fill="#505EB2" d="M5,57C5,38.333,5,19.667,5,1c0.667,0,1.333,0,2,0C6.999,17.388,7.011,33.775,6.983,50.164
		C6.979,52.605,7.382,55.223,5,57z"/>
	<path fill="#5160AE" d="M1095.01,5.005c-0.426-0.366-2.026,0.473-1.285-0.838c0.4-0.707,2.004-0.731,2.989-1.705
		c-1.979,0.16-3.957,0.321-6.249,0.507c0.879-1.646,2.638-1.039,3.535-1.969c9,0,18,0,27,0
		C1112.493,3.349,1103.805,4.521,1095.01,5.005z"/>
	<path fill="#9EA7D2" d="M1440.88,60.904c0.04-19.969,0.08-39.938,0.12-59.904"/>
	<path fill="#4B5AB3" d="M232,1c-0.343,1.047-0.581,2.271-2,2.271S228.343,2.047,228,1C229.333,1,230.667,1,232,1z"/>
	<path fill="#4D5CB1" d="M624.999,60.835c-4.342,0-8.685-0.002-13.026-0.002c-2.548-1.043-5.231-0.826-7.886-0.826
		C568.652,59.998,533.217,60,497.782,60c-1.979,0-3.952,0-5.929,0c-0.003-0.332-0.003-0.666-0.004-1c44.385,0,88.768,0,133.148,0
		C625,59.611,624.999,60.225,624.999,60.835z"/>
	<path fill="#4455B3" d="M776.002,61.166c-13.319-0.11-26.638-0.223-39.956-0.332c9.772-2.324,19.728-3.551,29.671-4.797
		c1.796-0.227,3.615-0.197,5.283-1.029c1-0.002,2-0.006,3-0.01c1.646,1.611,6.229,1.717,2.996,5.834
		C776.664,60.943,776.333,61.055,776.002,61.166z"/>
	<path fill="#4758B2" d="M1058.976,60.833c-0.676,0-1.351-0.002-2.023-0.002c-1.776-0.649-3.62-0.312-5.429-0.313
		c-29.564-0.022-59.132-0.028-88.695,0.004c-2.502,0.004-4.977-0.092-7.373-0.795c-2.509-0.733-4.639-1.767-5.129-4.873
		c-0.422-2.668-1.962-4.981-3.904-6.828c-2.68-2.547-5.038-5.34-6.689-8.606c-1.959-3.877-6.801-4.613-8.733-8.42
		c2.337-0.664,4.674-1.33,7.01-1.996c11.352-0.559,22.409-3.214,33.638-4.664c19.488-2.516,38.775-6.463,58.357-8.34
		c3.967,10.401,11.735,18.321,17.822,27.341C1051.691,49.07,1056.396,54.275,1058.976,60.833z"/>
	<path fill="#4656B2" d="M912.967,60.832c-38.146,0.058-76.296,0.117-114.441,0.16c-3.829,0.004-7.658-0.104-11.487-0.158
		c-0.984-1.115-3.07-1.344-2.341-3.772c0.863-2.884,1.021-3.397,3.3-4.067c0.004-0.328,0.008-0.658,0.012-0.988
		c11.312-0.771,22.405-3.117,33.611-4.65c17.14-2.346,34.131-5.73,51.375-7.357c2.396-0.502,3.89,1.037,5.276,2.527
		c1.463,1.57,3.061,3.199,3.959,5.074c4.05,8.438,10.862,10.93,19.647,9.957c2.883-0.318,5.825-0.078,8.653,0.852
		C911.785,58.814,913.457,58.708,912.967,60.832z"/>
	<path fill="#4758B3" d="M930.995,30.998c5.608-0.74,8.629,3.144,11.18,6.949c2.146,3.203,4.421,6.164,7.149,8.854
		c1.888,1.861,3.725,3.804,3.827,6.761c0.024,0.763,0.45,2.024,0.946,2.17c3.575,1.037,5.637,4.517,10.208,4.455
		c28.251-0.375,56.511-0.19,84.766-0.181c2.648,0.002,5.333-0.219,7.879,0.824c-27.817,0.057-55.635,0.146-83.452,0.154
		c-19.154,0.008-38.311-0.098-57.464-0.15c-0.957-1.696-3.111-1.877-4.23-3.371c-2.279-6.477-6.685-11.586-10.747-16.916
		c-0.47-1.889-3.238-2.227-3.062-4.551c0.668-0.332,1.337-0.664,2.005-0.996C910.332,33.666,920.663,32.332,930.995,30.998z"/>
	<path fill="#4657B2" d="M897.995,35.998c1.726,0.479,3.021,1.529,4.005,3.002c2.349,6.808,7.078,12.156,11,18
		c2.184,0.353,3.543,1.354,3.034,3.836c-1.022-0.002-2.045-0.004-3.067-0.004c-5.198-1.584-10.631-1.285-15.779-0.651
		c-7.938,0.975-12.342-3.019-16.061-8.964c-2.453-3.922-4.819-7.92-8.134-11.223C881.149,37.546,889.597,36.927,897.995,35.998z"/>
	<path fill="#515FB2" d="M194.978,60.833c-32.648,0-65.297,0-97.945,0c2.549-1.043,5.236-0.826,7.891-0.826
		C128.892,59.996,152.86,60,176.829,60c1.799,0,3.598,0,5.396,0c0.012-0.332,0.023-0.666,0.035-1c-1.705,0-3.41,0-5.114,0
		c-22.637,0-45.283-0.367-67.906,0.201c-7.831,0.197-12.973-2.973-17.426-8.451c-3.006-3.699-4.698-8.479-7.342-12.092
		c-4.277-5.85-7.709-12.392-12.783-17.667C70.22,19.465,68.789,18.003,71,16c17.718,5.302,35.053,11.727,52.434,18.005
		C147.389,42.66,171.443,51.059,194.978,60.833z"/>
	<path fill="#4656B3" d="M787.995,52.992c-2.05,3.824,2.11,1,2.465,2.701c-2.899,0.367-4.281,2.07-3.424,5.141
		c-3.347-0.002-6.693-0.002-10.04-0.002c-1.059-1.914-3.898-2.914-2.996-5.834C778.545,53.49,783.243,53.05,787.995,52.992z"/>
	<path fill="#4657B3" d="M913,57c-3.1-0.711-4.568-3.373-6.02-5.666c-1.79-2.826-3.489-5.629-6.062-7.817
		c-2.562-2.183-2.17-3.703,1.082-4.517C907.141,44.1,910.63,50.208,913,57z"/>
</g>
</svg>
