<?xml version="1.0" encoding="utf-8"?>
<!-- Generator: Adobe Illustrator 16.0.0, SVG Export Plug-In . SVG Version: 6.00 Build 0)  -->
<!DOCTYPE svg PUBLIC "-//W3C//DTD SVG 1.1//EN" "http://www.w3.org/Graphics/SVG/1.1/DTD/svg11.dtd">
<svg version="1.1" id="Layer_1" xmlns="http://www.w3.org/2000/svg" xmlns:xlink="http://www.w3.org/1999/xlink" x="0px" y="0px"
	 width="300.01px" height="235.864px" viewBox="0 0 300.01 235.864" enable-background="new 0 0 300.01 235.864"
	 xml:space="preserve">
<g>
	<path fill="#00B9BB" d="M149.748,235.864c-39.995,0-79.99,0.01-119.985-0.004c-18.905-0.006-29.75-10.843-29.754-29.736
		C-0.002,147.297-0.004,88.471,0.01,29.645C0.015,11.167,11.02,0.041,29.52,0.032c80.323-0.042,160.646-0.042,240.97,0
		c18.495,0.011,29.505,11.146,29.51,29.627c0.015,58.826,0.013,117.652,0.001,176.479c-0.004,18.887-10.854,29.718-29.768,29.724
		C230.071,235.874,189.91,235.864,149.748,235.864z"/>
	<path fill="#FEFEFE" d="M149.503,214.473c-39.499,0-78.998,0.003-118.497-0.002c-8.449-0.002-9.388-0.963-9.389-9.534
		c-0.002-43.832-0.003-87.664,0.001-131.496c0-8.027,0.897-8.957,8.891-8.958c79.664-0.01,159.329-0.01,238.993,0
		c7.992,0.001,8.888,0.93,8.888,8.962c0.004,43.998,0.004,87.997,0,131.995c0,7.873-1.123,9.025-8.891,9.027
		C229.501,214.479,189.502,214.473,149.503,214.473z"/>
	<path fill="#00B9BB" d="M171.315,85.864c25.656-0.001,51.31-0.004,76.963,0.002c7.479,0.002,8.822,1.317,8.879,8.609
		c0.098,12.712-0.195,13.002-13.122,13.002c-49.31,0-98.619,0.003-147.929-0.002c-9.239,0-10.252-1.027-10.253-10.269
		c0-1.332-0.018-2.665,0.003-3.998c0.09-5.717,1.661-7.325,7.497-7.332C119.341,85.848,145.329,85.864,171.315,85.864z"/>
	<path fill="#00B9BB" d="M171.321,150.016c-25.81,0-51.62,0.008-77.43-0.006c-6.925-0.004-8.004-1.135-8.038-8.184
		c-0.063-13.111-0.063-13.111,13.268-13.111c49.455,0,98.91-0.002,148.364,0.002c8.697,0,9.654,0.982,9.67,9.82
		c0.003,1.164,0.014,2.33-0.002,3.496c-0.084,6.528-1.461,7.967-7.903,7.973C223.272,150.028,197.297,150.016,171.321,150.016z"/>
	<path fill="#00B9BB" d="M171.456,171.715c25.809,0,51.618-0.008,77.426,0.007c6.908,0.004,8.195,1.299,8.273,8.106
		c0.152,13.188,0.152,13.188-12.797,13.188c-49.618,0-99.237,0.002-148.857-0.002c-8.833,0-9.642-0.825-9.647-9.734
		c-0.001-1.498-0.022-2.996,0.004-4.494c0.1-5.596,1.496-7.047,7.172-7.055C119.172,171.698,145.313,171.715,171.456,171.715z"/>
	<path fill="#00B9BB" d="M64.157,97.09c-0.404,3.073,1.522,7.736-2.906,9.359c-5.162,1.893-10.764,1.866-16.042-0.306
		c-1.231-0.506-1.819-1.827-2.163-3.193c-3.254-12.942,0.01-17.201,13.138-17.086c6.495,0.057,7.914,1.453,7.97,7.85
		C64.164,94.711,64.157,95.709,64.157,97.09z"/>
	<path fill="#00B9BB" d="M64.157,139.645c0,10.375,0,10.375-11.282,10.371c-9.701-0.003-10.029-0.372-10.022-11.294
		c0.006-9.537,0.551-10.015,11.414-10.007C63.71,128.722,64.157,129.215,64.157,139.645z"/>
	<path fill="#00B9BB" d="M64.156,182.549c-0.001,10.102-0.381,10.469-10.845,10.467c-10.006-0.001-10.468-0.508-10.458-11.456
		c0.008-9.506,0.431-9.854,11.966-9.845C63.81,171.723,64.158,172.125,64.156,182.549z"/>
</g>
</svg>
