<?xml version="1.0" encoding="utf-8"?>
<!-- Generator: Adobe Illustrator 16.0.0, SVG Export Plug-In . SVG Version: 6.00 Build 0)  -->
<!DOCTYPE svg PUBLIC "-//W3C//DTD SVG 1.1//EN" "http://www.w3.org/Graphics/SVG/1.1/DTD/svg11.dtd">
<svg version="1.1" id="Layer_1" xmlns="http://www.w3.org/2000/svg" xmlns:xlink="http://www.w3.org/1999/xlink" x="0px" y="0px"
	 width="321.621px" height="278.715px" viewBox="0 0 321.621 278.715" enable-background="new 0 0 321.621 278.715"
	 xml:space="preserve">
<g>
	<path fill="#00B9BB" d="M160.151,278.715c-43.498,0-86.995,0.002-130.492,0c-18.821-0.002-29.651-10.893-29.653-29.854
		C-0.001,175.866-0.003,102.87,0.007,29.875C0.01,11.052,10.95,0.039,29.792,0.026c56.33-0.036,112.66-0.013,168.99-0.013
		c30.999,0,61.997-0.039,92.995,0.017c14.643,0.026,25.539,7.596,28.656,20.092c0.914,3.664,1.133,7.58,1.136,11.381
		c0.062,71.995,0.061,143.992,0.037,215.988c-0.007,17.404-8.667,28.777-23.481,30.942c-1.965,0.286-3.984,0.271-5.98,0.272
		C248.146,278.719,204.148,278.715,160.151,278.715z"/>
	<path fill="#FEFEFE" d="M160.978,150.015c20.148,0,40.295-0.011,60.444,0.004c10.541,0.007,14.422,3.903,14.426,14.487
		c0.012,26.143,0.012,52.285,0.002,78.427c-0.006,10.567-3.838,14.51-14.445,14.521c-40.629,0.045-81.257,0.047-121.885-0.002
		c-9.838-0.013-13.658-3.904-13.66-13.523c-0.007-26.809-0.008-53.616,0-80.426c0.003-9.734,3.766-13.467,13.678-13.479
		C120.017,149.999,140.497,150.015,160.978,150.015z"/>
	<path fill="#FEFEFE" d="M160.501,128.715c-20.665,0-41.33,0.013-61.995-0.007c-8.698-0.008-12.638-3.869-12.644-12.402
		c-0.019-27.331-0.017-54.662,0-81.993c0.005-8.742,3.761-12.585,12.352-12.589c41.663-0.018,83.327-0.017,124.99,0
		c8.442,0.003,12.598,4.031,12.62,12.546c0.07,27.165,0.072,54.329,0.001,81.493c-0.023,8.946-4.275,12.946-13.329,12.949
		C201.832,128.719,181.167,128.715,160.501,128.715z"/>
	<path fill="#FEFEFE" d="M278.619,192.989c-3.326,0-6.656,0.098-9.979-0.021c-7.205-0.256-11.392-4.49-11.472-11.617
		c-0.073-6.486-0.063-12.975-0.003-19.461c0.062-6.789,3.662-11.245,10.383-11.662c7.451-0.463,14.979-0.449,22.43,0.027
		c6.16,0.394,9.865,4.849,9.988,11.029c0.137,6.816,0.137,13.641,0.003,20.457c-0.132,6.674-4.253,10.875-10.875,11.186
		c-3.483,0.164-6.983,0.029-10.477,0.029C278.619,192.965,278.619,192.977,278.619,192.989z"/>
	<path fill="#FEFEFE" d="M257.154,107.254c0.002-3.493-0.1-6.989,0.022-10.479c0.22-6.246,4.479-10.689,10.712-10.858
		c7.146-0.193,14.307-0.192,21.454,0.002c5.99,0.164,10.396,4.472,10.582,10.448c0.229,7.311,0.24,14.642-0.002,21.952
		c-0.198,5.963-4.663,10.214-10.675,10.353c-7.148,0.166-14.309,0.181-21.455-0.005c-6.195-0.16-10.413-4.626-10.618-10.935
		C257.062,114.244,257.154,110.748,257.154,107.254z"/>
	<path fill="#FEFEFE" d="M278.552,21.718c3.492-0.001,6.985-0.074,10.476,0.016c6.541,0.167,10.824,4.419,10.947,11.041
		c0.125,6.814,0.129,13.636-0.004,20.45c-0.129,6.615-4.287,10.969-10.902,11.185c-6.977,0.228-13.971,0.212-20.947,0.011
		c-6.537-0.188-10.811-4.617-10.936-11.152c-0.129-6.814-0.131-13.636-0.002-20.451c0.131-6.884,4.405-10.962,11.393-11.089
		C271.9,21.668,275.227,21.718,278.552,21.718z"/>
	<path fill="#FEFEFE" d="M299.998,235.834c-0.004,3.656,0.136,7.318-0.037,10.967c-0.256,5.406-3.807,9.521-9.164,10.154
		c-8.096,0.953-16.256,0.963-24.354,0.017c-5.527-0.646-9.137-4.886-9.252-10.567c-0.146-6.979-0.144-13.962-0.004-20.939
		c0.125-6.285,4.242-10.62,10.612-10.855c7.136-0.264,14.296-0.27,21.433,0.004c6.697,0.254,10.595,4.543,10.756,11.25
		C300.068,229.185,300.002,232.51,299.998,235.834z"/>
	<path fill="#FEFEFE" d="M64.146,107.568c-0.002,3.49,0.092,6.984-0.023,10.471c-0.199,6.028-4.319,10.435-10.317,10.617
		c-7.307,0.222-14.629,0.201-21.937,0.008c-5.759-0.152-10.054-4.442-10.196-10.173c-0.186-7.475-0.189-14.961,0-22.436
		c0.146-5.739,4.376-9.949,10.243-10.127c7.307-0.221,14.63-0.224,21.937-0.003c5.925,0.179,10.093,4.678,10.273,10.673
		C64.237,100.251,64.147,103.912,64.146,107.568z"/>
	<path fill="#FEFEFE" d="M64.148,43.059c0.001,3.323,0.05,6.647-0.009,9.97c-0.121,6.759-3.995,11.124-10.596,11.363
		c-7.136,0.259-14.294,0.246-21.432,0.02c-6.313-0.2-10.366-4.563-10.469-10.967c-0.112-6.978-0.123-13.96,0.003-20.937
		c0.122-6.75,4.174-10.678,11.027-10.77c6.812-0.093,13.626-0.098,20.438,0.001c6.733,0.098,10.834,4.175,11.019,10.851
		C64.227,36.078,64.147,39.57,64.148,43.059z"/>
	<path fill="#FEFEFE" d="M64.145,235.877c-0.002,3.656,0.101,7.315-0.027,10.969c-0.184,5.273-3.427,9.408-8.583,10.062
		c-8.414,1.064-16.917,1.074-25.331-0.011c-5.227-0.675-8.429-4.657-8.542-10.062c-0.152-7.311-0.167-14.627,0.002-21.936
		c0.138-5.979,3.929-9.994,9.998-10.234c7.463-0.295,14.957-0.305,22.418,0.004c6.226,0.26,9.896,4.453,10.051,10.738
		C64.218,228.897,64.147,232.389,64.145,235.877z"/>
	<path fill="#FEFEFE" d="M64.145,171.79c-0.005,3.654,0.128,7.316-0.036,10.965c-0.249,5.518-4.239,9.861-9.761,10.066
		c-7.63,0.284-15.289,0.305-22.917-0.007c-5.907-0.241-9.642-4.435-9.774-10.474c-0.15-6.811-0.084-13.625-0.028-20.438
		c0.058-7.043,3.829-11.433,10.745-11.772c6.961-0.344,13.964-0.324,20.928-0.012c6.896,0.309,10.744,4.723,10.84,11.7
		C64.188,165.141,64.15,168.465,64.145,171.79z"/>
</g>
</svg>
